<svg id="Layer_1" data-name="Layer 1" xmlns="http://www.w3.org/2000/svg" viewBox="0 0 300 300"><g id="Artwork_34" data-name="Artwork 34"><path d="M161.78,181.49a12.22,12.22,0,0,1,8.54-6.41c1.6-.33,3.36.12,5.05.19,1.28.06,2.56.08,3.84.12h0c2.71,2,5.52,4,6.8,7.34a15.32,15.32,0,0,1,.81,6.72c-.08,1.12,0,2.12,1.05,2.5-.74.5-1.55,1-2.33,1.59a.83.83,0,0,0-.1.64c.18.88-.07,1.21-1,1.14a2.44,2.44,0,0,1-.88-.31c-1.08-.57-1.47-.43-1.87.7a4,4,0,0,1-.23.46s-.06,0-.25.07c-.05-.45-.1-.87-.14-1.29-.11-1.22-.35-1.36-1.37-1-.13.47-.11,1.05-.35,1.18a2.58,2.58,0,0,1-1.58.33,9.06,9.06,0,0,0-4.42-.08,1.55,1.55,0,0,1-.71,0c-2-.32-3.17.47-3.61,2.37a3.94,3.94,0,0,1-.47.91l-.35-.07a7.2,7.2,0,0,1-.06-1.13,6.55,6.55,0,0,1,.33-1.12,1.86,1.86,0,0,0-1.6,1.88c0,.43-.45.83-.69,1.25a4.71,4.71,0,0,1-.68-1.07,6.48,6.48,0,0,1-.21-1.41l-.41,0c0,.27-.06.55-.1.82a3.34,3.34,0,0,1-.21,1.07c-.47.82-.38,1.39.73,1.72-1.26.73-.78,1.86-.82,2.85a2.41,2.41,0,0,1-.82,1.89,2.84,2.84,0,0,0-.51,2.09c.12,1.41-.07,1.78-1.45,1.88-2,.16-2,.16-1.78,2.28a1.25,1.25,0,0,1,0,.72,1.83,1.83,0,0,0,.46,2.34c.36.38.5.9,1.21.63a.91.91,0,0,0,.66-1.21c0-.14.06-.32.09-.46s.22-.08.26-.06a2.85,2.85,0,0,1,1.36,3.18,1.48,1.48,0,0,1-.4.71c-1.22,1-1.23,1-1.34,2.33l-.93-.78c-.49,2-1,3.92-1.49,6,1-.13,1.35-.39,1.4-1.17a16.43,16.43,0,0,1,.51-2.45l.46.07a4.28,4.28,0,0,1-.13,1.21c-.42,1,.08,1.47.87,1.63s1.09.59,1,1.46a5.15,5.15,0,0,0,.58,1.73c-1,.89-.94,1.34.85,2-.17.66-.36,1.32-.5,2s.12.92.77,1a6.17,6.17,0,0,1,1.32.31c.42.13.82.32,1.43.57-.07-1.6-.49-3.13.64-4.63a15.17,15.17,0,0,1,.5,2.25c.07,1.17.88,1.28,1.75,1.37a1.67,1.67,0,0,0,1.93-1.09,19.59,19.59,0,0,0,.63-3c.14-.76-.07-1.16-1-.85-.26.08-.63-.17-.95-.27.16-.26.26-.64.49-.76a7.05,7.05,0,0,1,1.57-.59,2,2,0,0,0,1.43-2.86c-.24-.66-.3-1.4-.52-2.07-.1-.32-.35-.75-.62-.83-.67-.2-.71-.54-.69-1.17a5.57,5.57,0,0,0-.45-3c-.6.72-1.11,1.38-1.69,2-.13.13-.5,0-.66,0,.27-.72.51-1.38.77-2,.32-.81.63-1.63,1-2.41s.41-1.34-.65-1.47a2.79,2.79,0,0,1-.53-.21l.85-3c1.21.58,2.32,1.25,3.62,1a2.42,2.42,0,0,0,2.1-2.66l1.27,1.36c-.11.23-.34.51-.3.72s.42.68.56.64c.62-.14,1.19-.22,1.58.41s-.14,1-.47,1.52a1.74,1.74,0,0,0-.32,1.17c.43,2.45-.74,4.52-1.46,6.71-.37,1.14-.62,2.33-1,3.49s-.65,2.09-1,3.14l-.14-.45-.12.06.27.38-1.2,3.5c-.29.84-.55,1.69-.86,2.52-.12.31-.34.77-.58.82a1.13,1.13,0,0,0-1.09,1.35,2,2,0,0,1-.28.77,18.34,18.34,0,0,0-2-1.37c-.09,0-.68.58-.8,1s.27.64.56,1.25a16.06,16.06,0,0,1-1.7,0c-.64-.07-1.28-.24-1.92-.36-.09-.26-.18-.53-.28-.79-.24-.66-2-1.35-2.38-.82-1.14,1.62-1.29.76-1.41-.46,0-.06-.08-.12-.1-.18a17.61,17.61,0,0,0-.63-1.9,1.51,1.51,0,0,0-.7-.77,6.32,6.32,0,0,0-1.47-.26c.07,1,.15,1.88-1,2.15l.16,1-.21.19c-.42-.31-.84-.62-1.27-.91-.27-.19-.75-.54-.83-.47-.73.66-1.66.31-2.45.59-.39.14-.93.43-1,.75s.3.77.5,1.16.31.48.46.72c-.31,0-.68.12-.92,0-1-.55-2-1.18-3-1.73a2.67,2.67,0,0,0-1.17-.33c-1.15-.05-1.74-.92-2.49-1.58-.21-.18-.61-.12-.93-.18a7.21,7.21,0,0,0,.09,1.75c.07.21.68.31,1.05.37.85.13,1.87,0,2.53.36a31.62,31.62,0,0,1,3.53,2.94c.53.45,1,1,1.56,1.38,1.84,1.43,3.7,2.85,5.56,4.24.85.65,1.74,1.24,2.62,1.86l.26-.39c-.66-.53-1.33-1-2-1.59-1-.89-2-1.81-3-2.7-.39-.34-.89-.58-1.26-.94A8.24,8.24,0,0,1,156,238l.22-.23c.78.19,1.58.35,2.35.58a1.32,1.32,0,0,1,.78.53c.34.83.74,1,1.47.63.53-.3,1.05-.62,1.43-.85l-.2-2.16a4.4,4.4,0,0,1-.88-3.25c0-.18-.15-.47-.3-.62-.57-.56-.25-.89.43-1.4.22.83.4,1.52.59,2.2a21.43,21.43,0,0,0,.71,2.49c.09.21.63.27,1,.33s.91-.12,1,0a1.9,1.9,0,0,1,.08,1.12c-.09.9-.29,1.78-.29,2.67,0,.22.65.42,1,.63a3,3,0,0,0,.39-.91c0-.92-.09-1.83-.13-2.48l1.39-1.67v1.65a3.08,3.08,0,0,1,3.49,2.12l-1.34-.25c1.55,2.25,1.36,2.69-1.44,3.52a9.54,9.54,0,0,1,.39,1.36c.15,1.09-.59,1.77-1.24,2.48-.15.17-.36.33-.41.53a42.93,42.93,0,0,1-1.12,4.4,20.49,20.49,0,0,1-1.76,2.81c-1.16,2-2.29,4-3.37,6a1.88,1.88,0,0,0-.11,1.3,2.11,2.11,0,0,1-.59,2.09c-2.31,2.8-4.51,5.69-6.88,8.43a38.44,38.44,0,0,1-4.3,4c-.28.23-.91,0-1.63,0,.83.79,1.62.9,2.33.35a39.1,39.1,0,0,0,3.66-3.12c6.1-6.05,10.94-13.08,15.62-20.23.78-1.19,1.53-2.41,2.42-3.56q-.83,2.84-1.66,5.67a1.39,1.39,0,0,1-.33.53,16.21,16.21,0,0,0-4.13,7.15,2.53,2.53,0,0,1-.67.9c-.88.83-1.86,1.57-2.66,2.48-.58.66-.88,1.56-1.41,2.27s-1.28,1.42-1.9,2.15a2.71,2.71,0,0,0-.42.83c-.35,1.09-.44,2.18-1.53,3.05-.94.75-1.37,2.13-2,3.26a2.46,2.46,0,0,0-.07.91h0c-.25.13-.49.27-.74.39-.48.22-.87.46-.49.79a17.74,17.74,0,0,0-1.78,1.68,3.08,3.08,0,0,1-3.89.84c-2.09-.9-3.45-2.57-4.89-4.19a19.68,19.68,0,0,0-2.3-1.68,29.72,29.72,0,0,1-4-3.44c-3.31-3.83-6.6-7.7-9.65-11.74a121.43,121.43,0,0,1-8-11.77,116.86,116.86,0,0,1-5.33-11.25c-1.25-2.76-2.48-5.54-3.52-8.38-1.58-4.33-3.17-8.67-4.42-13.11-1.6-5.66-2.94-11.4-4.26-17.14-.47-2-.57-4.13-.84-6.19-.46-3.46-1-6.9-1.36-10.37-.21-2.35,0-4.73-.07-7.1a13.2,13.2,0,0,0-.38-2c.22,0,.72,0,1-.18a1.79,1.79,0,0,0,.41-1.13c0-.75.22-1.28,1.08-1.42a1,1,0,0,0,.73-.63,52.13,52.13,0,0,0,.61-5.43c.09-2.12,0-4.26,0-6.39a16,16,0,0,1,.41-2.13c.34-2.26.63-4.52,1-6.76,0-.25.43-.44.66-.66s.72-.51.71-.74c-.08-1.2.67-2.33.17-3.59-.15-.39.27-1,.33-1.49,0-.33-.06-.95-.18-1-1.69-.34-2-1.87-2.79-3a12.09,12.09,0,0,1-.72-1.6c-.16.18-.39.31-.45.5a17.36,17.36,0,0,0-.86,7.19,17.63,17.63,0,0,1-.38,7.37,1.57,1.57,0,0,0,0,.93c.57,1.73-.14,3.39-.19,5.08,0,1.44.13,2.87.13,4.31s-.1,2.77-.18,4.16c0,.47-.12,1-.18,1.42a2.41,2.41,0,0,1-.14.92,11.14,11.14,0,0,1-1.1,1.18,5.6,5.6,0,0,1-.46-1.36c-.16-2.44-.34-4.88-.35-7.33q0-9,.12-18a72.81,72.81,0,0,1,.49-8c.61-5,1.22-9.93,2.13-14.84A219,219,0,0,1,108,90.81c.84-2.46,1.91-4.83,2.86-7.26.57-1.46,1.07-3,1.68-4.41a13,13,0,0,1,1.12-1.8,4.48,4.48,0,0,1,.22-1.06,23.11,23.11,0,0,1,1.26-2.66,6.2,6.2,0,0,1,1-1.1c.38-.39,1.12-.61.49-1.4-.13-.16,0-.67.21-1,.57-1,1.19-2,1.84-3.1h1.55l.08-.3-1.17-.7.6-1.15h0a4.46,4.46,0,0,1,.76.48c.31.31.78.65.8,1a1.8,1.8,0,0,0,1,1.52c.56.35,1.36,1,1.29,1.47-.11.8.22,2-1,2.39-.57-.18-.67-1.39-1.36-.78-.36.33-.2,1.24-.25,1.89,0,.16.06.33-.19.35-.76,1.16-1.56,2.29-2.27,3.47-.8,1.34-1.48,2.75-2.29,4.08A12.12,12.12,0,0,1,115,82.34c0,.06-.13.08-.15.14a9.65,9.65,0,0,1-2.15,3.31c-.14.13.06.58,0,.88a7.21,7.21,0,0,1-.41,2.2c-.49,1-.93-.21-1.63-.2a5.5,5.5,0,0,0,.55,1.19,2.94,2.94,0,0,1,.5,2.88c-.47,1.45-1,2.86-1.59,4.29-.08.23-.32.45-.3.66a9.64,9.64,0,0,0,.32,1.39c.26-.31.67-.59.77-1a1.31,1.31,0,0,1,2-1,.88.88,0,0,0,1.2-.47,18.16,18.16,0,0,0,1.69-2.31c.6-1.39.86-2.92,1.42-4.32.46-1.15,1.24-2.18,1.74-3.31.85-2,1.59-3.94,2.4-5.9.61-1.48,1.31-2.92,1.88-4.42a13.67,13.67,0,0,1,2.75-4.7,9.11,9.11,0,0,0,1-1.6,1.15,1.15,0,0,1,.17,1.76A6.12,6.12,0,0,0,125.69,76a2.71,2.71,0,0,1-1,2.08c-1.91,1.22-2.27,3.21-3,5.09-.63,1.67-.91,3.42-1.46,5.07-.39,1.17-1,2.32-1.39,3.52-.1.3-.81.4-1.41.66,0,1.06,0,2.37,0,3.67,0,.3-.51.57-.95.69,0,.06-.11.14-.09.18a5.13,5.13,0,0,1-.56,4.66,15.37,15.37,0,0,0-1.25,3.72c-.2.82,0,1.74-.22,2.56-.71,2.7-1.55,5.37-2.28,8.06-.24.9-.29,1.85-.48,2.76-.62,3-1.27,5.94-1.91,8.91-.4,1.81-.83,3.61-1.17,5.43-.26,1.36-.42,2.75-.57,4.13-.28,2.39-.59,4.78-.75,7.17-.18,2.82-.21,5.65-.31,8.47,0,.28.1.67,0,.82-.85.87-.2,1.74-.15,2.64.11,1.81,0,3.63,0,5.44.15,4.43.35,8.86.52,13.29,0,.9,0,1.8.08,2.68.23,2.26.51,4.51.78,6.76,0,.07,0,.15,0,.21.88,1.79.57,3.76.87,5.64s.41,3.53.72,5.27c.49,2.73,1.07,5.44,1.6,8.17.23,1.19.45,2.39.69,3.59.5,2.53,1,5.07,1.54,7.58s1.18,4.75,1.89,7.09c.92,3.05,2,6,2.9,9.09a99.22,99.22,0,0,0,9.76,21.9,80.32,80.32,0,0,0,8.12,12.09c2.78,3.27,5.8,6.34,8.72,9.49.11.12.27.19.6.13a6.25,6.25,0,0,0-.74-1,83.69,83.69,0,0,1-10.9-12.73,98,98,0,0,1-8.68-14.68c-1-2.15-2.2-4.23-3.06-6.44-1.33-3.45-2.45-7-3.64-10.49a1.05,1.05,0,0,1,.14-.87c1-1.07.38-2.22-.06-3.13a4.17,4.17,0,0,1-.32-1.58c-.14-1.14-.47-2.26-.71-3.38-.08-.37-.11-.74-.16-1.11l.27,0a2.06,2.06,0,0,1,.21.42c.15.91.61.78,1.17.38l1.49-1.06L119,217.88l.12,1.28a8.62,8.62,0,0,1-1.36-.75,10.13,10.13,0,0,1-1-1.15c-.25-.27-.52-.52-.78-.79-.06.35-.14.69-.19,1a3.35,3.35,0,0,0,0,.45,2.29,2.29,0,0,1-.46-2.89c.09-.16.16-.46.08-.55-1.05-1.23-.3-2.51-.22-3.8a19.87,19.87,0,0,0-.35-4.13c0-.25-.6-.39-.87-.64s-1-.73-1-1.07c.06-1.46-.71-2.66-1-4-.05-.25.31-.82.51-.84,1.22-.11,1.22-.07,1.07-1.28a5.71,5.71,0,0,1-1.51-.12,1.23,1.23,0,0,1-.67-.82c-.4-2.51-.74-5-1.08-7.55a11.79,11.79,0,0,1-.11-1.88c0-.69.12-1.4,1.25-.66,0-.63,0-1.1.13-1.56.16-1.06.36-2.11.54-3.16a5.53,5.53,0,0,0,0-.71c0-.06-.08-.12-.08-.19a11.29,11.29,0,0,0,.11-2.45,9.37,9.37,0,0,0-1-2.15l.37-.28.65,1.28c.48-1,1-1.82-.29-2.5,1.35.7,1.8-.17,2.25-.94,1.66-2.87,4.31-3.67,7.4-3.62.52,0,1-.15,1.56-.15a35.72,35.72,0,0,1,5.48.11c3.7.56,6.65,2.84,9.81,4.65a2.69,2.69,0,0,1,1.58,3,1,1,0,0,0,.13.6,22.17,22.17,0,0,0,1.84,2.43l-.24-.85a2,2,0,0,1,1.89,2.16c0,.89,0,1.9,1.37,1.84.17,0,.38.18.53.32a5.52,5.52,0,0,1,.5,4.34,3.34,3.34,0,0,0,1,.45q3.43.33,6.88.56c.89.06,1.34-.53,1.71-1.29.57-1.14,1.26-2.21,1.9-3.31h0c-.87,3-.87,3,1.3,3.84,0,0,.07,0-.21,0,.56-.33.94-.73,1.17-.66a1.4,1.4,0,0,1,.9.84c.1.85.63.77,1.2.79,3.38.11,6.77.21,10.16.35,4,.16,7.94.36,11.91.54.07,0,.15,0,.2,0,.23-.13.61-.26.64-.42a.94.94,0,0,0-.31-.78,1.91,1.91,0,0,0-1-.29c-1.47-.08-2-.81-1.86-2.28a16,16,0,0,0,0-2,15.85,15.85,0,0,1,0-2.84c.09-.51.31-.87-.15-1.28-.12-.11-.05-.41-.06-.63.23,0,.54,0,.66.09a7.28,7.28,0,0,1,.8,1.09c.35.54.67,1.09,1,1.64l.26-.16a1.74,1.74,0,0,0-.11-.39A13.07,13.07,0,0,0,179,178c-.72-.44-1.38-1.62-2.46-.5-.08.08-.34,0-.51,0-1.4-.08-2.81-.59-4.21.06-.13.06-.37-.12-.57-.17-.35-.09-.71-.18-1.08-.25-1.38-.24-2.46.64-3.66,1-.71.24-1.66.43-2,1a6.36,6.36,0,0,1-2.74,2.33Zm-28.15,69.94h0Zm10.91-63.65.21-.21.05,0,0,0-.21.22Zm12,9.88-.08.08.07-.09h0Zm-17.84-20.59h0l-.84-1.05h0Zm4.41,7.14,0,0,0,0-.47-1.08-.21.12ZM118.5,68.49h0l.67.64.21-.35Zm39.28,142.4h0l-.12-1-.47.19Zm16.59,5.87.95-.07a3.8,3.8,0,0,1,.05.89c-.09.54-.26,1.06-.4,1.59l.3.12c.2-.3.4-.61.61-.9a5,5,0,0,1,.76-.95,1.91,1.91,0,0,0,.12-2.56,4.68,4.68,0,0,0-.45.68c-.21.52-.49.68-1.05.42-.91-.42-1-.33-.88.79l-.08.09Zm-40.75,20.6a8.38,8.38,0,0,0,4.14-3.5,3.35,3.35,0,0,0-1.53.41,18.59,18.59,0,0,1-1.68,1,1.41,1.41,0,0,0-.92,2.06c-.09,0-.18.06,0,0C133.47,237.48,133.55,237.42,133.62,237.36Zm9.88-1.88-3.31,1a3.16,3.16,0,0,1,1.7-2.33,1.58,1.58,0,0,0,.64-.64c.06-.09-.14-.49-.24-.5a1.86,1.86,0,0,0-.83.16c-.31.13-.58.38-.9.52-.7.28-1.09,0-1-.79,0-.14.14-.29.1-.4a7.36,7.36,0,0,0-.42-.9c-.23.27-.56.51-.67.83a2,2,0,0,0,.08,1,1.87,1.87,0,0,1-.75,2.12,1.26,1.26,0,0,0-.24.36c.53.11,1.24.07,1.42.36s.06,1,.06,1.92l4.33-2.75a2.31,2.31,0,0,0,1.35-3.73,19.32,19.32,0,0,1-.21,1.93A9,9,0,0,1,143.5,235.48ZM132.79,200.6h0a6.14,6.14,0,0,1-.75-1.55c-.16-1.05-.74-1.4-1.69-.84L129,199c1.94,1.17.95,3.06,1,4.79l.94-.46c1.13,1.29-1,2.63.21,3.9.38-.83.56-1.7.85-2.53a1.39,1.39,0,0,1,.72-.84c1.64-.43,1.88-.91,1.21-2.38-.62.3-1.24.65-1.88.9s-.77-.1-.66-.65C131.5,201,132.08,200.69,132.79,200.6Zm11.13,68.7h0c.34.07.76.32,1,.2.7-.33,1.28-1,2-1.17s1.44-.47,1.6-1.36c1,.44,1.38.32,1.82-.31a7.44,7.44,0,0,1,1.22-1.15l.73-.68a5.35,5.35,0,0,1-.67-.47c-.14-.13-.17-.38-.31-.49s-.53-.37-.72-.31a4.41,4.41,0,0,1-4.69-1.06.75.75,0,0,0-.46-.21,5.86,5.86,0,0,1-3.57-.94c-.25-.13-.67,0-1,.07.91.74,1,1.41.6,3h-1l-.12.32a8.77,8.77,0,0,0,1.61.83c1,.28,1.41.68,1.23,1.64S143.08,268.82,143.92,269.3Zm-6.52-56.73c.9-.83.86-.91.06-1.68a1.27,1.27,0,0,1-.3-1.14,14.87,14.87,0,0,0,1.29-5.78c.06-.86,0-1.72,0-2.58-.43.06-.56.13-.63.23-.52.85-1.09,1.68-1.53,2.57-.24.47-.52,1.2-.33,1.56.58,1.06-.07,1.6-.6,2.29-.22.27-.44.83-.31,1.06.59,1,.12,1.75-.52,2.44s-1.16,1.11-1.74,1.67c-.29.28-.57.58-1,1a1.86,1.86,0,0,1,.55-2.18c.84-1,.81-1.07-.39-1.7a1.08,1.08,0,0,1-.5-.9c.1-.33.51-.59.84-.83.12-.09.35,0,.54,0l.06-.34c-.38-.08-.86-.35-1.12-.21a2.52,2.52,0,0,0-1.06,1.13c-.54,1.27-.89,2.62-1.44,3.87-.63,1.42-.7,1.39.62,2a30.09,30.09,0,0,1-.49,3.5c-.32,1.23-.14,2.69-1.5,3.53a1,1,0,0,0-.31,1,11,11,0,0,0,1.36,1.54h0c.1.28.13.74.33.83a12,12,0,0,0,1.76.5l.82-1.14c-.24-.36-.47-.67-.66-1a3.45,3.45,0,0,1-.4-3.42,2.91,2.91,0,0,0,.13-2.8,1.24,1.24,0,0,1,.46-1.12c1.13-.31,1.3-1.31,1.67-2.13s.77-.94,1.39-.62.54.93.21,1.52-.6,1.2-.93,1.87c1.22.09,2.92-2,3.08-3.39L135,212.8c.22-.43.34-1,.67-1.17s.72.26,1.08.45a5.3,5.3,0,0,1,.67.5Zm-1.25-25.83h0c0-.44,0-.88,0-1.32a10.45,10.45,0,0,1,0-2.3,1.75,1.75,0,0,0-.72-2l-1.87-1.35-.29.45h0l-1-1c-.49-.46-1-.94-1.5-1.37a6.24,6.24,0,0,0-1-.55,3,3,0,0,1-3,.3,3.13,3.13,0,0,1-.6-.5,2,2,0,0,1,.44-.5c.67-.35.43-.59-.06-.82h0c-1.44,0-1.6.2-1.47,1.48a2.06,2.06,0,0,1-.44,1.2c-.08.11-.58-.09-.89-.13l-.48,0c0,.6,0,1.14,0,1.68a2.84,2.84,0,0,1-1.22,2.46c-.39.24-.86.62-.93,1s.57.63.94,1c-.46.74-.79,1.82-1.52,2.32s-1.77.28-2.68.39v.15l3.64.5-.11-.34c.24-.36.44-1,.75-1s.86.28,1.29.45l-.79,1.12a1.63,1.63,0,0,0,.43.14q3.24.47,6.48.89c2,.25,2,.23,3.13-1.55.22,1.11.23,2.27,1.55,2.33,1,0,2,.13,3,.19l.05-.39c-.78-.8-2.34,0-2.95-1.28l1.18-.57c-.9-1-2.72-1.23-2.28-3l.63,1.13,1.33-.69Zm14.06,8.83-.08-.09.09.08c-.13.9-.34,1.79-.39,2.69s0,2,0,3c-.07,2.22-.2,4.43-.29,6.65-.09,2.49-.07,5-.3,7.47a47,47,0,0,1-1,4.95l.46.06-.86,2.82.29.09.64-.41c-.17.7-.25,1.19-.39,1.66-.3.94.07,2.34.7,2.43a8.22,8.22,0,0,0,2,.09,1.76,1.76,0,0,0,1.81-1.54,8.44,8.44,0,0,1,.86-1.73c.28-.6.81-1.24-.2-1.75-.15-.08-.15-.48-.22-.74.22,0,.47-.17.64-.11a2,2,0,0,1,1.12,2.5c-.18.58-.31,1.17-.46,1.73l-.58.87c.38,0,.87,0,1.13-.16a18,18,0,0,0,2.19-2.08,2.11,2.11,0,0,0,.61-1.35c-.37-3.75-.78-7.5-1.26-11.23-.2-1.57-.63-3.1-.93-4.65-.08-.4,0-.82-.1-1.22-.09-.63-.21-1.25-.32-1.88-.19-.24-1-.14-.52-1.06a2.8,2.8,0,0,0-1.94-4.09c-.6-.13-.9-.32-.9-.91,0-1.32,0-2.64,0-3.95a2.84,2.84,0,0,0-.35-.88l-.34.07a3.06,3.06,0,0,0-.18,1A1.45,1.45,0,0,1,150.21,195.57Zm-4.34,53.07c1.08,1,.75,1.89.12,2.73-.34.46-.54.83-.21,1.4.1.18-.15.57-.26.85s-.44.73-.39,1.06a10.31,10.31,0,0,0,.55,1.79l-1.63,1.62a18.81,18.81,0,0,0,1.8,1.43c1,.62,2,1,3-.12.24-.26.78-.24,1.18-.37,1.59-.52,3.43-.58,4.35-2.38.14-.29.61-.44.94-.61s.94-.26,1.23-.57c1.86-2,4.64-2.45,6.71-4.15.86-.71,1.71-1.06,2-2.34.33-1.63.39-2-1.11-2.77-3.47-1.77-6.48-4.4-10.53-5.11-1.91-.33-3.68-1.44-5.5-2.21a2,2,0,0,0-2.69,1.11c-.65,1.17.42,1.23,1,1.6,1.18.74,1.35,1.39.56,2.34-.35.43-.77.8-1.13,1.22-.08.09,0,.3,0,.59l1-.6c-.05.58-.22,1.26-.1,1.32.95.44.32,1.11.4,1.67Zm-33.05-52.46c-.41-1-.48-1.67.59-2.06.72-.26.93-.71.18-1.28a1.71,1.71,0,0,1-.54-.85c-.2-.81-.31-1.63-.47-2.49l-.53.26-.5-1.16a4,4,0,0,0-.3,1.22c.07,1.18.25,2.36.39,3.53.15,1.38.28,2.76.45,4.13.08.71.2,1.22,1.07.47.48-.4,1.14-1.14,2-.16.46.55.9.07,1.21-.62-1.39-.3-3-.34-3-2.42l-.27.21Zm18.57,35c-.91-1.06-.58-2.18-.36-3.31a2.84,2.84,0,0,0-.21-1.08c-.27.23-.72.43-.78.71-.34,1.57-1.25,3.06-.64,4.93.91-.2,1.86-.38,2.78-.64.23-.06.37-.4.56-.61a5.69,5.69,0,0,0-.89-.2C131.71,231,131.55,231.1,131.39,231.17ZM135.13,244a2.94,2.94,0,0,0,.46-.18c1-.7,2-1.38,3-2.13.14-.11,0-.6,0-.92a7.74,7.74,0,0,0-1.21.37c-.43.2-.77.6-1.2.76C134.76,242.43,134.75,242.4,135.13,244Zm-20.61-42.54a9.22,9.22,0,0,0,.22,1.48c.1.29.41.51.63.76a3.93,3.93,0,0,0,.79-.9,1.6,1.6,0,0,0,.06-1.08,21,21,0,0,0-.86-1.95c-.28.51-.55,1-.82,1.54A.31.31,0,0,0,114.52,201.49Zm28.26,36.89-.33-1.2c-.52.5-1,.8-1.22,1.25a1.43,1.43,0,0,0,.18,1.29c.42.43,2.08-.44,2.31-1.18ZM106.14,140.7a1.9,1.9,0,0,0-1.51-2.72v2.48Zm15.41,31.81c-1.48-.32-3.42.88-3.57,2.22A7.81,7.81,0,0,0,121.55,172.51Zm40.21,24.29-.36-.36a2.41,2.41,0,0,0-.32.88c0,.3.17.78.38.85a8.32,8.32,0,0,0,1.93.35c.15,0,.39-.19.45-.35a.6.6,0,0,0-.12-.55C163.08,197.32,162.41,197.07,161.76,196.8Zm-44.66,4.38.3.19c1.63-.36,2-1,1.6-2.35a1.36,1.36,0,0,0-1.94-.77,3.6,3.6,0,0,1,.91.55,1.94,1.94,0,0,1,.49,1c0,.12-.52.27-.73.48A5.76,5.76,0,0,0,117.1,201.18Zm2.94-4.75a12.72,12.72,0,0,0,.79-1.64c.09-.31,0-.91-.15-1a1.44,1.44,0,0,0-1.11.08,2.3,2.3,0,0,0-.63.72Zm10,38.73,2.63-2.39-.12-.28c-.63.24-1.25.52-1.89.73C129.51,233.6,129.34,234.12,130,235.16Zm16,35.31.18.33c.49-.33,1-.7,1.46-1s1.15-.54,1.74-.8l1.85-.8C150.15,267.58,149.11,268,146,270.47Zm-30.38-79.1-.22,0a25.48,25.48,0,0,0-.4,2.74c0,.26.38.55.58.82.24-.28.72-.6.68-.84A24.31,24.31,0,0,0,115.64,191.37Zm47.1,9.18c.08-.08.55-.35.56-.63,0-1-.86-.84-1.45-.93a.93.93,0,0,0-.72.56C161.1,200.36,161.67,200.59,162.74,200.55Zm-15.55,36.91c-1.36-.79-2.25-.72-2.81.15C145.76,238.72,146.28,238.7,147.19,237.46Zm-.29-38.71c-.22.2-.5.35-.49.45a13.24,13.24,0,0,0,.41,1.89c0,.09.46.18.52.11a1.11,1.11,0,0,0,.3-.69,5.1,5.1,0,0,0-.28-1.2A2.36,2.36,0,0,0,146.9,198.75Zm-10.15-15.67c-.38.8.33,2.45.92,2.57a.62.62,0,0,0,.54-.14.61.61,0,0,0,0-.57C137.79,184.34,137.31,183.78,136.75,183.08Zm25.63,34.06-.28-.45c-.44.08-1,0-1.27.27s-.18.9-.24,1.37l.4.18Zm-28.16,17.37.26.2a6.3,6.3,0,0,0,1.17-.91c.14-.17,0-.6-.07-.92-.28.08-.69.06-.8.24A7.76,7.76,0,0,0,134.22,234.51Zm-9.71-35.6c1.09.66,2,.24,3,0,.23-.08.35-.52.48-.74Zm1.26,20.59c-.34.37-.7.59-.72.84s.38.73.49.71a5.35,5.35,0,0,0,1.15-.57Zm9.28-13.39-.66-.83a3.35,3.35,0,0,0-.75.87c0,.13.41.54.7.64C134.47,206.84,134.75,206.41,135.05,206.11Zm-3.81-11.06v2.14A1.24,1.24,0,0,0,131.24,195.05Zm1.49,26.9a11.53,11.53,0,0,0-.76,1.37c0,.12.22.36.34.54a12.43,12.43,0,0,0,.89-1.14C133.25,222.64,133,222.37,132.73,222Zm-3.81-26.85,0-.45a13.56,13.56,0,0,0-1.43-.35c-.18,0-.38.16-.58.25.12.19.22.51.36.53A14.78,14.78,0,0,0,128.92,195.1Zm-26.58-57.85.52,2.07C103.77,138.13,103.59,137.53,102.34,137.25Zm59.47,68.83-.4.11a1.9,1.9,0,0,0,.8,2.1l.31-.1Zm-27.22-6-1.09-1.44C133.09,200.06,133.32,200.37,134.59,200.11Zm29.13,39.06-.56-.16-.39,1.55.49.13Zm1.84,5.55.3-.27c-.28-.36-.53-.75-.84-1.08-.09-.1-.36,0-.55,0,0,.19,0,.44.09.55A10,10,0,0,0,165.56,244.72Zm-46.74-31,1.19-1.05C118.74,212.36,118.51,212.57,118.82,213.71Zm-1.56-3.4.68-1.67C116.82,209,116.67,209.37,117.26,210.31Zm14,25.79-.17-.38-2,1,.16.34Zm-4.69-1.23a5.35,5.35,0,0,0-.43.89c0,.07.27.22.41.34a4,4,0,0,0,.48-.7C127,235.33,126.76,235.14,126.52,234.87Zm-8.89-41.25-.46,0-.08,1.53.46,0Zm41.45,13.27c.9,1,1.16,1,1.52.13ZM125.27,228.5l.41.26.66-1.12-.4-.24Zm51-6.37.43.06.17-1.3-.46-.06Zm-47.76,28.31h.31v-1.25h-.31Zm-15.3-62.08.34-.37-.7-.64c-.11.12-.31.32-.29.34C112.71,187.93,112.94,188.14,113.16,188.36Zm22.09,13.43-.2.43,1,.46.18-.37Zm-2.95,36.35-.48.58c.15.11.3.33.45.32a.59.59,0,0,0,.41-.36C132.71,238.57,132.49,238.39,132.3,238.14Zm31.13-33.45.45,0-.12-1-.33,0Zm-9.11-10.19-.41.16.37.91.31-.11Zm-26.15-17.68.44,0-.17-.89-.32.05Zm-8.58,32.49-.15-.3-.89.42.14.3ZM127.4,244l-.41-.12-.15.71.33.09ZM120,231.55l.34-.11-.37-.93-.3.11Zm1.17-31.21c-.26-.17-.41-.32-.58-.34s-.19.2-.29.31c.12.1.23.26.37.29S120.9,200.47,121.15,200.34Zm7.2,28.17c-.18-.11-.35-.28-.41-.24a.52.52,0,0,0-.26.37c0,.09.2.19.31.29Zm-22.07-93,.42,0,0-.77-.35,0ZM167.44,242l.27-.29-.68-.51-.2.24Zm-13.75-10.41-.32.17.4.75.31-.16Zm-20.21-2.36-.29-.11-.33.78.32.13Zm3.29,32.45.27-.35-.63-.51-.22.24Zm.33-22.56.17.28.9-.62-.16-.24Zm43.39-28.39c-.22-.12-.35-.25-.43-.22s-.24.18-.36.27c.1.08.21.23.3.22S180.25,210.82,180.49,210.68ZM118,90h.23c0-.09.15-.23.13-.25a3.07,3.07,0,0,0-.36-.27Zm34.65,177c-.18-.07-.32-.18-.38-.14a.34.34,0,0,0-.18.3c0,.07.19.2.26.18S152.55,267.15,152.69,267Zm-21-37.43.29.13.34-.85-.29-.11Zm21.71-32.37h-.29l.05.57.24,0Zm-34.27-5.75h.28v-.56h-.21ZM124,223.86c.08-.25.16-.36.15-.46s-.11-.15-.18-.23c-.08.08-.23.16-.24.25S123.84,223.62,124,223.86Zm-10-33.52c-.15-.07-.26-.17-.32-.15a.45.45,0,0,0-.27.25c0,.06.13.17.21.26ZM109,103c-.28-.24-.38-.37-.42-.35a1.57,1.57,0,0,0-.27.25c.08.08.16.22.25.23A1.46,1.46,0,0,0,109,103Zm47.81,96.7h-.2l0,.5h.27Zm-31,19-.11.24.58.27.11-.24Zm27.52,51,.16.2.52-.42-.18-.21Zm-52.87-97.45c-.06.1-.16.18-.15.24s.12.13.18.2l.21-.25Zm23.41,43.76c-.18-.16-.26-.27-.36-.3a.38.38,0,0,0-.24.1c0,.12.06.28.14.32S123.59,216,123.83,215.94Zm8.93,18.86-.18.25.28.18c0-.08.13-.16.12-.24S132.85,234.88,132.76,234.8ZM105,162.23l.28.05,0-.63-.2,0Zm29.24,48.25c-.09.16-.19.27-.17.31a.94.94,0,0,0,.28.24c0-.07.16-.17.15-.22A1.92,1.92,0,0,0,134.19,210.48Zm-3.69,37.66-.26,0c0,.14,0,.29,0,.44l.25,0Zm9-59.59c.15-.22.27-.32.27-.41s-.15-.16-.23-.24-.17.14-.18.21S139.41,188.32,139.49,188.55ZM126,194.75c.09-.1.21-.17.2-.24s-.11-.14-.17-.21-.18.11-.19.18S126,194.63,126,194.75Zm-2.82,4.46c-.07.14-.15.23-.14.3s.12.13.19.19.15-.16.15-.23S123.29,199.33,123.2,199.21Zm11,4.84.05.25.51-.14,0-.17Zm25.52-13c.08-.13.17-.2.17-.28s-.12-.11-.18-.17-.16.14-.17.22S159.66,190.94,159.74,191Zm-20.88,70.07c-.08.07-.21.13-.2.18a.29.29,0,0,0,.16.21s.2-.07.2-.12S138.93,261.22,138.86,261.11ZM98.64,157.43l-.21-.21c-.06.07-.17.13-.16.2s.1.14.16.2Zm23.55,39,.21,0v-.56h-.15ZM158.28,231l.21.07.19-.55-.21-.07Zm-6.75,1.42c0-.13.1-.23.07-.28s-.15-.1-.22-.14-.11.17-.09.22S151.42,232.29,151.53,232.38Zm-7.23,23.33-.14-.12-.14.19c.06,0,.12.08.17.07S144.26,255.76,144.3,255.71Zm-7.23,4.08c.07-.12.16-.2.16-.28s-.12-.16-.18-.16a.29.29,0,0,0-.19.17S137,259.64,137.07,259.79Zm-3.22-45.3c0-.06,0-.14-.08-.17s-.11,0-.17,0l.09.23Zm40-2.64c-.11-.06-.2-.14-.27-.13a.28.28,0,0,0-.14.2.24.24,0,0,0,.21.14C173.68,212.06,173.74,212,173.82,211.85Zm-39.31,17.68-.13-.05-.14.3.21.06ZM104.32,152.6l-.12-.13c0,.05-.09.1-.09.15s.08.09.12.14Zm30.55,67.45c-.06,0-.12-.09-.15-.08s-.08.09-.11.14l.19.11Zm-7.78-17.71c.07-.12.13-.18.14-.26s-.08-.13-.11-.12a.88.88,0,0,0-.21.12Zm-18.83-80.09-.08-.16-.18.14s.08.1.12.11S108.22,122.29,108.26,122.25Zm-.9-15.77s-.08-.1-.13-.11-.09.07-.13.11l.16.16Zm20.74,106.8c0-.05-.07-.12-.12-.13s-.1,0-.15.07l.14.18ZM168,238.72s-.12.09-.12.12.07.09.11.14.12-.08.12-.11S168,238.77,168,238.72ZM104.7,127.5l-.15-.08s-.09.11-.08.15.09.06.14.09Zm14.86,69.95-.11.14s.09.1.14.1.08-.08.11-.12Zm.06,28.48c-.05,0-.13.07-.13.1s.05.11.09.16.12-.07.12-.1S119.65,226,119.62,225.93Zm-.26-14.77-.06-.16s-.12.05-.14.09,0,.1,0,.16Zm1.23,21.48-.14-.09,0,.08.14.09Zm21.84,34.59c-.05,0-.1-.1-.15-.11s-.08.08-.12.12.1.11.15.11S142.39,267.28,142.43,267.23ZM120.36,69.92l.13-.25c-.06,0-.13-.06-.17,0a.26.26,0,0,0-.11.16S120.29,69.86,120.36,69.92Zm15,160.92-.15.09s.06.12.1.13.1-.05.15-.08ZM126.21,224l-.13-.11s-.09.1-.09.13.08.08.12.11Zm-18.45-6.68.11-.09-.06-.06-.12.09Zm19.15-21.42-.07-.07-.08.13s.07,0,.09,0S126.89,195.88,126.91,195.85Zm57.7-7.82s-.07,0-.09,0a.16.16,0,0,0-.07.07l.15,0ZM152.9,262.88c-.05,0-.11-.08-.15-.07s-.07.09-.1.14.11.08.14.06S152.86,262.93,152.9,262.88Zm-19.79-18s-.06,0-.07.06,0,.06,0,.09l.12-.1ZM158,216.08a.8.8,0,0,0,0,.15s.05,0,.07,0a.8.8,0,0,0,0-.15S158,216.09,158,216.08ZM115.2,198.71s0-.07,0-.08-.06,0-.09,0l.07.13Zm2-1.21.14-.09s0-.08,0-.08a1.09,1.09,0,0,0-.18,0Zm27.38-9-.08,0,0,.15.08,0A.83.83,0,0,0,144.57,188.51Zm12.76,18.16,0-.09-.13.08s0,.05.06.05S157.3,206.69,157.33,206.67ZM151,269.26v-.09l-.14.08s0,.05.07.05S151,269.28,151,269.26Zm-17.47-57.63-.14-.09s-.08.05-.07.07a.51.51,0,0,0,.07.15Zm29.77,20.09.06,0,0,0Zm-7.14-41.79a1.09,1.09,0,0,0-.08.15l.07,0a1.19,1.19,0,0,0,.09-.15Zm-30.75,20.19s.07,0,.09,0,0-.06,0-.09l-.13,0Zm-9.64-13.64a.11.11,0,0,0,0-.08l-.08,0,0,.13Zm59.91-19.63.05.06,0-.07Zm-72,7.67s0-.06,0-.07h-.08l0,.12Zm2-73.53,0,.07,0-.06Zm33.54,131.36.09,0-.1-.11s-.05.05-.05.08S139.17,242.33,139.19,242.35ZM110.55,112.72l0-.06,0,0Zm-5.48,51.2,0,0,.06,0Zm1.32,47.78-.08,0,0,.13s.07,0,.09,0S106.38,211.73,106.39,211.7Zm17.86-17.37.07,0-.06-.05Zm3.9,6.86,0-.09-.12.07s0,.05.06.05S128.12,201.2,128.15,201.19Zm20.64,62.22,0,0,0,0ZM110,104l0,0H110Zm-6,28.82,0,.06,0-.05Zm31,46.1s0,0-.07-.06a.12.12,0,0,0-.05.05s0,0,.06.07Zm24.5,24.94,0-.06,0,.05Zm-1.21,28.67h.06l0-.06Z"/><path d="M184.24,57.56c-.42.6-.74,1.16.4,1.31.16,0,.29.24.44.37h0l-.57,1.37,1,.33h0l.23-.23h0l.84,2.32h.22a14.93,14.93,0,0,1,.58,1.44c.2.74.33,1.51.47,2.27a26.11,26.11,0,0,0,.56,3.08c.09.27.82.35,1.47.6,0,.6,0,1.42,0,2.23a1.81,1.81,0,0,0,.18.91,18.61,18.61,0,0,1,2.54,8.21,8.74,8.74,0,0,0,.9,2.55,4,4,0,0,1-.1,3.51,20.91,20.91,0,0,0-1.06-3.56,21.07,21.07,0,0,0-2.18-3v2.36l-.3,0a5.7,5.7,0,0,1-.79-3.52,1.07,1.07,0,0,0-.67-1.33c-.66-.3-.77-.78-.5-1.47a5.94,5.94,0,0,0-.09-4.35,30.47,30.47,0,0,1-1-3.08A8.26,8.26,0,0,0,185,66a2,2,0,0,1-.51-1.21c0-1.29-1.22-1.93-1.64-3-.56-1.38-1.11-2.75-1.67-4.17-.14-.07-.57-.14-.7-.37-.54-1-1-2-1.46-3s-1-2.22-1.43-3.35c-.33-.83-.62-1.68-.92-2.52,0-.15.05-.3.08-.45h-.16l.09.46c-.75.23-.82.64-.55,1.37.37,1,.56,2.08.83,3.13a4.82,4.82,0,0,1-2.82-3.71,9.21,9.21,0,0,0-.43-2.34c-.16-.45-.31-1.24-1.19-1-.06,0-.2-.16-.28-.26l-3-4.13c-.18-.25-.45-.55-.43-.81.15-2-1.36-3.12-2.42-4.5a3.78,3.78,0,0,1-.6-2.29,2.25,2.25,0,0,0-.9-2.21c-1-.83-2.26-2-2.46-3.11-.32-1.81-1.72-2.77-2.37-4.25s-1.6-2.77-1.9-4.26a9.42,9.42,0,0,0-.8-2.76v0a13.33,13.33,0,0,1,2.89,2.45,25.46,25.46,0,0,0,2.18,2.42,18.06,18.06,0,0,1,1.42,2.27,9.9,9.9,0,0,0,.83,1.1c.41.47.82.94,1.26,1.38s.69,1.41,1.65,1.45c.09,0,.17.46.26.7h0c0,.21,0,.5.18.63.54.52,1.13,1,1.7,1.48h0v.84h0v.44h0c.45.17,1.18.23,1.3.53.82,2,2.52,3.39,3.34,5.35l0,0,0,0,3.06,5.46c0,.06.08.14.06.19-.5,1.37.72,1.92,1.29,2.77h0c0,.19-.07.52,0,.56,1.51.82,1.62,2.48,2.33,3.78.28.51.55,1,.83,1.55l-.1.06.09-.07,1,2.31c.06.15.2.35.15.47-.43,1.2.38,1.72,1.18,2.27ZM187,65l-.47.12a8.88,8.88,0,0,0,.32.91s.24,0,.36-.06ZM171.43,41.27l.07-.07-.12-.08s0,.06,0,.09S171.41,41.25,171.43,41.27Z"/><path d="M141.18,33c.52.56.78.51,1.21-.21.53-.89,1.44-1.55,2-2.42,1-1.38,1.77-2.86,2.65-4.29h0v-.23h0c1.44.21,1.85-.69,2.12-1.87a4.86,4.86,0,0,1,.82-1.28h0l.53-.07,1.79-2.44h0c.59.3.54,0,.43-.43h0l2.93-2.1h0v.22h0l.23-.21v-.22h0l1.47-.2v0a3.86,3.86,0,0,0-.19,1c.08,1.67.23,3.33.3,5,0,.69-.39.83-1,.43a17.69,17.69,0,0,1-.35,1.93c-.21.72-.53,1.41-.77,2.12a10.8,10.8,0,0,1-.36,1.18A17.89,17.89,0,0,1,153.75,31c-.06.1-.54.05-.73-.07-.67-.42-1.1-.29-1.6.33a2.1,2.1,0,0,1-1.27.56c-.87.13-1.76.08-2.62.22-.29,0-.52.43-.76.67s-.47.52-.87.94l-.21-1.22-.25-.13a6.92,6.92,0,0,0-.44,1.11c-.13.58-.14,1.19-.25,1.77a4,4,0,0,1-.33.77c-.23.53-.3,1.33-.69,1.54a22.21,22.21,0,0,1-3.4,1.33c-.12.05-.46-.16-.47-.27a6.66,6.66,0,0,1-.05-2.35A22.31,22.31,0,0,1,141.19,33Zm14.46-13.82-.27-.15c0,.05-.1.12-.09.16a.73.73,0,0,0,.16.23Z"/><path d="M115.44,124.34a6.91,6.91,0,0,0,1.41,5.26,40.47,40.47,0,0,1,2.25,4.09l-.26.16-3.55-5.58-.4.13.25,3.06.67-.65a3.37,3.37,0,0,1,0,1.07c-.11.25-.52.63-.65.58-1.25-.52-1.39.43-1.56,1.19-.33,1.48-.53,3-.84,4.47-.09.43-.44.8-.56,1.22-.3,1-.9,2-.33,3.15-.18-.28-.46-.54-.51-.84a10.79,10.79,0,0,1-.3-2.86c.28-2.86.45-5.74,1.74-8.44a29.76,29.76,0,0,0,1.24-4.28c.21-.69.55-1.35.75-2a5.9,5.9,0,0,0,.23-1.72c0-1.21-.21-2.42-.21-3.63,0-.48.38-1,.41-1.45.07-1.31.88-2.31,1.33-3.46.94-2.42,1.84-4.85,2.74-7.28a9.28,9.28,0,0,0,.22-.91c.48-1.67,1-3.34,1.45-5,.15-.5.28-1,.38-1.52a2,2,0,0,1,1.36-1.71.79.79,0,0,0,.47-.36c.45-1.11.86-2.23,1.3-3.33a6.14,6.14,0,0,1,.49-.8,1.55,1.55,0,0,1,.22.16c-.58,2,.8,3.57,1.23,5.35,0,.22.08.44.16.83-1.55-.88-1-2.65-2-3.85-.16.37-.26.6-.34.83-.51,1.33-1,2.66-1.5,4s-1,3-1.47,4.47q-1.53,5-3,9.92c-.34,1.14-.55,2.31-.86,3.46s-.76,2.46-1,3.71a1.93,1.93,0,0,0,.21,1.33c.64,1,1.4,2,2,3.1-.39-.26-1-.44-1.12-.8A1.58,1.58,0,0,0,115.44,124.34Z"/><path d="M189.91,92.64V91.39c-.36-.32-.73-.49-.8-.74-.54-1.81-1-3.64-1.51-5.44s-1.08-3.59-1.66-5.37c-.75-2.28-1.54-4.55-2.3-6.82-.07-.2,0-.47-.18-.58-1.6-1.39-1.75-3.53-2.68-5.27-1.22-2.27-2.15-4.69-3.21-7.05-.18-.42-.68-.94.05-1.19.25-.09.9.34,1.06.68,1,2.2,1.93,4.49,3,6.67a113.18,113.18,0,0,1,6.25,16.3,16.37,16.37,0,0,0,1.26,4c1.48,2.37.83,5.3,2.3,7.66a5.8,5.8,0,0,1,.36,2.37c.19,1.92.94,3.72.91,5.74,0,.92,0,1.89,0,2.85a3.41,3.41,0,0,0,.43,1.38,3.41,3.41,0,0,1-.19,3.09,2.12,2.12,0,0,1-.3-.51q-1.51-7.71-3-15.44a3,3,0,0,1,.22-1.05l0,.12Zm.93,2.32c0,.05-.12.09-.12.14s.07.09.11.13.11-.09.12-.13S190.88,95,190.84,95Zm.44,3.28s.06,0,.07,0,0,0,0-.07l-.11,0Z"/><path d="M157.57,30.26a19.71,19.71,0,0,1,1.33,1.57c.83,1.16,1.58,2.36,2.39,3.53s1.69,2.52,1.06,4.15a2.7,2.7,0,0,1-.23.37,2.2,2.2,0,0,1-1.65-1.47,2.31,2.31,0,0,0-.67-1,4.2,4.2,0,0,0-1.07-.5,9.07,9.07,0,0,0-.17,1.26,1.07,1.07,0,0,0,.31.65,3.05,3.05,0,0,1,.53,3c-.09.47.21,1,.25,1.51a32.09,32.09,0,0,1,.24,4.15,2.48,2.48,0,0,1-.92,1.78c-.33.21-1.13-.44-1.75-.51a2.29,2.29,0,0,0-1.31.38c-.67.38-1.18.26-1.12-.48a14.76,14.76,0,0,1,.64-2.9c.16-.61.44-1.2.58-1.81s.05-1.22,1-1.23c.17,0,.47-.39.5-.63a1.72,1.72,0,0,0-.21-1,3.13,3.13,0,0,1-.07-2.68c.34-1.22,1.27-2.61.32-4a1.43,1.43,0,0,1-.12-.72c0-1,0-2.05,0-3.08Z"/><path d="M130.58,55.05,129.94,54l-.38.11a12.54,12.54,0,0,0,0,1.94c.11.64,0,.89-.69,1.1A5.38,5.38,0,0,0,127,58.3c-.61.54-1.11.52-1.93-.41,1.26-.37.91-1.66,1.38-2.36,1.07-1.59,1-3.84,3-4.9.7-.37,1-1.51,1.45-2.31a6,6,0,0,0,.32-.75c2.45.22,1-1.63,1.39-2.72.94,1.15,1.8,2.15,2.6,3.2.38.51.24.93-.23,1.45-.62.68-1.65,1.13-1.53,2.38,0,.3-.57.65-.88,1Zm.74-2.59c-.07.14-.14.21-.15.29s.09.15.12.14.19-.09.2-.15S131.41,52.59,131.32,52.46Z"/><path d="M187,208.48c-.5,1.48.16,3.14-.88,4.55a3.41,3.41,0,0,0-.36,1.09c-.38,1.37-.28,1.49,1.41,1.25a7.48,7.48,0,0,1-.71,1.25c-.12.14-.48.07-.94.11a.37.37,0,0,0-.11.27c.06,2.55-1.43,4.64-2.09,7a24.39,24.39,0,0,1-1.15,2.76c-.22.54-.4,1.09-.61,1.64s-.33.83-.51,1.23a17.89,17.89,0,0,0-1,2.24c-.24.77-.1,1.68-1.09,2.05-.09,0-.12.24-.18.36-.51,1-1,2.06-1.52,3.08l-.47-.18c.56-1.53,1.11-3.06,1.67-4.58s1.25-3.19,1.81-4.81,1-3.27,1.58-4.89,1.13-3.16,1.66-4.75,1-3.27,1.54-4.89,1.11-3.22,1.67-4.83Z"/><path d="M161.13,260.11l3.66-5.91c.5-.8,1-1.59,1.47-2.4.81-1.46,1.6-2.93,2.4-4.4.36-.67.67-1.37,1.06-2s.7-1,1-1.49c.15-.22.43-.5.38-.68-.37-1.45.79-2.15,1.54-2.93a3.17,3.17,0,0,0,1-1.68,25.28,25.28,0,0,1,1.11-3.79c.12-.31.57-.51.87-.76a3,3,0,0,1,.18,1.07,19.28,19.28,0,0,1-3.34,7.58,3,3,0,0,0-.3.74c-.3.88-.58,1.78-.92,2.65a.92.92,0,0,1-.58.49,1.53,1.53,0,0,0-1.37,1.74,2.53,2.53,0,0,1-.34,1.26c-.7,1.19-1.44,2.37-2.23,3.51-1.33,1.91-2.7,3.8-4,5.69-.39.55-.8,1.09-1.2,1.63Z"/><path d="M193.36,170.26c.34.78.59,1.5,1.79.84a7.9,7.9,0,0,0,0,1.11c.13.77.34,1.51.43,2.28a16,16,0,0,1,0,2l-1.24-.62a8.52,8.52,0,0,0,.12,1.56c.21.72.23,1.23-.73,1.3-.23,0-.45.25-.84.49l1.37,1-.28.07a12.93,12.93,0,0,1,.07,1.64,42.23,42.23,0,0,1-.53,4.64,4.67,4.67,0,0,0-.16,2.54,1.72,1.72,0,0,1-.22,1.32c-.43-1.7-1.25-3.41-1.19-5.1s-.57-3.26-.11-4.94.68-3.46,1-5.3l.39.43c.3-.4.21-.37-.18-1.5a5,5,0,0,1,0-1.85C193.15,171.5,193.27,170.88,193.36,170.26Zm0,6.31.16-.1-.1-.14s-.08,0-.08.06A1.24,1.24,0,0,0,193.32,176.57ZM193,180s0,0,0,.07,0,0,0,.07l.07-.11Z"/><path d="M195.74,147.41l-.36,4-.34,0c.05-3,0-5.95,1-8.9.12.11.22.18.3.27a4.54,4.54,0,0,1,.27.42l1-1.06c.14.69.23,1.16.33,1.62a3.65,3.65,0,0,0,.17.67c.64,1.62,1.22,3.23.46,5a1.33,1.33,0,0,0,.55,1.9c.24.13.33.54.48.83-.29.09-.57.21-.87.28a6.64,6.64,0,0,0-.91.15c-1,.39-1.19.31-1.33-.74s-.24-2.28-.36-3.42c0-.32,0-.64-.08-1ZM197,147l-.07-.17s-.14.08-.14.11a.91.91,0,0,0,.11.22Zm-.31-2.5,0-.05,0,.05Z"/><path d="M173.19,55.12c-1.17-1.71-2.32-3.43-3.51-5.13-.77-1.1-1.67-2.13-2.39-3.26s-1.15-2.27-1.78-3.37c-.19-.33-.59-.54-.88-.82a4.34,4.34,0,0,1-1-1.14c-.13-.28.17-.74.28-1.12.29.14.67.2.86.42.95,1.18,1.85,2.4,2.76,3.61.12.17.15.45.31.54,1.41.85,1.5,2.43,2.12,3.72.51,1.06,1.27,2,1.87,3s1,1.83,1.47,2.76a2.62,2.62,0,0,1,.13.75Z"/><path d="M175.92,77.37c-1.65-3.42-3.33-6.82-4.9-10.27a7.32,7.32,0,0,1,0-2.43,5,5,0,0,1,.67.67c.28.55.46,1.14.76,1.67,1.23,2.17,2.5,4.31,3.73,6.47.58,1,.42,1.46-.64,1.76l.84,2Z"/><path d="M124.49,167.5l-.49,2c-.39-.13-.68-.22-1-.33-.73-.29-.68-.71-.17-1.17s.76-.67,1.32-1.16l-2.17-.49,0-.4,3.17.26-2.79-2.66,0-.31c.33,0,.73,0,1,.13.66.45,1.25,1,1.86,1.51.41.36.74.84,1.42.33.15-.11.67.27,1.2.51l-.11-1.22c1.93-1.1,3.68-.37,4.43,2.05-.19-.18-.37-.38-.58-.55a9.11,9.11,0,0,0-1.29-1,1.11,1.11,0,0,0-1.69.45,1.74,1.74,0,0,1-2.08,1c-.37-.09-.82.21-1.23.33.13.33.25.67.4,1a2.49,2.49,0,0,1,.34,1.17Z"/><path d="M194.88,135.59c-.85-6.85-.14-13.79-1.08-20.64l.33,0,.3,2.68c.1.93.16,1.88.31,2.8.13.74.41,1.45.55,2.18a11.19,11.19,0,0,1,.14,1.83c0,.93-.09,1.86-.06,2.79.08,2.49.21,5,.3,7.46a3.12,3.12,0,0,1-.28,1Z"/><path d="M131.81,82a6.6,6.6,0,0,1-.66,1.33,29.14,29.14,0,0,0-4,6.47,2.39,2.39,0,0,1-1,.88c-.1.06-.41-.22-.62-.35a3.72,3.72,0,0,1,.46-.51c.28-.22.72-.34.86-.63.7-1.31,1.32-2.67,2-4a1,1,0,0,0,.12-.7c-.33-1.06.23-1.53,1.09-1.92.36-.17.61-.55.94-.8a.76.76,0,0,1,.54-.17C131.63,81.6,131.7,81.84,131.81,82Z"/><path d="M195.34,107.11l1.77-3.2a7,7,0,0,1,.55,1.35c.25,1.48.45,3,.63,4.46a2.05,2.05,0,0,1-.13,1.13c-.14.29-.52.46-.79.69-.08-.29-.17-.59-.25-.89,0,0,0-.07,0-.1a8.1,8.1,0,0,1-.43-2.18,5.58,5.58,0,0,1,.83-1.75l-.33-.31Z"/><path d="M118.6,170.58c-1.95,0-2.78-.58-3.16-2-.06-.22-.5-.44-.79-.47a6.7,6.7,0,0,0-1.34.15c0-1.05.56-1.27,1.27-1.46s1.06.06,1.33.75a2.76,2.76,0,0,0,1.6,1.81C117.91,169.54,118.16,170.09,118.6,170.58Z"/><path d="M196.76,134.4l.84,5.19-.34.14c-.32-.59-.59-1.24-1.44-.87-.1,0-.44-.29-.56-.51a.58.58,0,0,1,.22-.5c1.21-.31,1-1.25,1-2.11,0-.44,0-.87,0-1.31Z"/><path d="M136.54,168.75a2.88,2.88,0,0,1,3.16.26,4.46,4.46,0,0,1,1.84,5.38,5.7,5.7,0,0,1,0-.82,4.4,4.4,0,0,0-2.53-4.26,3.41,3.41,0,0,0-1.3-.21c-.37,0-.75,0-1.12,0Z"/><path d="M134.16,81.81c-.56-.74-1.13-1.46-1.65-2.21a.71.71,0,0,1,0-.65c.57-1,1.18-1.94,1.79-2.91.16-.24.34-.47.52-.7l.35.13c-.11.45-.07,1.06-.35,1.33-1.44,1.33-1.36,2.84-.71,4.48A1.63,1.63,0,0,1,134.16,81.81Z"/><path d="M157.57,186.33l4.21-4.84h0c-.68,1-1.37,1.92-.79,3.2.05.11-.13.42-.27.48s-.37-.07-.53-.16a1.13,1.13,0,0,1-.27-.19l-2.34,1.51Z"/><path d="M124.32,103.57l.69-.88c1.52,1.63,1.39,3.66,1.8,5.51l-2.2-4.67Z"/><path d="M145.16,42.22a8.6,8.6,0,0,1,.59-1.86c.15-.25.73-.25,1.12-.36.11.46.45,1.11.27,1.36a6.42,6.42,0,0,1-1.58,1.15Z"/><path d="M114.88,169.87c.91,2-.76,3-.77,4.58-1-.48-.73-1-.52-1.57s.27-1.1.48-1.62A10.36,10.36,0,0,1,114.88,169.87Z"/><path d="M195.33,165.87a3.73,3.73,0,0,1-.86,4.67l.54-4.69Z"/><path d="M192.39,90.34c.16-.18.35-.57.57-.59a1,1,0,0,1,.7.52,4.34,4.34,0,0,1,.32,1.5c0,.22-.3.51-.53.65s-.47-.24-.56-.44A15.71,15.71,0,0,1,192.39,90.34Z"/><path d="M147.35,131.05a12.36,12.36,0,0,1-1.73.15c-.16,0-.47-.35-.45-.52.07-.64,1-1.3,1.53-1.08A1,1,0,0,1,147.35,131.05Z"/><path d="M134.19,57.2a11.13,11.13,0,0,1-.48,2.18c-.14.31-.75.42-1.14.62,0-.4-.13-.88,0-1.18a15.2,15.2,0,0,1,1.31-1.71Z"/><path d="M125,110a6.8,6.8,0,0,1-2-4.45C124.43,106.68,124.09,108.63,125,110Z"/><path d="M143.68,169.76l-1.29-2.71a1.27,1.27,0,0,1,1.6.85C144.23,168.48,144.59,169.21,143.68,169.76Z"/><path d="M121.57,140.19c.65-1.09,0-1.64-.38-2.29A2.58,2.58,0,0,1,121,137c.34.06.79,0,1,.21A2,2,0,0,1,121.57,140.19Z"/><path d="M162,210.9l.26-.52.31.06c-.06.41,0,.95-.23,1.19a1.86,1.86,0,0,1-1.17.37,9.21,9.21,0,0,1-.6-1.72l.3-.16,1.14.77Z"/><path d="M140.29,103.17l-.47.49c-.41-.51-.84-1-1.2-1.57,0,0,.43-.55.66-.54C140.2,101.57,140.19,102.33,140.29,103.17Z"/><path d="M132.46,168.8c-2.36-2.1-2.69-2.18-3.9-1l-.72-.51C129.25,165.9,131.62,166.61,132.46,168.8Z"/><path d="M145.17,147.58l-2.38-.62a3.64,3.64,0,0,1,.91-.84,1.1,1.1,0,0,1,1,.09A4.15,4.15,0,0,1,145.17,147.58Z"/><path d="M135.88,98c-.07-.27-.28-.71-.19-.78a7.67,7.67,0,0,1,1.55-1c.11,0,.38.24.57.38l-1.37,1.15Z"/><path d="M149.27,114.05l-2-.79a5.85,5.85,0,0,1,.85-1,.83.83,0,0,1,.76.24A8.13,8.13,0,0,1,149.27,114.05Z"/><path d="M156.66,32.71a3.14,3.14,0,0,1-2.3,2.15l-.21-.21,2.22-2.23Z"/><path d="M123.62,102c-.13-.3-.46-.71-.36-.9a4.67,4.67,0,0,1,1-1c.16.25.5.56.44.75A5.4,5.4,0,0,1,124,102Z"/><path d="M152.74,156.23l-1.23-1.48c.27-.17.62-.53.8-.46a1.3,1.3,0,0,1,.75,1.68Z"/><path d="M147.49,179l-3.57-2.51c1.36-.38,3,.69,3.56,2.52Z"/><path d="M188.5,204.77l.42-2.65C189.85,203,189.74,203.72,188.5,204.77Z"/><path d="M138.93,164.8c-1.54.69-2.68,0-2.54-1.41a4.26,4.26,0,0,0,1,.91,5.51,5.51,0,0,0,1.54.19Z"/><path d="M132.94,61,132,62.53l-1.2-.88C131.18,60.63,131.94,60.82,132.94,61Z"/><path d="M137.94,129.5l-1.79-.66c.26-.52.62-1.12,1.43-.69A.83.83,0,0,1,137.94,129.5Z"/><path d="M135,55.56a7.43,7.43,0,0,1,1,1c.13.19.05.53.07.8-.32,0-.8,0-.92-.14a5.44,5.44,0,0,1-.54-1.36Z"/><path d="M132.54,104l-1.29-.83,1-1.2.74,1.83Z"/><path d="M154,188.25c0,.68,0,1.06,0,1.44a1.64,1.64,0,0,1-.09.75.62.62,0,0,1-.62,0c-.2-.19-.44-.6-.36-.76A11.65,11.65,0,0,1,154,188.25Z"/><path d="M143.84,45c-.7-1.33-.51-1.62,1.12-1.77Z"/><path d="M137.41,72.27c0-1.24.82-2,1.8-3,0,1.62-1,2.21-1.81,3Z"/><path d="M136.07,121.33c.13-.57.44-1.06,1.06-.7s.51,1.08.24,1.76Z"/><path d="M160.39,272.12a7.72,7.72,0,0,1,.11-1.53c.08-.27.45-.48.72-.66.09-.05.3.09.46.14-.1.25-.17.52-.29.77-.23.48-.48.94-.73,1.41Z"/><path d="M125.54,160.8,124.7,159l.31-.3c.33.24.81.43,1,.76a3.41,3.41,0,0,1,0,1.32Z"/><path d="M139.56,173.72l-2.82-3A3.71,3.71,0,0,1,139.56,173.72Z"/><path d="M173.57,223.67a9.38,9.38,0,0,1-1.67.07c-.2,0-.34-.48-.51-.73.3-.1.64-.33.91-.27a6.1,6.1,0,0,1,1.27.65Z"/><path d="M185.91,73.62l-1.56-3.47.41-.17c.5,1.18,1,2.35,1.48,3.53Z"/><path d="M192.24,87.86l-.46,2C190.86,88.76,191,88.25,192.24,87.86Z"/><path d="M118.34,159.53c1.38-.13,1.64.16,1.41,1.6Z"/><path d="M136.15,53.53a5.64,5.64,0,0,1,.45-1.14c.12-.18.47-.21.71-.31,0,.33.18.73,0,1s-.57.44-.87.65Z"/><path d="M149.07,102.37a12,12,0,0,1-1-.81c-.14-.14-.15-.41-.22-.61.28,0,.71-.22.81-.1a7,7,0,0,1,.79,1.3Z"/><path d="M142.47,91.85l.12,1.76-.4.17a5.87,5.87,0,0,1-.72-1.35c-.05-.17.47-.48.73-.72Z"/><path d="M179.21,175.39l-5-1.37a8.63,8.63,0,0,1,5,1.38Z"/><path d="M188.42,207l-.36,2.55-.45-.07c-.38-.92.31-1.69.45-2.54Z"/><path d="M178.25,81.2c.43,1,.85,2,1.28,3.07l-.39.16-1.27-3Z"/><path d="M202.3,131.29c-.66-.7-.67-1.25-.25-4.37Z"/><path d="M113.86,95.82c-1.23-.84-1.45-1.61-.73-2.4Z"/><path d="M150.06,83.56c.5.19.95.22,1.1.45.44.67,0,1.13-.5,1.6Z"/><path d="M142.79,171.92a1.49,1.49,0,0,1,2.07.34h-2.08Z"/><path d="M178.64,57l-1.26-1.76C178.47,55.14,178.85,55.62,178.64,57Z"/><path d="M129.76,112.09c1.3-.14,1.65.22,1.49,1.66Z"/><path d="M153.9,50.25l-.89,1.9C152.37,51.09,152.54,50.72,153.9,50.25Z"/><path d="M122.93,130.84l-.48-1.4c.18-.06.43-.21.53-.14a1,1,0,0,1,.37,1.4Z"/><path d="M119.38,152.43c.76.17,1.08.6.53,1.57l-.87-1.34Z"/><path d="M140.64,110.33l.38,1.56-.27.17c-.3-.28-.72-.51-.87-.85s.26-.6.42-.9Z"/><path d="M138.92,96.62l2.4-.2.05.36-2.37.4Z"/><path d="M141.51,155.21c-.19-.12-.38-.17-.45-.3-.19-.37-.33-.76-.49-1.15.15,0,.37-.13.45-.07C141.45,154.07,141.89,154.46,141.51,155.21Z"/><path d="M138.86,107.63a1.5,1.5,0,0,1-2.36.22Z"/><path d="M126.07,147.26a12.64,12.64,0,0,1-.69-1.16,1.8,1.8,0,0,1,0-.66c.24.06.69.09.7.17,0,.54,0,1.09,0,1.64Z"/><path d="M112,147.9l-1.49-1.18.14-.74.29-.15,1.19,2Z"/><path d="M144.86,139.85l-.64-1.29a3.1,3.1,0,0,1,.55-.23c.26.4.47.82.69,1.24Z"/><path d="M134.05,137.52c.28.07.76.06,1,.29a1.17,1.17,0,0,1,.06,1.09Z"/><path d="M126.44,137.57c.76.2,1.11.67.7,1.65l-1-1.39Z"/><path d="M128,127.67l.63,1.75C127.33,129.14,127.16,128.75,128,127.67Z"/><path d="M129.64,97.26c-1-.13-1-.87-1.1-1.85,1,.44,1,1.19,1.09,1.86Z"/><path d="M155.68,70.33,154.21,69C155.43,68.67,155.74,69,155.68,70.33Z"/><path d="M132.83,162.17c-.2-.43-.41-.86-.6-1.31a1.58,1.58,0,0,1,.38-.21c.28.39.54.8.8,1.21Z"/><path d="M155.46,172.25l.84,1.65c-.4-.16-1-.22-1.09-.48s.15-.78.26-1.18Z"/><path d="M135.94,87.18a6.3,6.3,0,0,1-1.56-4l1.55,4Z"/><path d="M110.67,161.7l1.36,1.55-.27.22A1.6,1.6,0,0,1,110.67,161.7Z"/><path d="M131.14,92.36l.72,2.62C131.2,94.58,131.2,94.58,131.14,92.36Z"/><path d="M149.91,72.38h3v.15h-3Z"/><path d="M141.88,161.55l-.46-1.08c.2-.05.56-.19.58-.15a8.58,8.58,0,0,1,.43,1Z"/><path d="M198.68,112.59a10.49,10.49,0,0,1,.08,1.48c0,.13-.31.25-.48.38-.07-.18-.24-.37-.21-.52a13,13,0,0,1,.45-1.33Z"/><path d="M193.49,211.74c-.69-1.23.47-1.9,1-2.75l-1,2.73Z"/><path d="M179.89,59.68c1.1.54,1.33,1.21.66,1.94Z"/><path d="M145.81,122.68l.53-.65.82,1.09-.29.25-1.07-.7Z"/><path d="M154.76,147.13l-.18,1.23c-.19-.09-.54-.17-.55-.28a5.71,5.71,0,0,1,.14-1.07Z"/><path d="M112.64,172.32a3.66,3.66,0,0,1-.62-.44c-.21-.29-.38-.61-.56-.91.11-.06.3-.21.33-.18a5.63,5.63,0,0,1,.73.81C112.62,171.73,112.58,172,112.64,172.32Z"/><path d="M121.49,145.76l-1-1.8C121.53,144.1,121.66,144.32,121.49,145.76Z"/><path d="M158,275.17c-.18-.78-.17-1.44,1.11-1.25L158,275.16Z"/><path d="M142.85,84.54l.73,1.52C142.56,86,142.45,85.81,142.85,84.54Z"/><path d="M155.05,141.79c.51-.69.11-1.12-.52-1.49l.12-.3c.26.05.7,0,.77.17.27.59.54,1.25-.36,1.6Z"/><path d="M134.24,146.66l-.77-1.09c.17-.07.46-.23.5-.19a12,12,0,0,1,.67,1Z"/><path d="M120.75,135.36l1.15-.66a2.84,2.84,0,0,1,.19.4c-.37.23-.75.43-1.13.64Z"/><path d="M132.62,154.77l-1.27-1c.5-.07.85-.21.92-.12a7.85,7.85,0,0,1,.58,1.07Z"/><path d="M116.57,159.73l-.15,2c-1.26-.82.16-1.39-.23-2.05Z"/><path d="M171.54,73l1.6.27c-.28.27-.5.57-.59.54a7.81,7.81,0,0,1-1.15-.59Z"/><path d="M125.39,151.8l.65,1.07-.4.27-.75-1Z"/><path d="M134.15,91.8l-.9-1.21.39-.29.92,1.18Z"/><path d="M156,133.39a10.92,10.92,0,0,1,.11-1.15s.33,0,.51,0l-.11,1.21Z"/><path d="M150.52,92.89l.68,1.39-.35.18-.76-1.38Z"/><path d="M156.59,64.1a7.26,7.26,0,0,1,1.13-.31c.07,0,.18.43.35.81l-1.46-.22Z"/><path d="M129.49,122.58l-.7-1c.15-.07.4-.22.43-.18.25.28.46.6.69.91Z"/><path d="M156.29,168.82l-.24,2.52-.28,0,.2-2.55Z"/><path d="M145.46,91.31l-.56,3.11-.21,0,.49-3.11Z"/><path d="M182.55,64.3c.49.56,1,1.1.78,1.93l-.33.1-.43-2Z"/><path d="M173.53,221l.08,1.26-.46.05-.14-1.25Z"/><path d="M127.08,100.39l.64,1.5-.36.15-.64-1.54Z"/><path d="M120.39,63.87l.59-.5c.06.18.23.43.17.53a2.47,2.47,0,0,1-.59.51l-.17-.55Z"/><path d="M151.72,75.47c1-.2,1.13-.07.94,1Z"/><path d="M171.86,228.76v1.84l-.26,0-.11-1.87Z"/><path d="M195.49,153.92c-.19-.23-.4-.37-.4-.52s.2-.29.31-.43c.14.12.37.23.4.38S195.64,153.66,195.49,153.92Z"/><path d="M189.51,201.18l.15-.9.54.1-.25.9Z"/><path d="M184.78,233.26l.86-1.67.3.15-.83,1.68Z"/><path d="M144.44,179.29l-2-1,.11-.24,2.09.94Z"/><path d="M165.33,132.53l.79-.35c0,.16.18.42.14.45a6,6,0,0,1-.72.35Z"/><path d="M163.58,53.73c-.21.17-.41.41-.47.38a2.19,2.19,0,0,1-.45-.46c.15-.11.29-.31.44-.31S163.37,53.55,163.58,53.73Z"/><path d="M146.32,172.1l2.14.17,0,.28-2.11-.14Z"/><path d="M124.78,169.91l-1.55.67-.14-.31,1.5-.62Z"/><path d="M126.11,157.25l-.85-.1,0-.33h.88Z"/><path d="M195.58,163.64v1.15l-.37,0c-.3-.42-.2-.79.38-1.11Z"/><path d="M163.85,212.4l.28,1.06-.34.11-.37-1Z"/><path d="M120.2,163.74l1-.24.09.31-.93.35Z"/><path d="M140.89,107.08l.77-.22.11.45-.78.19Z"/><path d="M195,95.52v1.33h-.27l-.1-1.33Z"/><path d="M145.77,181.8l-.75-1.7.3-.13.68,1.73Z"/><path d="M138.89,40.08a4.62,4.62,0,0,1-.71.18s-.09-.27-.14-.42l.75-.18Z"/><path d="M188.16,211.32l-.26,1-.34-.09.27-1Z"/><path d="M116.28,221.11,116,220l.35-.08.26,1.11Z"/><path d="M170.09,198c.17.25.36.42.35.57s-.26.27-.42.29-.31-.22-.29-.32S169.92,198.25,170.09,198Z"/><path d="M167.68,202.05c-.16.09-.32.23-.48.23s-.18-.23-.27-.36c.15-.11.28-.27.45-.3s.32.1.48.15Z"/><path d="M180.67,241.58l.56-1.24.26.11-.53,1.26Z"/><path d="M150.85,169.31l.22-.54.66.88-.22.18-.67-.53Z"/><path d="M171.88,225.6l-.42.35c-.08-.13-.22-.25-.24-.39s.18-.28.24-.26S171.69,225.46,171.88,225.6Z"/><path d="M155.12,67.54h1.07v.17h-1.08Z"/><path d="M161.93,165.4a3.07,3.07,0,0,1-.31.28,3.59,3.59,0,0,1-.39-.39c.1-.08.22-.24.28-.22A1.57,1.57,0,0,1,161.93,165.4Z"/><path d="M134.63,97.47l-.67.1-.07-.32.65-.18Z"/><path d="M177.3,205.27l-.63.44-.2-.25.57-.53Z"/><path d="M154,173.37l-.62-.45.1-.21c.17,0,.37,0,.5.09s.12.28.18.43Z"/><path d="M198.1,100l-.37-1.37.36-.09.23,1.25h0l-.23.23Z"/><path d="M160.94,48.15l.45-.62.26.19-.43.63Z"/><path d="M196.84,93.81l.33.86-.25.1-.36-.84Z"/><path d="M143,106.8l1,.3-.08.28-1-.28Z"/><path d="M201.11,119.87l-.09-1.11.26,0,.12,1.11Z"/><path d="M187.59,227.46l.68-1.63.2.08-.67,1.64Z"/><path d="M164.77,212.59v-1.06h.2l.05,1.06Z"/><path d="M128.37,94.47l-.22-.59.3-.12.22.59Z"/><path d="M190.83,196.9c.12.15.26.25.25.32a.4.4,0,0,1-.25.24c-.08,0-.25-.13-.25-.21S190.71,197.06,190.83,196.9Z"/><path d="M137.3,54.5c.12.21.24.33.22.42a.41.41,0,0,1-.26.27c-.07,0-.28-.16-.26-.21A2.28,2.28,0,0,1,137.3,54.5Z"/><path d="M135.94,74l-.18.7-.29-.07.15-.71Z"/><path d="M165.52,121.65l.35.55-.22.17-.43-.52Z"/><path d="M137.19,72.48l.42,1c-.51-.2-.84-.47-.41-1Z"/><path d="M163.92,223.05v.66h-.2v-.66Z"/><path d="M129.59,108.42l.83-.15.05.27-.83.15Z"/><path d="M155.2,175.08l-.07.71H155v-.72Z"/><path d="M202.51,150.8l.1-1,.21,0-.08,1Z"/><path d="M115.6,164.32l.25.56-.24.11-.26-.56Z"/><path d="M196.46,171c.14.16.28.26.29.36s-.11.21-.18.31a1.6,1.6,0,0,1-.33-.3C196.21,171.31,196.36,171.16,196.46,171Z"/><path d="M164.35,147.14c-.11.11-.18.24-.22.23a1.44,1.44,0,0,1-.33-.16c.06-.09.12-.25.19-.25S164.2,147.06,164.35,147.14Z"/><path d="M160.43,94.69l.15.53-.19.07-.23-.49Z"/><path d="M169,201.73l-.39.62-.22-.13.35-.62Z"/><path d="M127.66,59.64l.13.62-.22.07-.19-.63Z"/><path d="M191.05,189.74v-.66h.18v.66Z"/><path d="M198.77,103.55l-.13-1.11.21,0,.19,1.07Z"/><path d="M171.45,214.49l-.23.57L171,215l.18-.59Z"/><path d="M110.84,170l-.3.32c-.08-.08-.19-.15-.23-.25s.09-.22.14-.22A1.33,1.33,0,0,1,110.84,170Z"/><path d="M198.32,192.84l-.31,1-.34-.18.66-.78Z"/><path d="M120.49,157.14l.54-.07,0,.19-.52.15Z"/><path d="M125.43,91.49c.12.21.24.32.22.4s-.16.17-.26.21-.17-.14-.16-.21S125.32,91.7,125.43,91.49Z"/><path d="M139.5,71.61l.52.16L140,72l-.54-.08Z"/><path d="M163.48,218.66l-.16.66-.19,0,.16-.66Z"/><path d="M118,225.8l.1.64-.17.05-.17-.63Z"/><path d="M166.8,98.1l.38-.47.16.13-.39.46Z"/><path d="M167.7,231.46l-.35.23c-.06-.11-.17-.21-.16-.31s.15-.16.23-.24Z"/><path d="M200.22,110.06l-.43-2.3h0c.14.77.29,1.53.43,2.3Z"/><path d="M138.8,139v-.57h.14V139Z"/><path d="M119.24,139.66l.09-.83.17,0-.07.83Z"/><path d="M195.32,99.13l.19.55-.19.08-.27-.56Z"/><path d="M140.72,164.83l.47.16-.05.17-.47-.14Z"/><path d="M127.74,168.68l0,.8-.37-.07.34-.72Z"/><path d="M147.69,179.4l.61.94-.31.14c-.1-.36-.19-.73-.29-1.09Z"/><path d="M199.3,105.81l-.18-.77.19,0,.19.77Z"/><path d="M175.49,55.46l.14.4-.22.07a2.78,2.78,0,0,1-.16-.4Z"/><path d="M200.4,112l.39,1.69-.24,0-.14-1.73Z"/><path d="M175.39,208.82l-.28.12c0-.07-.11-.17-.09-.22a.3.3,0,0,1,.22-.13S175.33,208.72,175.39,208.82Z"/><path d="M116,162.86l.12.63-.15,0-.22-.61Z"/><path d="M136.76,160.24l.13.49-.18.06-.2-.46Z"/><path d="M198.8,169.6l-.11.65-.19,0,.06-.67Z"/><path d="M142.85,158.33a1.19,1.19,0,0,1-.36.14c-.05,0-.1-.13-.16-.2a1,1,0,0,1,.28-.19S142.73,158.2,142.85,158.33Z"/><path d="M124,135.06c-.08-.11-.18-.18-.19-.25s.13-.17.18-.16a.29.29,0,0,1,.19.18S124.06,135,124,135.06Z"/><path d="M167.66,228.34l.83-.46.11.29-.95.16Z"/><path d="M145.41,78.24l.2-.59.2.07-.18.59Z"/><path d="M201.82,124.21v1.18h-.1V124.2Z"/><path d="M189.81,196l-.09-.5.2,0,.08.49Z"/><path d="M120.86,131.34l.47-.09,0,.2-.47.08Z"/><path d="M201,115.44l-.06.49h-.14v-.5Z"/><path d="M202.44,133.46v1h-.09v-1Z"/><path d="M121.13,166.62c.07.11.15.19.15.27s-.13.16-.19.15-.13-.1-.2-.16Z"/><path d="M129.81,116.87h-.41l0-.14.39-.07Z"/><path d="M174.22,207.94l-.1.49-.16,0,.1-.49Z"/><path d="M155.61,277.19l.46-.18.06.16-.46.18Z"/><path d="M125,125.73h.36l0,.11-.4.1Z"/><path d="M153.81,52.54l-.2.24a.64.64,0,0,1-.12-.23s.06-.11.09-.16Z"/><path d="M139.41,41.1l-.16.1-.1-.21c.06,0,.13-.06.18,0S139.38,41,139.41,41.1Z"/><path d="M137.15,43l-.16.08-.1-.21c.06,0,.13,0,.18,0S137.12,43,137.15,43Z"/><path d="M122.84,157.45l-.22-.43a.93.93,0,0,1,.26-.1s.11.1.11.15A2.13,2.13,0,0,1,122.84,157.45Z"/><path d="M132.78,108.41l-.63-.1,0-.19.63.11Z"/><path d="M119.85,130.13l.25.2a.83.83,0,0,1-.21.17s-.17-.06-.16-.08A1.19,1.19,0,0,1,119.85,130.13Z"/><path d="M172.83,228.79l-.1-.15.23-.09c0,.06.06.13,0,.17S172.89,228.77,172.83,228.79Z"/><path d="M153.37,67.58c-.14.09-.22.17-.3.17s-.11-.13-.17-.19.11-.12.16-.12A1.25,1.25,0,0,1,153.37,67.58Z"/><path d="M167.65,228.33l-.8.33-.07-.26.88-.06Z"/><path d="M98,172.56l-.1.15s-.11-.09-.11-.13.05-.1.09-.16Z"/><path d="M169,163.74s-.08.12-.12.12-.1-.07-.15-.11.09-.13.12-.13S169,163.7,169,163.74Z"/><path d="M129.41,169.75a.82.82,0,0,1-.25.14.21.21,0,0,1-.13-.13,1.13,1.13,0,0,1,.12-.21Z"/><path d="M201.7,169.24l-.07.45-.16,0,.06-.45Z"/><path d="M189.12,224.17l-.16.59-.15,0,.15-.59Z"/><path d="M162.85,269.22l-.09.15-.18-.15s.09-.11.13-.11S162.8,269.18,162.85,269.22Z"/><path d="M154.27,185.93l-.11-.46.15-.05.15.47Z"/><path d="M110.51,185.31l.24.38-.12.09-.32-.34Z"/><path d="M139.18,88.16l.23.18c-.06.07-.11.18-.18.2s-.15-.08-.23-.13Z"/><path d="M200.41,112c-.06-.64-.13-1.27-.19-1.91h0c.06.64.13,1.27.19,1.91Z"/><path d="M147,72.23l-.23.38-.15-.09.24-.38Z"/><path d="M130,98.21l-.18.33-.06-.35Z"/><path d="M128.76,68.57l-.2.26a.9.9,0,0,1-.15-.19s.05-.15.08-.15A1,1,0,0,1,128.76,68.57Z"/><path d="M155.66,177.79c-.07,0-.14,0-.19,0s0-.1,0-.16.13,0,.18,0S155.64,177.74,155.66,177.79Z"/><path d="M129.13,49.73l.15-.23s.12.09.12.11a1.79,1.79,0,0,1-.12.24Z"/><path d="M170.84,237.64l-.12.13s-.12-.09-.12-.13.08-.09.12-.14Z"/><path d="M193.86,88.51c-.06,0-.13,0-.17,0s-.09-.1-.13-.16a.49.49,0,0,1,.23,0S193.84,88.45,193.86,88.51Z"/><path d="M145.33,162.9c-.05,0-.11.1-.14.09s-.09-.09-.13-.13.11-.09.15-.09S145.29,162.85,145.33,162.9Z"/><path d="M173.9,115.64s-.05.13-.09.14-.11,0-.17,0l.12-.2Z"/><path d="M147.37,166.09l-.34-.26.1-.13.33.27Z"/><path d="M124.45,122.9l-.12.14c0-.05-.11-.09-.1-.13s.06-.09.1-.14Z"/><path d="M199.26,187.72l-.12.13s-.08-.11-.08-.15.08-.08.12-.12Z"/><path d="M110.61,144c0-.05-.09-.11-.08-.15s.09-.06.14-.1.09.11.08.15S110.66,144,110.61,144Z"/><path d="M126.64,54.28c-.06-.13-.13-.22-.11-.29s.14-.08.21-.09.1.11.09.14S126.73,54.17,126.64,54.28Z"/><path d="M123.62,65.44s.14,0,.15.09,0,.11-.06.16-.13,0-.15-.09S123.6,65.5,123.62,65.44Z"/><path d="M142.51,134.64H143v.12h-.47Z"/><path d="M189,200.15l-.15.08c0-.06-.06-.12-.05-.17s.09-.06.14-.08Z"/><path d="M137.24,153.78l.11.41-.12.06-.19-.4Z"/><path d="M196.5,93l-.13-.36.16-.06.13.36Z"/><path d="M136.15,40.13l.35.19-.57,0h0l.22-.22Z"/><path d="M131.32,134.44c-.06,0-.15-.05-.16-.09s.05-.1.08-.15l.2.11Z"/><path d="M183.41,102.29l-.41-.62.19-.1.21.73Z"/><path d="M200.23,181.71l-.08.49-.13,0,.07-.5Z"/><path d="M199.35,186.6c0-.06,0-.12,0-.18s.09,0,.15,0,0,.08,0,.1A1.42,1.42,0,0,1,199.35,186.6Z"/><path d="M172.05,239.58l0-.07.13.08,0,.07Z"/><path d="M139.21,136.82l-.07.17s-.12-.06-.13-.09,0-.11.06-.17Z"/><path d="M138.74,77.26s-.1-.07-.11-.12.05-.08.08-.12.11.07.12.11S138.78,77.22,138.74,77.26Z"/><path d="M128,116.87l-.17-.05,0-.09.17,0Z"/><path d="M193.26,80.78s0,0-.07,0-.05,0-.08,0l.12-.1Z"/><path d="M185.5,60.93l-.14-.55.12-.06.23.4h0l-.23.23Z"/><path d="M195.35,88.14a.47.47,0,0,1-.17,0s0-.08,0-.09l.16-.07C195.32,88,195.34,88.08,195.35,88.14Z"/><path d="M191.18,218.47l.14-.41.13,0-.1.39Z"/><path d="M161.64,214.61l-.14.1c0-.06-.07-.11-.06-.16s.08-.07.12-.1Z"/><path d="M192.91,213.16s0,0-.06-.08,0-.05.05-.08l.1.12Z"/><path d="M156.49,165.58c0-.09.07-.19.11-.29h.08c0,.11,0,.21,0,.32Z"/><path d="M146.36,158.19l-.1.17a1.12,1.12,0,0,1-.21-.17s.06-.09.08-.14Z"/><path d="M137.11,134.16l.16.05s-.05.13-.09.14-.11,0-.17,0Z"/><path d="M113.28,169.75l-.17-.06a.55.55,0,0,1,.08-.15l.08,0A.55.55,0,0,1,113.28,169.75Z"/><path d="M195.27,206.14l-.16.34a.89.89,0,0,1-.09-.26c0-.05.08-.09.12-.14Z"/><path d="M156.64,178.19c.08-.05.13-.11.17-.1a.29.29,0,0,1,.16.11s0,.09-.07.13Z"/><path d="M165.53,265.9l-.12.15a.5.5,0,0,1-.08-.14s0-.08,0-.07Z"/><path d="M182.57,64.29l-.4-.47.15-.08.23.56Z"/><path d="M171.64,247.87l-.16.57-.17-.07.34-.5Z"/><path d="M155.06,141.77l-.4.29-.06-.22.45-.05Z"/><path d="M168.74,199.68s.06,0,.06.06,0,0,0,.07l-.1-.1Z"/><path d="M125.54,115.13c0,.05,0,.09.07.14s-.07,0-.07,0a.57.57,0,0,1-.08-.13Z"/><path d="M142.57,96.6s-.07,0-.08,0,0-.06,0-.08l.13,0Z"/><path d="M197.63,96.72l.07.33-.11,0-.06-.33Z"/><path d="M116.46,171.7l.08,0-.11.1s0-.06,0-.08S116.44,171.72,116.46,171.7Z"/><path d="M178.8,97s-.06,0-.07,0,0-.06,0-.09l.12.08Z"/><path d="M170.76,158.94l.07-.32h.1V159Z"/><path d="M201.5,121.73Z"/><path d="M139.19,106.91s0,.07,0,.08-.06,0-.09,0l0-.13Z"/><path d="M186.27,70l.09.16-.14,0s-.05-.06,0-.07A.6.6,0,0,1,186.27,70Z"/><path d="M164.49,176.24l.38.25-.12.11-.25-.37Z"/><path d="M138.84,161.89s-.05,0-.08,0l-.06-.06.12-.07Z"/><path d="M138.29,75.88s-.06,0-.08,0a.13.13,0,0,1,0-.09h.13Z"/><path d="M176.19,232.78l0,.07-.14,0a.25.25,0,0,1,0-.09Z"/><path d="M110.48,165.84s.07,0,.08,0,0,.06,0,.09l-.13-.05Z"/><path d="M159.66,103.56c0,.11-.1.21,0,0-.16.12-.07,0,0,0Z"/><path d="M173.49,114.6l.11.1-.07.06-.11-.1Z"/><path d="M178.35,98.94l-.37.28-.07-.12.45-.15Z"/><path d="M194.8,207.62l-.12.11s0-.1,0-.16,0,0,.06-.06A.52.52,0,0,1,194.8,207.62Z"/><path d="M120.93,169.33l-.08,0,.09-.12s0,0,0,.07S121,169.3,120.93,169.33Z"/><path d="M202.8,148.07s0,.06,0,.07,0,0-.08,0l.07-.12Z"/><path d="M176.94,78.6a.41.41,0,0,1-.16,0s0-.08,0-.09a.59.59,0,0,1,.14-.06Z"/><path d="M183.39,67.33l-.07,0,.1-.09s0,.06,0,.08S183.41,67.31,183.39,67.33Z"/><path d="M151.75,156.76l-.14-.09s0-.08.07-.08a.55.55,0,0,1,.18,0Z"/><path d="M162.11,53a.67.67,0,0,1-.14-.09s0-.08,0-.08h.16Z"/><path d="M154.38,103l.08,0a.88.88,0,0,1-.05.15s-.07,0-.07,0S154.37,103.07,154.38,103Z"/><path d="M197,103.15a.84.84,0,0,1-.14.06s-.06-.06,0-.07a.6.6,0,0,1,.09-.13Z"/><path d="M168.89,52.57s0-.06,0-.08,0,0,.06-.05l.06.12Z"/><path d="M115,136.78c0,.05.07.07.07.1s0,0-.06.06Z"/><path d="M148,96.81s-.07,0-.09,0a.19.19,0,0,1,0-.1l.14,0Z"/><path d="M195.94,139.68l-.08,0,.08-.11s.05.05.05.07S196,139.66,195.94,139.68Z"/><polygon points="102.63 142.39 102.69 142.42 102.63 142.46 102.63 142.39"/><path d="M177.18,197.26s0,.05-.07.05-.05,0-.07,0l.1-.08Z"/><polygon points="179.84 196.89 179.85 196.96 179.79 196.94 179.84 196.89"/><path d="M177.35,79.68s-.06,0-.08,0,0,0,0-.08h.12Z"/><path d="M138.42,116.65s0,.07,0,.07l-.18-.06s0-.07.05-.07A1,1,0,0,1,138.42,116.65Z"/><path d="M136.84,79.62s0,.07,0,.08-.05,0-.08,0l.07-.12Z"/><polygon points="109.47 162.3 109.43 162.26 109.49 162.24 109.47 162.3"/><path d="M195.59,163.65l.13-.45.13.07-.27.37Z"/><path d="M172.73,123.75h.08l0,.13a.22.22,0,0,1-.07-.06A.21.21,0,0,1,172.73,123.75Z"/><path d="M139.93,132.41l0-.09.15,0s0,.07,0,.09S140,132.4,139.93,132.41Z"/><path d="M190,222.34l-.13.1s0-.06,0-.07a.69.69,0,0,1,.11-.13Z"/><path d="M134.66,108.11s.06,0,.07,0,0,0,0,.08l-.12,0Z"/><path d="M146.65,168.68l-.06.63-.09,0,.16-.6Z"/><path d="M196.32,117.65s0,.06-.06.06a.13.13,0,0,1-.07,0l.09-.1Z"/><path d="M154,278.74l.32.16-.1.11-.21-.28Z"/><path d="M165.66,231.5l0,.07-.13,0a.19.19,0,0,1,0-.08Z"/><path d="M138,145.55l-.08.15-.07-.15a.32.32,0,0,1,0-.09Z"/><path d="M165.35,97.29v.08l-.11-.07s0,0,.06,0S165.33,97.28,165.35,97.29Z"/><path d="M124,98.66s0,0,.08,0,0,0,.06,0l-.12.08Z"/><path d="M167.1,88.26l-.07.07a.6.6,0,0,1-.09-.13s0,0,.06-.06Z"/><path d="M197.65,131.1l0,.09a.6.6,0,0,1-.09-.13s0-.06,0-.09Z"/><polygon points="166.14 156.39 166.2 156.35 166.2 156.43 166.14 156.39"/><polygon points="188.48 67.75 188.42 67.78 188.42 67.72 188.48 67.75"/><path d="M198.32,99.78l.13.53-.13,0-.22-.37h0l.23-.23Z"/><path d="M174.58,170.78l.54.26-.26.23-.27-.5Z"/><path d="M196,162l0-.07.12,0s0,.06,0,.08Z"/><path d="M156.79,50.4l0-.09a.15.15,0,0,1,.09,0s0,.05,0,.08Z"/><path d="M166.63,211.69l-.16-.07s.06-.05.08-.05l.16.07Z"/><path d="M151.16,66.16l.06-.07.1.12s0,0-.06.07Z"/><path d="M198.33,192.85v-.67h.13c-.05.22-.1.43-.14.65Z"/><polygon points="191.21 186.24 191.14 186.23 191.18 186.17 191.21 186.24"/><polygon points="164.66 174.54 164.65 174.62 164.59 174.58 164.66 174.54"/><polygon points="156.98 162.69 156.98 162.75 156.93 162.73 156.98 162.69"/><polygon points="172.94 197.5 172.95 197.56 172.89 197.54 172.94 197.5"/><path d="M131.79,45.79l-.1.06,0-.08Z"/><path d="M195.58,88.87l.12.37-.11,0v-.4Z"/><polygon points="123.39 123.2 123.32 123.19 123.36 123.13 123.39 123.2"/><path d="M130.82,91.31l-.07,0s0-.06,0-.09l.07,0Z"/><polygon points="192.6 78.53 192.59 78.46 192.65 78.48 192.6 78.53"/><polygon points="134.63 125.03 134.56 125.03 134.59 124.98 134.63 125.03"/><path d="M184.39,234.7l.06,0s0,0,0,.08l-.1-.06Z"/><polygon points="202.52 136.44 202.5 136.37 202.57 136.4 202.52 136.44"/><path d="M138.78,72.77l0-.08h.12s0,.06,0,.08S138.81,72.77,138.78,72.77Z"/><path d="M140.08,131.12l0,.13-.08,0Z"/><polygon points="151.23 131.12 151.28 131.16 151.22 131.18 151.23 131.12"/><polygon points="202.71 142.47 202.72 142.53 202.66 142.51 202.71 142.47"/><path d="M193.48,211.72c0,.09-.06.18,0,.05l0,0Z"/><polygon points="127.48 67.7 127.54 67.71 127.5 67.76 127.48 67.7"/><path d="M141.61,177.29c.06-.07.12-.14,0,0l0,0Z"/><polygon points="142.79 165.1 142.82 165.15 142.76 165.15 142.79 165.1"/><polygon points="128.99 107.29 129.03 107.23 129.06 107.28 128.99 107.29"/><polygon points="129.82 104.1 129.77 104.05 129.84 104.03 129.82 104.1"/><path d="M138.54,104.46l.09,0s0,.07,0,.07l-.12,0Z"/><polygon points="122.11 104.87 122.12 104.93 122.06 104.91 122.11 104.87"/><polygon points="197.07 167.67 197.11 167.71 197.06 167.73 197.07 167.67"/><polygon points="101.26 156.66 101.22 156.62 101.28 156.6 101.26 156.66"/><path d="M154.75,182.34s0,.08,0,.1-.05,0-.08,0Z"/><polygon points="143.49 162.07 143.55 162.08 143.51 162.13 143.49 162.07"/><polygon points="170.51 62.82 170.48 62.77 170.54 62.78 170.51 62.82"/><path d="M166.88,59.7s-.07,0-.08,0,0-.06,0-.09.08,0,.09,0S166.88,59.67,166.88,59.7Z"/><polygon points="143.31 104.58 143.27 104.53 143.33 104.51 143.31 104.58"/><polygon points="194.49 160.96 194.54 160.97 194.51 161.02 194.49 160.96"/><polygon points="152.8 64.64 152.74 64.67 152.74 64.6 152.8 64.64"/><polygon points="175.01 251.72 174.95 251.75 174.96 251.69 175.01 251.72"/><polygon points="181.68 201.83 181.63 201.87 181.62 201.81 181.68 201.83"/><polygon points="198.12 154.44 198.16 154.48 198.11 154.5 198.12 154.44"/><path d="M153.38,178.27l-.12,0v-.08Z"/><path d="M202.56,152.38a.2.2,0,0,1,0-.08.18.18,0,0,1,.07-.05Z"/><path d="M189.92,142.38l-.11,0v-.09Z"/><polygon points="121.7 130.22 121.68 130.17 121.74 130.17 121.7 130.22"/><path d="M192.64,214.67l0,0,0,0Z"/><path d="M167.85,29l.05,0c.11.07,0,0,0,0Z"/><path d="M172.69,246l0,.06c-.07.11,0,0,0-.06Z"/><path d="M151.47,54l-.05,0,.06,0Z"/><path d="M184.45,57.78c0,.09,0,.18,0,0v0Z"/><path d="M189.07,68.71c0,.09.05.18,0,0,0,.14,0,0,0,0Z"/><polygon points="138.33 86.89 138.26 86.88 138.3 86.82 138.33 86.89"/><path d="M132.78,87.19c0,.08.07.16,0,0,0,.14,0,0,0,0Z"/><path d="M178.36,99l.08-.09-.09.08Z"/><path d="M159.67,103.57l.08-.09-.09.08Z"/><polygon points="143.58 158.46 143.59 158.4 143.64 158.44 143.58 158.46"/><polygon points="201.95 165.31 202.01 165.3 201.99 165.36 201.95 165.31"/><polygon points="166.03 157.69 165.98 157.64 166.05 157.62 166.03 157.69"/><path d="M146.66,168.69c0-.09,0-.18,0-.05,0-.12,0,0,0,0Z"/><polygon points="201.14 174.2 201.08 174.23 201.08 174.16 201.14 174.2"/><path d="M121,133l-.07.09L121,133Z"/><path d="M183.83,56.51l-.21-.63h0l.21.63Z"/><path d="M183.4,102.3l0,.11,0-.12Z"/><path d="M170.8,258.37l.07-.1-.08.09Z"/><path d="M169.76,64.48h0Z"/><path d="M178.78,46.65l.07-.08-.08.07Z"/><path d="M163.25,92.86l0-.11,0,.1Z"/><path d="M188.86,139.49l.07.07-.06-.08Z"/><path d="M157.56,275.58l-.08.07.09-.06Z"/><polygon points="163.24 92.85 163.2 92.88 163.25 92.86 163.24 92.85"/><polygon points="169.75 31.94 169.79 31.92 169.74 31.93 169.75 31.94"/><polygon points="158.62 79.61 158.59 79.58 158.61 79.63 158.62 79.61"/><path d="M147.48,179l.21.43h0l-.21-.43Z"/><polygon points="175.63 239.67 175.65 239.62 175.62 239.66 175.63 239.67"/><polygon points="175.62 239.66 175.6 239.71 175.63 239.67 175.62 239.66"/><polygon points="172.7 245.98 172.72 245.94 172.69 245.97 172.7 245.98"/><path d="M171.65,247.87l.2-.42h0l-.21.43Z"/><path d="M170,64.91c-.07-.14-.14-.28-.2-.43h0l.21.43Z"/><path d="M186.55,63h0Z"/><polygon points="185.08 59.24 185.11 59.28 185.09 59.23 185.08 59.24"/><polygon points="127.75 168.69 127.77 168.64 127.74 168.68 127.75 168.69"/><polygon points="189.07 68.7 189.05 68.66 189.07 68.71 189.07 68.7"/><path d="M152.54,20l.21-.21h0l-.21.22Z"/><path d="M152.32,20.19l.22-.22h0l-.22.21Z"/><path d="M147.07,26.07v-.23h0v.23Z"/><path d="M169.74,31.11h0Z"/><path d="M141.19,33h0Z"/><path d="M135.93,40.13h0Z"/><path d="M135.93,40.35v-.22h0v.22Z"/><path d="M111.57,152.71h0Z"/><path d="M188.87,139.48h0Z"/><path d="M111.56,152.72h0Z"/><path d="M174.59,170.77h0Z"/><path d="M126.06,147.25h0Z"/><path d="M150.84,169.3h0Z"/><path d="M121,133l0,0Z"/><path d="M142.86,78.56h0Z"/><path d="M142.87,78.57h0Z"/><path d="M129.63,97.27h0Z"/><path d="M132.79,87.18h0Z"/><path d="M149,95.59h0Z"/><path d="M163,98.74h0Z"/><path d="M145.8,122.67h0Z"/><path d="M146,73.73h0Z"/><path d="M146,73.74h0Z"/><path d="M183.82,118.47h0Z"/><path d="M163,98.73h0Z"/><path d="M137.2,72.49l.21-.22h0l-.21.22Z"/><path d="M141.6,177.28h0Z"/><path d="M189.07,130.65h0Z"/><path d="M183.82,118.48h0Z"/><path d="M145.81,183.17h0Z"/><path d="M173.11,245.14h0Z"/><path d="M173.11,245.13h0Z"/><path d="M170,64.92h0Z"/><path d="M171.85,247.45h0Z"/><path d="M195.59,88.86h0Z"/><path d="M119.77,64.92h0Z"/><path d="M155.68,17.66l.21-.22h0v.22h-.22Z"/><path d="M172.27,256.06h0Z"/><path d="M172.27,256.05h0Z"/><path d="M170.79,258.36h0Z"/><path d="M145.8,183.16h0Z"/><path d="M142.65,176.65h0Z"/><path d="M149,95.58h0Z"/><path d="M192.65,214.68h0Z"/><path d="M189.08,130.66h0Z"/><path d="M142.66,176.66h0Z"/><path d="M164.5,176.23h0Z"/><path d="M158.61,79.62h0Z"/><path d="M184.46,57.77l-.22-.21h0l.21.21Z"/><path d="M183.82,56.52h0Z"/><path d="M183.62,55.88h0Z"/><path d="M199.79,107.76h0Z"/><path d="M158,275.16l-.21.21h0l.21-.21Z"/><path d="M157.57,275.59l.21-.21h0l-.22.21Z"/><path d="M135.93,87.19h0Z"/><path d="M151.48,54h0Z"/><path d="M164.07,190.05c-.14.07-.23.15-.3.14s-.12-.12-.18-.19.16-.13.24-.13S164,190,164.07,190.05Z"/><polygon points="161.35 188.53 161.32 188.59 161.29 188.54 161.35 188.53"/><path d="M153,245.34c.28.16.55.47.83.48a5.81,5.81,0,0,1,3.61.86c.58.42,1.51.32,2.22.6,1.39.57,2.75,1.23,4.35,2a9.13,9.13,0,0,1-1.58.33c-2.42.09-4.84.14-7.26.18a10.54,10.54,0,0,1-1.13-.11c-.38,0-.88-.22-1.13,0-1.36.95-2.68.29-3.92.06l1-1.83c.65.08,1.57.19,2.47.32.15,0,.28.16.41.25s.63.65.78.58A4.41,4.41,0,0,0,155,248a2.15,2.15,0,0,0-.62-.84c-.14-.1-.51.13-.86.23.07-2-1.57-.53-2.09-1-.42-1.48.59-2,1.47-2.69.84.71.86,1.22.08,1.66Z"/><path d="M153.26,242.74l-.68-.06v-.16h.7Z"/><path d="M150.38,241.62h1v.15h-1Z"/><path d="M159.07,251.68l-.15.1c0-.05-.08-.11-.07-.14s.09-.08.14-.11Z"/><path d="M161.19,250.63c-.05,0-.1.12-.13.11s-.12-.08-.12-.12.07-.09.11-.13Z"/><path d="M154.65,243.21l-.25.4-.15-.09.25-.4Z"/><polygon points="149.92 245.94 149.91 246.01 149.86 245.97 149.92 245.94"/><path d="M158,251.85h0Z"/><path d="M158,251.86h0Z"/><path d="M151,209.09,153,209l.14.47a5.94,5.94,0,0,1-1.49.83c-.22.06-.58-.48-.88-.75Z"/><path d="M150.09,226.27l-.13-2.5.33,0,.27,2.48Z"/><path d="M152.35,199.68l-.1.64c-.08-.11-.18-.22-.25-.34S152.13,199.87,152.35,199.68Z"/><path d="M154.71,214.81c-.09.11-.18.25-.2.24a.5.5,0,0,1-.28-.2c0-.06.1-.18.16-.28Z"/><path d="M133.94,184c-.87-1.39-.87-1.4.88-2.33l.37,1.07c-.4.06-.84,0-1.06.2S134,183.57,133.94,184Z"/><path d="M131.36,180.5a1.41,1.41,0,0,1-.33,0s-.1-.14-.09-.15.16-.16.21-.14S131.26,180.36,131.36,180.5Z"/><path d="M125,187.55l0-.51h.13v.5Z"/><path d="M135,184.08V184l.13.06s0,.06-.05.07S135,184.09,135,184.08Z"/><path d="M130,179.35l-.07.06,0-.14s.07,0,.09,0S130,179.32,130,179.35Z"/><path d="M124.26,187.65a.54.54,0,0,1-.07.13s-.07,0-.07,0a.44.44,0,0,1,0-.16Z"/><path d="M133.2,180.23l.28.34-.12.06-.15-.41Z"/><path d="M124.23,179.6s.09,0,.1,0,0,.06,0,.08Z"/><path d="M126.48,175.81l-.07.1.08-.09Z"/><path d="M156.35,233.75l.12.12s-.09.1-.12.1-.08-.08-.12-.12Z"/><path d="M157.9,234.08a1.1,1.1,0,0,1-.14.09.13.13,0,0,1-.07,0,.59.59,0,0,1,.06-.14Z"/><path d="M129.22,224.34l.23-1.3a.75.75,0,0,1-.24,1.29Z"/><path d="M131.74,211.11l.08-.09-.09.08Z"/><path d="M131.73,211.1l-.08.08.09-.07Z"/><path d="M129,224.55l.22-.21h0l-.21.22Z"/><path d="M143.28,264l-.07.07-.06-.15s.07,0,.09,0S143.27,263.94,143.28,264Z"/><polygon points="145.47 266.79 145.48 266.73 145.53 266.77 145.47 266.79"/><path d="M143.92,269.3l.18-.35.1.07-.29.27Z"/></g></svg>