<svg id="Layer_1" data-name="Layer 1" xmlns="http://www.w3.org/2000/svg" viewBox="0 0 300 300"><g id="Artwork_33" data-name="Artwork 33"><path d="M229.05,165.71a23.11,23.11,0,0,1-2.27-3.88,12,12,0,0,1-.9-5c.31-3.27,3.39-2.65,5.49-3.45a3.81,3.81,0,0,0,2.22-1.92c1.33-4.44,2.45-8.94,3.61-13.43.77-3,1.62-6,2.11-9,.19-1.16-.58-2.46-.82-3.71-.37-1.9-1.33-4-.83-5.68,1.3-4.32-2.76-5.7-4-8.55a4.84,4.84,0,0,0-2-2.48c-1.57-.65-3.55-.41-5-1.2-1.14-.63-1.82-2.2-2.58-3.42a3.71,3.71,0,0,1-.65-2.11c.26-2.64,1.64-3.64,4.37-3.08.59.13,1.79-1,2.16-1.87,3-6.72,5.85-13.51,8.82-20.25.62-1.4,1.56-2.66,2.31-4a.92.92,0,0,0-.09-.73c-1.81-3.46-.31-7.62,2.62-10.07,1.15-1,.92-3.65,1.2-5.57.2-1.45.15-2.94.31-4.4.12-1.07.4-2.11.58-3.17a2.68,2.68,0,0,0-.48-.11c-.9-.11-2.24.1-2.6-.4-.48-.65-.18-1.86-.2-2.83,0-.22.09-.55,0-.65a56.7,56.7,0,0,0-6.34-5.3c-1-.64-2.67-.12-4-.23-.88-.07-2,0-2.56-.57s-.5-1.73-.7-2.63-.72-1.8-.43-2.37c1-1.93,2.52-3.62,3.44-5.58.55-1.17.28-2.7.52-4a39.14,39.14,0,0,0,1.1-5.13,22.16,22.16,0,0,0-.62-5.54c-.16-.72-1.41-1.35-1.36-1.95.25-2.76-1.1-6.64,3.2-7.23,2.34-.32,5.89-1,6.55,2.69.42,2.42,1,5.52-2.79,6.52-2.59.69-2.71,2.46-2.65,5,.09,3.44-1,6.9-1.3,10.37,0,.54,1.56,1.1,1.76,1.82a30.6,30.6,0,0,1,.58,4.72A1.3,1.3,0,0,0,237,36a78.53,78.53,0,0,0,6.2,5.22c.53.38,1.81-.43,2.76-.49s2.33-.21,2.88.33.55,2,.76,3a7.15,7.15,0,0,1,0,.8c.06.68.45,1.78.17,2-3.79,2.76-1.54,7.19-3,10.57-1.29,3-.55,5.75,1,8.44s.1,4.88-1.85,6.65c-1.3,1.18-3,1.9-4.32,3.11-.74.7-.94,2-1.39,3-1.32,3-2.73,5.94-3.93,9a107.66,107.66,0,0,0-4.4,12.28c-.4,1.53.51,3.69,1.42,5.21a65,65,0,0,0,6,8.44c.66.79,2.23.89,3.41,1.18,1.34.32,3.08.09,4,.86s.87,2.44,1,3.75c.21,1.48.8,3.36.15,4.42-1,1.74-2.95,3-4.5,4.41-.81.76-2.07,1.4-2.34,2.33-1.29,4.42-2.17,9-3.46,13.38-1,3.27-2.35,6.42-3.5,9.64a.84.84,0,0,0,.4.7c2.63.91,3.56,2.35,2.54,5.27-1.71,5,.3,9.52,2,14.12.43,1.17-.32,2.73-.09,4a21.41,21.41,0,0,0,1.53,3.63c.69,1.82,1.26,3.69,1.93,5.51a1.22,1.22,0,0,0,.78.66,7.1,7.1,0,0,1,4.39,11.71c-1,1.31-3.43,2.52-4.94,2.27-3.58-.62-3.7,2.21-5,3.94a78.15,78.15,0,0,0-5.67,8.07c-.74,1.32-.4,3.26-.52,4.92,0,.32.22.75.08,1-2.55,3.82-.19,6.75,1.84,9.6,3,4.14,6.07,8.2,9.29,12.14a4.61,4.61,0,0,0,3.13,1.14c2.38.08,4.79-.34,7.17-.2,5.54.32,8.76,3.13,9.44,8,1,6.92-4.54,14.36-11.58,15.1-2,.21-4.12-.87-6.2-1.29a1.45,1.45,0,0,0-1.23.33q-3.28,5.46-6.42,11a1.87,1.87,0,0,0-.05,1.52c1.48,2.94,1,9.79-1,11.46-3.51,2.87-10.74,1.53-11.83-3.53-.92-4.23-.61-8,3.66-10.31,1-.54,2.7-1.13,3.45-.67,2.88,1.77,3.78-.28,4.78-2.12,1.52-2.82,3-5.67,4.28-8.6a7.8,7.8,0,0,0,.4-3.73c-.28-2.83-1.09-5.63-1.11-8.44,0-2.35,1.11-4.71,1.08-7.05,0-1.24-1.41-2.46-2.16-3.7-2.72-4.48-5.32-9-8.2-13.39a11.45,11.45,0,0,0-3.79-3.1c-.75-.44-2.44,0-2.7-.45a19.92,19.92,0,0,1-1.87-5.32c-.58-2.81-.61-5.74-1.37-8.48a92,92,0,0,0-3.75-10.22,9.71,9.71,0,0,0-2-2.31c-.87-1-1.8-1.93-2.58-3-1.3-1.76-2.37-3.71-3.76-5.39a33.78,33.78,0,0,0-4.83-4.81c-.79-.62-2.19-.41-3.22-.81-5.31-2.05-7.8-5.63-6.22-11.5.13-.48-1-1.34-1.64-2-1.72-1.75-3.22-3.9-5.28-5.06-1.68-.95-4.05-.65-6.09-1-3.69-.65-4.93-5.77-2.66-9.12.66-1-.21-3-.46-4.58a17.22,17.22,0,0,1-.66-3.22c.1-2.43-1.7-2.92-3.2-4.11a9.36,9.36,0,0,1-3.46-5.3c-.2-1.37,1.78-3.05,2.76-4.62a1.87,1.87,0,0,0,.32-1c-.12-2.63-.25-5.26-.47-7.88,0-.29-.72-.84-.93-.77-4.3,1.49-9.88-1.75-10.07-6.26-.16-4-1.43-8.45,2.38-11.76.11-.09.12-.39.07-.56a60.53,60.53,0,0,0-2.22-7.61c-.32-.75-2-1.18-3.05-1.33-4-.55-5.49-2.84-6.34-6.69s.41-6.14,2.73-8.53a1,1,0,0,1,.6-.31c3.53,0,3-2.77,3.14-4.89.26-4.71.17-9.45.59-14.14.16-1.86-.4-2.45-1.84-3.32-.79-.48-.66-2.3-1.3-3.27A34.88,34.88,0,0,0,153,48.62c-2.16-2.21-4.5-4.26-6.85-6.27-.41-.36-1.25-.25-1.89-.3-1.42-.1-3,.25-4.2-.33-1.75-.87-3.68-2-2.3-4.8.77-1.57.27-3.85,1.22-5.19.7-1,2.82-1,4.3-1.41.36-.1.93-.22,1-.45,1-3.27,2.07-6.53,2.78-9.87a7,7,0,0,0-.67-4c-1.11-2.39,2.33-9.43,5-9.79,4.85-.67,6.91,1.36,6.16,6.31-.31,2.08-.62,4.38-1.73,6-.87,1.3-3,1.76-4.52,2.64-.58.33-1.37.69-1.56,1.22-1,2.79-1.82,5.63-2.66,8.47a4.24,4.24,0,0,0,0,1.74c.21,1.45,1.09,3.1.67,4.3-1.3,3.68,2.22,3.66,3.58,5.27.83,1,1.62,2,2.43,3,1.34,1.63,2.67,3.26,4,4.86.06.07.41-.06.6-.16a40.11,40.11,0,0,0,3.88-2.08c1-.66,2.32-1.39,2.69-2.4,1.69-4.63,3.32-9.31,4.54-14.08.62-2.45,2.57-5.32-.55-7.67-.19-.15.11-.95.17-1.45.12-1.08-.05-2.33.46-3.18.35-.59,1.7-.5,2.47-.94s1.31-1.45,2.11-1.7c1.33-.41,3.12-1,4.08-.42s1.38,2.42,1.64,3.78c.37,1.88,1.07,4.18.33,5.65-.9,1.82-3.12,3-4.85,4.35-.09.08-.81-.69-1.27-1-4.1-2.86-1.93,1.82-2.1,2.21-2.29,5.55-4.34,11.21-6.09,16.94-.34,1.1,1.26,2.67,1.24,4a10,10,0,0,1-1.44,4.61c-.41.71-1.77.88-2.7,1.3-.27.12-.75.21-.77.38-.49,3.08-1,6.17-1.33,9.28-.26,2.71-.08,5.47-.43,8.16-.43,3.19,2.41,3.37,4,4.73,2.2,1.93,3,3.94,2.1,7-1.42,4.73-2.5,9.66.48,14.29a2.25,2.25,0,0,0,1.84.65c4-.58,8-.79,11.16,2.38.73.74.72,2.31.86,3.52a31.26,31.26,0,0,1,.42,6.38c-.33,3.4-1.5,6.46-5.17,7.76-1.39.5-2,4.84-.9,5.84.28.25.1.93.32,1.32.58,1.06,1.31,2,1.88,3.1.71,1.34,1.75,2.68,1.9,4.09.51,4.9-1.45,9.94.78,14.76.17.35.73.8,1.06.76,4.05-.39,4.94,2,5.34,5.39a13.29,13.29,0,0,0,2.42,5.49,17.89,17.89,0,0,0,4.39,4.66c1.7,1.19,3.28,2.47,5.7-.33s1.63-5.53,2.15-8.3a20.77,20.77,0,0,0,.28-5c0-.72-.84-1.36-1.2-2.09a6.61,6.61,0,0,1-1.09-2.73c.1-2.56-2.51-6.08,2.3-7.23.33-.08.57-1.43.48-2.15-.31-2.51-.75-5-1.19-7.51-.36-2-1.24-3.92-1.09-5.82.22-2.86-1.92-3.2-3.49-4.37-2.71-2-4.52-4.61-3.68-8.21.33-1.43.75-3.16,1.75-4.06,3.38-3-.29-4.88-1.07-7.08-.6-1.67-2.3-2.92-3-4.57-1.46-3.5-5-1-6.87-2.63-1.25-1.06-2.66-2.57-2.89-4.06-.29-1.79.43-3.82,1-5.65.48-1.49,1.38-4,2.1-4a10.56,10.56,0,0,1,6.24,1.77c3.47,2.74,2.47,6.25.68,9.69a3,3,0,0,0,.25,2.53c2,3,5,5.63,6.14,8.91,1.41,3.91,4.13.94,5.82,2,1.36.9,3,1.86,3.68,3.2,2.27,4.22,1.48,8.54-.69,12.57-.38.71-1.9.81-2.91,1.18-.28.1-.86.11-.86.17a22.18,22.18,0,0,0,.14,2.44c.26,2.65.61,5.31.8,8,.17,2.5.16,5,.29,7.52,0,.19.47.5.75.52,2.38.22,4.39,3.5,3.17,5.88-.83,1.61-2.86,2.59-3.73,4.2-.73,1.34-.6,3.18-.75,4.8a29.51,29.51,0,0,0-.35,6.48c.17,1.39-2,4,1.78,4.29,1,.08,2.47,2.23,2.45,3.42a100.71,100.71,0,0,1-1.17,10,1.82,1.82,0,0,0,.64,1.17q3.09,3.12,6.26,6.14a1.17,1.17,0,0,0,1.13,0c2.06-2,4.95-2.05,6-.05.91,1.71-.31,4.57-.61,6.92,0,.28-.41.6-.34.78,1.06,2.72,2.26,5.38,3.22,8.13s1.4,5.38,2.5,7.89c.23.52,2.34.43,3.53.26,3.85-.56,5.32-3.32,6.16-6.77.29-1.18,1.26-2.19,1.91-3.29a14.13,14.13,0,0,0,1.6-10c-.22-1.29,1.26-2.82,1.81-4.3a4.33,4.33,0,0,0,.29-2.56c-1-3.43-2.37-6.77-3.36-10.21-.62-2.13-.41-4.56-1.28-6.54-.78-1.76-2.53-3.09-3.85-4.6Zm31.91,86c-.77-1.32-1.52-4.08-3.32-5.37a18,18,0,0,0-8.45-3.08c-1.55-.16-3.27,2-5,2.95-2,1.08-5,1.5-3,4.93a52.21,52.21,0,0,0,4.59,7c.68.8,2.37.82,3.63,1.06a23.13,23.13,0,0,0,2.89.21c-.75.73-1.46,2-2.25,2.07-1.35.07-2.74-.63-4.12-1l-.71-.17c.16.22.33.43.49.64,2.14,2.85,5.16,1.57,7.73,1.3S260.92,255.37,261,251.76Zm-81-144.68c-2.39-1-5.12-2.61-8.06-3.25-3.21-.7-8.3,6.14-8.08,10.36.14,2.67,5.49,6.32,9.63,6.57C177.19,121,179.72,116.08,179.92,107.08Zm14.43,8.47c1,2.81.1,6.29,4.27,6.3.7,0,1.76-.81,2-.56,1.61,1.41,2.44,1.11,3.65-.65,1.87-2.71,2.19-7.81-.11-10.14a8.41,8.41,0,0,0-3.87-1.91c-1.25-.3-3.54-.45-3.81.1A42,42,0,0,0,194.35,115.55Zm-28.8-28.48c-.79-4.44-3.15-6.75-7.69-6.07-1.42.21-2.79,3.45-3.41,5.53-.74,2.52,3.44,7.22,5.82,6.25C162.45,91.9,163.82,89.05,165.55,87.07Zm29.81,87.87c.15.43.62,1.89,1.19,3.32s6,2.61,6.57,1.31a18.52,18.52,0,0,0,1.72-7.91c-.09-1.25-2.91-3.42-4.22-3.24C198,168.79,195.09,170.12,195.36,174.94ZM237.43,280.5c-3.24-2-5.13-3.58-7.31-4.39-1.58-.58-4.8,4.23-4.57,6.9.29,3.47,3,4.95,5.7,3.92C233.37,286.12,234.77,283.41,237.43,280.5ZM186.61,82.84c-3.2.2-5.65,4-5.05,7.3a5.37,5.37,0,0,0,6,4.41c1.22-.2,2.57-3.91,2.59-6C190.2,86,189.19,83.17,186.61,82.84ZM153.56,7.44c-4.69,1.52-5.29,4.68-5.22,7.82,0,1.12,1.68,2.2,2.59,3.29,1.79-2.26,4-4.34,5.14-6.88C156.47,10.78,154.38,8.74,153.56,7.44Zm74,152.74c.93.83,2.56,3.51,4.34,3.62,2.65.15,4-2.57,4.08-5.35s-2.31-3.65-4.21-3.58C229.58,154.94,226.68,155.39,227.58,160.18ZM238,194l.06,1.73,6.72,4.09c.73-1.66,2.19-3.41,2-5-.22-1.72-1.94-3.26-3-4.87ZM179.34,23.41c-.34-2.1-.2-3.52-.82-4.4s-2.48-1.58-2.84-1.26a55.35,55.35,0,0,0-4.93,5.32c1.66,1.22,3.21,3.15,5,3.4C176.89,26.64,178.38,24.3,179.34,23.41Zm68.48,97.15-4.62-4c-1.25,1.47-3.77,3.33-3.47,4.32.56,1.78,2.8,3,4.34,4.51Zm-.2-51.69c-.43-3.2-1.62-5.39-4.3-4.56-1.2.38-2.17,2.91-2.42,4.58a2.94,2.94,0,0,0,3.78,3.33C246,71.91,246.85,69.81,247.62,68.87Zm-60.85,86.49c-2.88-.78-4.68-1.68-6.4-1.55-.8.06-2.32,2.74-2,3.15,1.16,1.6,2.92,2.76,4.46,4.09Zm18-12.45c-3.57.86-5.25,2.16-5.19,5.09.05,3.21,2.8,2,4.33,2.44.49.13,2.16-1.83,2.21-2.88C206.18,146,205.27,144.48,204.76,142.91ZM172,138.84c.83,1.27,1,1.65,1.24,1.84s.54-.07.82-.11c.54-.08,1.3-.42,1.61-.18,2.61,2.07,2.36-.48,2.49-1.67a17.83,17.83,0,0,0-.46-3.86c0-.35.16-1,0-1-.53-.27-1.54-.68-1.69-.49C174.53,135.18,173.19,137.14,172,138.84ZM226.75,214c-1.15,1.94-2.11,3.49-3,5.09a3.74,3.74,0,0,0-.18,1.32,3.3,3.3,0,0,1,1.15.09,23.48,23.48,0,0,1,2.23,1.29c.1.06.13.25.19.38a2.24,2.24,0,0,0,.38-.31,5.29,5.29,0,0,0,1.15-1.48,10.31,10.31,0,0,0,.83-3.89C229.44,215.84,228.16,215.26,226.75,214ZM164,49.15,161.87,49a51.26,51.26,0,0,0-2.27,5.44c-.13.44.93,1.23,1.44,1.87.18-.39.26-.88.55-1.13a2.41,2.41,0,0,1,1.3-.49c.16,0,.39.44.54.7a3.35,3.35,0,0,1,.22.63c.21-.22.51-.4.61-.67a6.46,6.46,0,0,0,.72-2.55A19.8,19.8,0,0,0,164,49.15Zm73.1-37.49,2.62-3.83c-1.22-.77-2.57-2.31-3.61-2.12-1.21.22-2.14,2-3.2,3ZM142,41a46.08,46.08,0,0,0,3.06-6.39c.07-.23-2.22-1.21-3.42-1.84-.72,1.46-1.75,2.87-2.05,4.42C139.46,37.93,140.67,39,142,41Zm90.74-2.91c1-1.92,2-3.11,2.07-4.37,0-.59-1.78-2-2.51-1.81a3.5,3.5,0,0,0-2.2,2.48C230,35.21,231.32,36.17,232.75,38.06ZM213,192.45l2.95,1.8a10.84,10.84,0,0,0,1.49-3.14c.06-.5-1.2-1.17-1.86-1.76ZM243.46,43.83l1,1.27c.42.57,1.06,1.7,1.21,1.63a18.24,18.24,0,0,0,2.81-1.67c-.75-.77-1.39-1.93-2.29-2.2C245.44,42.64,244.38,43.47,243.46,43.83Zm-16,56.54c-.73,1.09-1.61,1.82-1.57,2.5s.95,1.42,1.47,2.13a13.76,13.76,0,0,0,1.94-2.62C229.39,102.13,228.35,101.35,227.43,100.37Z"/><path d="M86.1,270.41a49.08,49.08,0,0,0,1.14-5.3,3.93,3.93,0,0,0-.64-2.89c-2.43-2.48-3-7.18-1.58-10.29.43-1-.84-2.68-1.3-4.07-1.22-3.71-2.37-7.44-3.64-11.13-.51-1.47-.23-3.58-3.15-3s-6.81-2.2-7.36-7a50.2,50.2,0,0,1-.53-10c.11-1.27,2.21-2.31,3.29-3.55a3.1,3.1,0,0,0,1-2.06c-.51-3.14-1.2-6.26-2-9.35-.09-.35-1.16-.37-1.57-.76-1.23-1.15-2.9-2.21-3.41-3.66-1.34-3.79-2-7.76.39-11.52.24-.39.42-1,.75-1.11,3.37-1,2.45-4,2.62-6.25a19.13,19.13,0,0,0-.82-7.13c-.58-1.85-2.31-3.3-3.1-5.12-1.07-2.45-1.3-4.8,1.8-6.4,1-.49,1.48-2.18,1.82-3.43.78-2.88,1.38-5.82,1.94-8.76a9.74,9.74,0,0,0,.25-4c-.27-1-1.49-1.77-2.2-2.71a2.77,2.77,0,0,1-.72-1.7c.23-1.64-3.59-3.9.85-5.14.61-.17.7-3.7.35-5.54a60.08,60.08,0,0,0-2.87-10c-.38-1-1.92-1.71-3.07-2.28-3.82-1.91-5.64-6.45-5.33-10.72A27.13,27.13,0,0,0,57.47,96,112.22,112.22,0,0,0,53.23,85.5C52.1,82.78,51,80,49.73,77.36c-.18-.37-1.22-.57-1.79-.47-4.45.74-7-1.68-7.36-7.19-.18-3.15.7-5.75,4.12-6.94.47-.16.71-1.68.65-2.54-.18-2.54-.52-5.08-.88-7.61-.18-1.32-.65-2.6-.78-3.91-.14-1.54,0-3.11-.1-4.67,0-.51-.56-1-.59-1.51-.11-1.94.33-4-.24-5.8-.76-2.32-2.44-4.31-3.42-6.57a28,28,0,0,1-1.2-4.94c-.22-.93-.81-1.94-.6-2.75.78-3.12,4.57-6,6.88-5.53,3.78.83,6.88,5.09,6.21,8.82-.36,2-1.57,3.9-1.55,5.84,0,1.52,1.28,3.05,2.09,4.52s2.52,3.06,2.67,4.68c.37,3.93,4.13,7.38,7.92,8,1.35.24,2.48,3.46,3.12,5.5s.15,4.74,1,6.74a76.66,76.66,0,0,0,6,10.64,4,4,0,0,0,3.22,1.36c3.78-.45,6.94,1.86,6,5.46-.53,2,.11,6.37-4.62,5.57-.26,0-1.11,2-1.26,3.07C75,89.76,75,92.4,74.66,95c-.28,2-1.12,3.88-1.44,5.86-.16,1,.56,2.13.39,3.12-.51,3-.4,6.69-2.12,8.83-2.58,3.23-.56,5.81-.33,8.63a44.3,44.3,0,0,0,1.5,8.07,3.08,3.08,0,0,0,2.39,1.67c3.11-.13,6.57,3.86,5.76,6.93-.08.31-.18.82,0,1a55.79,55.79,0,0,0,4.57,3.72c.23.17,1-.49,1.6-.74l5.44-2.47c1.13,2.53,3.49,5.26,3.12,7.55-.76,4.79,0,9.09,1.28,13.54.4,1.42-.62,3.5.1,4.49,1.54,2.12-1,6.47,3.88,6.84.87.06,2.31,2.4,2.23,3.6a36.38,36.38,0,0,1-1.9,8.15c-.49,1.55-2,2.89-2.11,4.41-.2,2.35.57,4.76.6,7.15,0,1.7-.64,3.4-.67,5.11a3.63,3.63,0,0,0,1,2.68c2.51,1.86,4.16,7.79,2.25,10.3-1.58,2.07-.9,3.41,0,5.43s.36,4.39.88,6.52c.25,1,1.5,1.75,2.22,2.66a13.74,13.74,0,0,1,2.58,3.6,11.6,11.6,0,0,1,.48,4.94c-.07.67-1.41,1.82-2.05,1.73-3.5-.44-4.59,2.39-5.92,4.43a93.31,93.31,0,0,0-4.88,9.43,1.38,1.38,0,0,0-.1,1c1.46,3.8,1.85,7.42-2,10.07-.92.62-2.26.63-3.41.94-.11,0-.28.12-.29.2-.38,3.19-1.3,6.45-.92,9.55.23,1.83,2.87,3.24,3.77,5.16.77,1.64.67,3.73.83,5.63a12.25,12.25,0,0,1,0,4.56,19.42,19.42,0,0,1-2.81,5.12c-.25.36-1.47,0-2.24,0-.26,0-.67-.1-.75,0-2.11,3.25-4.88,1.09-6.59.1-1.93-1.11-3.34-3.54-4.32-5.7-.58-1.27.55-3.24.17-4.69a7.23,7.23,0,0,1,2.47-7.85c1.59-1.28,4.27-1.11,6.14-2.15.8-.45.78-2.36,1.13-3.6ZM71.92,181.69c.15.22.78,1.63,1.19,1.57a4.54,4.54,0,0,1,5.47,3.81c.56,2.45-.26,5.21.26,7.68.77,3.68-1.15,5.08-4,6.19a1.25,1.25,0,0,0-.51,1.05,55.3,55.3,0,0,0,.72,6c.32,1.64-.68,4,2.9,3.85a6.41,6.41,0,0,1,7,6.4,29.86,29.86,0,0,1-.56,6.18,49,49,0,0,1-1.76,6.3c-.46,1.36-1.26,2.61-1.71,4-.09.28.94.79,1.13,1.31,1.42,4,2.67,8,4.21,11.89a4.83,4.83,0,0,0,2.54,2.37c1,.42,2.72-.33,3.48.25,2.06,1.58,2.82.76,3.66-1.16,2.09-4.78,6.44-9,3.11-15-.48-.87.63-2.74,1.23-4.05.49-1.06,2-2.06,1.88-2.92a101.82,101.82,0,0,0-2.24-10c-.26-1-.5-2.68-1.16-2.92-3.43-1.28-6.44-2.78-5.47-7.17.38-1.71-.59-5.24,3.5-3.77.18.07.79-.42.8-.67.16-4.33.33-8.66.34-13,0-1.78.27-4.49-.7-5.16-3.63-2.51-4.79-5.26-3.06-9.49.62-1.52,2.6-2.12,1.74-4.73-1.22-3.72-1.11-7.85-1.81-11.77-.35-1.9.2-4.84-3.47-4.29-.78.12-2.19-.1-2.36-.53-1-2.61-1.47-5.49-2.75-7.94-.86-1.65-2.68-2.9-4.3-4-.54-.37-1.8.21-2.69.49a13.62,13.62,0,0,0-2.42,1.05c-1.13.64-3,1.22-3.17,2.09-.85,4.34-1.27,8.77-1.79,13.18a1,1,0,0,0,.53.83c3.17.59,3.6,2.81,3.21,5.43a10.22,10.22,0,0,1-.91,2.45c-.88,2-2.27,3.9-2.57,6C71.08,175.89,71.67,178.44,71.92,181.69ZM58.43,60.79A27.74,27.74,0,0,1,56,57c-1.31-2.86,1.76-6.3-1.18-9.07a12.25,12.25,0,0,1-2-3.25C50.82,41.06,49,37.41,47.06,33.8c-.14-.26-.62-.57-.85-.51-.77.21-2.16.6-2.15.86.1,2.37.46,4.73.74,7.08.19,1.55.39,3.1.56,4.65s.29,3,.46,4.58c.26,2.21.55,4.42.8,6.63.2,1.73,0,3.6.63,5.15.47,1.12,2.35,1.62,3,2.74,1.55,2.84,2.91,5.86.22,8.93A2.16,2.16,0,0,0,50,75.79c1.93,3.67,4,7.27,6,10.89,1.64,2.93,3.19,5.92,5,8.74.39.61,1.7.77,2.61.86,1.15.12,2.35-.18,3.49,0,1.54.17,3.05.62,4.59.85.12,0,.46-.82.53-1.29.49-3.13,1-6.25,1.35-9.39A9.74,9.74,0,0,0,73.11,83c-.44-1.65-1.33-3.2-1.59-4.86s.61-4-.18-5.33a66.17,66.17,0,0,0-6.83-9C63.09,62.05,62.88,57.93,58.43,60.79ZM84,222.48c-.74-2.43-.8-4.5-1.87-5.67-1.32-1.45-3.51-3.06-5.26-3-3.61.16-6.41,2.06-6.21,6.44.12,2.54-.54,5.31.26,7.57a7.15,7.15,0,0,0,4.63,3.82c1.94.39,5.19-.12,6.1-1.46C83.23,227.93,83.42,224.71,84,222.48Zm9.49,62.62A48.58,48.58,0,0,1,90,279.29c-1.74-4.13-6.24-3-7.52-1.93-2.31,2-3.22,5.69-4.48,8.77-.23.58.68,1.6,1,2.44a13.76,13.76,0,0,0,.83,2.75c2.08,3.35,6.09,3,8.19,1.79C90.4,291.72,91.57,288.1,93.51,285.1ZM61.63,99.77c.27-.6,0-.19-.1.25a17.37,17.37,0,0,0-.73,2.88c-.18,1.63-.6,3.38-.18,4.87a10.92,10.92,0,0,0,2.73,3.93c.88,1,2.47,2.53,3.05,2.27,3.93-1.74,6.14-6.92,5.18-11.21-.11-.48.09-1.14-.17-1.45C69,98.4,66,97.58,61.63,99.77Zm4.56,91.15c2,3.25,3.15,7.27,5.19,7.81,3.75,1,6.42-2.15,6.06-7.29-.15-2.19-3.18-4.18-4.9-6.26ZM41.38,68.34c.23,5.12,1.89,7.37,5.2,6.58,2.47-.6,4.87-2.11,4.47-5.65-.33-3-2.71-6.09-5.17-5.76C42.83,63.91,41.65,66.06,41.38,68.34Zm9.38-42.86c-2.27-2.18-4-3.9-5.84-5.57-.48-.43-1.51-1.07-1.64-.95-1.13,1.06-3,2.31-3,3.45A34.59,34.59,0,0,0,42.13,31c.08.26,2.42.34,3.17-.22A57.36,57.36,0,0,0,50.76,25.48ZM95.39,147.35c-1-3.15-.8-6.4-4.24-5.29-1.82.59-4.2,2.63-4.44,4.3-.68,4.59,1.23,6.87,5.22,6.16C93.48,152.24,94.48,148.81,95.39,147.35Zm.51,110.32c-2.36-2.32-3.91-4.41-6-5.5-.54-.28-3.28,2.33-4,4-.85,2,3,5.9,5.81,5.59C93,261.66,94,259.6,95.9,257.67ZM70.28,138.79c2,1.42,3.65,3.28,4.57,3,1.58-.5,2.74-2.34,4.08-3.62l-4.37-4.54C73.3,135.13,72.05,136.65,70.28,138.79Zm29.83,45c.66-3.28,1.13-5.57,1.58-7.88a.62.62,0,0,0-.08-.49c-1.29-1-2.06-2.61-4.39-.84-2.71,2.06-1.71,4.23-1.12,6.34C96.36,181.81,98,182.32,100.11,183.78Zm-.79,50.09a29.5,29.5,0,0,0,2.81,3.18c.17.14,1.3-.83,2-1.25.17-.1.44,0,.66,0,.65-.05,1.6.12,1.87-.23s.08-1.29,0-2c-.09-1.08.19-2.6-.42-3.17-2.52-2.4-4.09.63-6,1.44C99.87,232,99.78,232.81,99.32,233.87ZM102,208.05l-4.59-3.54-3.09,5.54a27.73,27.73,0,0,0,5.48,2C100.16,212.16,101,209.93,102,208.05ZM79.42,78.71c.17-3.95-2-4.35-4.33-4.15-.4,0-3.78.46-1.49,2.84.07.06-.24.41-.2.59a6.93,6.93,0,0,0,.76,2.78c.56.72,2.23,1.61,2.45,1.4A25.28,25.28,0,0,0,79.42,78.71ZM59.87,59.08c1.41-1.48,3.25-2.74,3.05-3.35-.61-1.95-2-3.66-3.06-5.47A36.75,36.75,0,0,0,57.52,56C57.36,56.59,58.69,57.58,59.87,59.08Zm9.58,101.36c-.78,1.39-2.17,2.74-1.93,3.69.42,1.64,1.84,3,2.84,4.53.76-2.15,1.61-4.29,2.18-6.5C72.6,161.94,71,161.3,69.45,160.44Z"/><path d="M136.11,68.14c0,3.39-.67,5.84-4.26,6.15-.22,0-.45,1-.5,1.51q-.56,5.34-1,10.7c-.15,1.8-.56,3.69-.2,5.4s2.1,3,2.24,4.56c.22,2.44-.7,5-.61,7.44A54.87,54.87,0,0,0,133.12,115c.2.79,3.11.94,4.8,1.31,3.2.71,5.13,2.75,5,6a77.5,77.5,0,0,1-1.49,9.36,1.55,1.55,0,0,0,0,.74,62,62,0,0,0,3.41,7.71c1.91,3.2,4.27,6.12,6.38,9.2.31.45.27,1.14.49,1.68a4.23,4.23,0,0,0,.92,1.62,2.93,2.93,0,0,0,1.5.39c2.17.33,4.35.59,6.51,1,.71.12,1.81.35,2,.82a8,8,0,0,1,.69,3.9c-.37,2.21-1.7,4.33-1.73,6.5a11.27,11.27,0,0,0,1.87,5.75c1.7,2.69,4,5,5.84,7.62,2.45,3.53,4.62,7.27,7.11,10.78.35.5,1.85.14,2.81.26,4.83.63,5.06,2.05,5.22,7.39.09,2.77,3.15,5.45,4.89,8.16,0,0,.3-.13.46-.12,3.24.17,7.22-.75,9.54.8a8.47,8.47,0,0,1,2.85,10.3c-.43,1.13-1.46,2.08-1.73,3.23a6.06,6.06,0,0,0,.25,3.55c3.23,7.63,6.41,15.3,10.09,22.71.74,1.48,3.72,1.71,5.39,2.9s3.83,2.75,4.84,4.63c2.14,4-.8,12.58-4.74,14.83-1.8,1-3.77,2.57-5.6,2.49s-3.43-2-5.2-3c-.41-.23-1.42-.17-1.61.11a82.84,82.84,0,0,0-4.64,7.51c-.43.79,0,2,0,3,0,3.34-2.37,4.52-5.56,4.9-3.63.43-4.66-1.27-5.06-3.92-.26-1.73-.29-3.95.58-5.31,1.89-2.95,4.78-2,7.56-1.05a2.51,2.51,0,0,0,2.22-.89c1.29-2.09,2.83-4.25,3.28-6.57s-.58-4.92-.4-7.35a30.19,30.19,0,0,1,1.66-7.61,7.36,7.36,0,0,1,2.67-2.95c.57-.43,1.55-.32,2.36-.44.23,0,.53.1.71,0s.39-.48.33-.6c-1.17-2.3-2.41-4.56-3.54-6.87-.32-.67-.2-1.55-.5-2.24-2.25-5.06-4.42-10.17-7-15-.27-.49-3.43.59-5.25.95-.36.07-.87.37-1,.23-3.75-3-6.33-6.68-6.51-11.6-.05-1.45.14-3.34,1-4.29,2.44-2.6-.18-3.12-1.41-4.17a10.2,10.2,0,0,0-3.29-2.21c-1.24-.38-3.18.49-3.92-.18-1.49-1.35-3.47-3.49-3.29-5.09.53-4.64-1.9-7.78-4.22-11.1-2.65-3.79-5.37-7.52-8.1-11.25a32.92,32.92,0,0,0-2.64-3c-.14-.15-.61,0-.94,0,0,.25.06.51.08.76.06,1.05.13,2.1.19,3.15s.12,1.83.16,2.75a22.86,22.86,0,0,0,.24,4.24,5,5,0,0,0,1.7,2.18c1.86,1.6,4.13,2.84,5.56,4.73.75,1,.06,3.07,0,4.66s.63,4.09-.19,4.78c-2.07,1.75-4.81,2.71-7.31,3.95,0,0-.26-.56-.5-.68a13,13,0,0,0-2.43-1c-.17-.05-.61.54-.81.9a24.47,24.47,0,0,0-2.45,4.91,16.89,16.89,0,0,0-.18,5.08c.11,2.35.38,4.69.58,7,0,.11-.06.23,0,.33,1.84,4.7,3.66,9.42,5.58,14.09a1.62,1.62,0,0,0,1.48.56c4.11-1.24,9,1.87,9.41,6.07.11,1.31.37,3-.28,3.9-1,1.34-2.65,3-4,3-2.63,0-2.5,1.74-2.77,3.17a31.25,31.25,0,0,0-.5,5.95c0,2.14.55,4.29.47,6.42-.06,1.71-1.36,3.65-.85,5,.43,1.17-2.5,3.75,1.41,3.89.8,0,1.52,2.67,2.27,4.11,1.47,2.8-.35,4.53-2.41,5.41a6.49,6.49,0,0,1-5-.27c-1.29-.7-2.73-2.74-2.59-4a9.25,9.25,0,0,1,2.88-5.21c1.74-1.62,2.12-2.32,1.69-5.54-.19-1.45.84-3,1-4.56.08-1.14-.71-2.35-.61-3.49a65.06,65.06,0,0,1,1.24-7.43c.59-2.73-1-2.74-3-2.9-.92-.08-2.46-.92-2.51-1.53a49.85,49.85,0,0,1-.1-9.06c.08-.95,2.23-2.07,2-2.64a75.08,75.08,0,0,0-3.69-8.2,44.17,44.17,0,0,0-3.11-5.85,2.86,2.86,0,0,0-2.65-.73c-3.72,1.82-8.25-.4-7.58-4.47.47-2.86-.5-7,3.31-8.63,1.18-.5,2.8,0,4.22.05.46,0,1.15,0,1.34-.22,2.64-3.75,4.06-7.56,2.88-12.47-.91-3.79-.11-7.77,4.66-9.4.43-.15.26-2.19.28-3.36s-.06-2.51-.09-3.76c0-.08.08-.17.07-.24a67.23,67.23,0,0,0-1.66-8.15c-.24-.77-2-1-3-1.63s-2-1.37-2.22-2.26a50.52,50.52,0,0,1-1.13-7.77c0-.41,1.32-.83,1.44-1.38A4.7,4.7,0,0,0,151,152a28.41,28.41,0,0,0-2.47-5.19c-.69-1.06-2.19-1.59-2.93-2.63-1.81-2.58-3.44-5.29-5.06-8-1.15-1.92-2.14-3.45-5-2.55-3.2,1-9.1-4.52-8.5-7.89.51-2.86.65-6.58,2.48-8.24,3.13-2.84,0-5,.31-7.31.11-1,.14-2.58-.47-3.09-1.2-1-3.32-1.13-4.23-2.28a10.83,10.83,0,0,1-2.1-5.38,15.92,15.92,0,0,1,.76-5.94c.23-.82,1.41-1.54,2.32-2,2.65-1.22,1.84-3.45,2.07-5.57.45-4,1.37-7.93,2.05-11.9.05-.26-.17-.81-.29-.81-5.09-.19-2.33-3.87-1.86-5.42.77-2.47-.19-3.87-1.63-5.18-2.33-2.12-5-3.85-7.26-6-1.88-1.83-3.11-4.36-5.1-6-1.19-1-3.65-.38-4.89-1.33-1.51-1.17-2.45-3.16-3.44-4.91-1.87-3.3,1.31-5.09,2.22-7.61.8-2.19.27-4.89.21-7.36,0-1.79.07-3.71-.56-5.3-.34-.85-2.15-1.07-3.23-1.69-.69-.39-1.66-.9-1.81-1.53-.62-2.62-1.5-5.36-1.28-8,.25-2.91,6-5.77,8.88-4.87,1.6.51,3.62.72,4.66,1.82,2.9,3.05,2.23,7.8-2.31,10.8-3.81,2.52-3.07,5.47-2.78,8.77a15.2,15.2,0,0,1,.1,4.09c-.76,3.93,3.07,2,4.24,3.45,1,1.21,2.94,2.28,3,3.45.06,2.29-1.1,4.59-1.37,6.93a4.19,4.19,0,0,0,1.3,2.93c1.39,1.38,3.12,2.39,4.57,3.72.64.58.85,1.6,1.37,2.35a22.79,22.79,0,0,0,1.85,2.21c.82.89,2.31,1.66,2.43,2.61.37,3,2.24,3.51,4.44,2.95C136,63.08,135.62,66.16,136.11,68.14ZM206,251.37l-.56-.37c-.18.5-.37,1-.54,1.48-.65,1.87-1.82,3.74-1.79,5.59s1.4,3.63,2,5.51c.76,2.64,5.46,4.18,7.47,2.4.22-.2.91.08,1.37.18s.81.44,1,.33c4.94-2.32,6.23-12.38,1.71-15.81-2-1.51-5-1.75-7.57-2.41-.36-.09-1,.67-1.41,1.11C207.11,250,206.59,250.7,206,251.37Zm-14-46.46a1,1,0,0,0-.73.25c-1.07,1.38-1.91,3-3.09,4.24-2.06,2.23-1.78,4.49-.57,6.91a4.27,4.27,0,0,1,.33,1c.9,3.93,4.18,3.89,7.14,4.1a4.78,4.78,0,0,0,3.31-.95c2.43-2.31,2.73-7.7,1-10.5-.8-1.28-1-3.24-2.08-4C196.09,205.11,194.15,205.27,192.05,204.91ZM134.66,116l-.89.9c-.19.06-.47.06-.56.19-1.57,2.3-4.49,4.73-4.32,6.91.18,2.35,3.1,4.64,5.13,6.65,2.47,2.47,4.82,1.84,6.43-1.14a9.18,9.18,0,0,0,.42-2.73c.25-1.45,1.27-3.49.67-4.23C139.56,120.1,137,118.14,134.66,116ZM102.32,16.5c.81,1.2,1.71,3.77,3.47,4.7,1.4.75,4.55.18,5.69-1a15,15,0,0,0,3.28-6.93c.54-2.32-3.29-4.7-6.87-4.64C105.69,8.66,102.32,12.85,102.32,16.5Zm57.53,169.36a4.86,4.86,0,0,0-4.78,4.94c0,4.46,2.84,8.16,6.63,7.35,1.7-.36,3.38-3.46,4-5.62C166.37,190.17,162.12,185.87,159.85,185.86Zm1.25,57.62a7.92,7.92,0,0,0,.84.21c2.33.44,5.09,1.05,6.11-1.66,1.2-3.17.44-6.59-3.41-7.17-2.49-.37-5.27.8-7.8,1.63-.38.12-.63,2.64-.07,3.22C158,241,156.8,245.17,161.1,243.48Zm1.64-84.11c-1.06-4.6-3.64-5.72-6.36-5.4s-6.09,1.41-4.77,5.31c.7,2.07,3.63,5.44,4,5.24C158.4,163.12,160.75,160.92,162.74,159.37ZM117.3,41.79c-2.36-2.11-3.63-3.81-5.32-4.53-.82-.34-2.6,1-3.59,1.9-.55.51-.16,1.88-.54,2.71-1.11,2.43-.9,4.61,1.24,6.21a2.88,2.88,0,0,0,2.79-.14C113.62,46.31,115.07,44.38,117.3,41.79ZM153.06,211.3c-2.48-1.64-4.62-4.09-6-3.71a6.82,6.82,0,0,0-4,5c-.09,1.62.57,6.06,4.66,3.81C149.51,215.43,150.79,213.54,153.06,211.3Zm40.8,70.42c4.3,0,4.13-3.33,3.72-5.89-.2-1.23-2.74-3.07-4-2.89a5.61,5.61,0,0,0-3.69,3.64C189.37,279.19,190.36,281.63,193.86,281.72ZM124.08,97.59c-.54,4.27,2,5.6,4.43,5.42,1.06-.08,2.76-3.22,2.61-4.83-.21-2.34-.79-6.12-4.78-4.47C125,94.25,124.54,96.74,124.08,97.59Zm11-27.46c.57-5.53-2.6-4.74-4.4-4.21-1.07.32-2.11,2.7-2.07,4.13,0,.87,2.28,2.52,3.24,2.33C133.3,72.08,134.54,70.52,135,70.13Zm42.79,128.14c4.31.27,4.64,0,4.66-4.26,0-.79-.85-1.59-1.31-2.38l-5.67,3.81Zm-13.56,77.27-.09-1.61a19,19,0,0,0-4.35-1c-.64,0-2,1.49-1.84,1.8.51,1.21,1.6,3.15,2.29,3.08C161.66,277.64,162.94,276.35,164.26,275.54Z"/><path d="M103.59,107.4c.72,2.28,1.39,3.37,1.34,4.44-.11,2.44-.6,4.87-.88,7.31a30,30,0,0,0-.1,3.15c0,.15.29.46.38.44,4.88-1.13,5.52,2.68,5.77,5.7s-1.21,5.91-1.12,8.84c.06,2.13,1.3,4.27,2.27,6.28.24.49,1.46.51,2.24.72,1.24.34,2.86.28,3.65,1.07a6.22,6.22,0,0,1,1.45,3.87c.15,4.73,0,9.47.1,14.21,0,.25,1.37.33,1.9.74,1.35,1,3.24,2,3.7,3.4.53,1.57-.18,3.59-.58,5.37-.08.38-1.36.38-1.68.84a10.1,10.1,0,0,0-1.55,3.18,29.74,29.74,0,0,0-1.15,6.62,3.91,3.91,0,0,0,2,2.84c3.07,1.38,4.76,4.85,3.28,7.91-.55,1.11-1.8,1.85-2.49,2.92-.35.54-.19,1.43-.23,2.16a34.61,34.61,0,0,0-.27,5.65c.2,1.87,1.11,3.67,1.37,5.55.32,2.38.18,4.82.51,7.19.06.42,1.53,1,2.25.91a3.78,3.78,0,0,1,4.48,4.39,44.43,44.43,0,0,1-2.53,6.39c-.09.21-.22.51-.14.67,2.61,5.48,5.07,11.05,8,16.38a20.07,20.07,0,0,0,5.08,5.61c1.62,1.31,4.4,1.56,5.46,3.1s1,4.23,1.06,6.41.13,4.65-.82,6.44c-1.31,2.46-3.73,3.88-6.84,2.41-.3-.13-1.21.35-1.36.74a47.26,47.26,0,0,0-2.28,6.77c-.18.79.7,1.8,1,2.73.58,1.58,1.92,3.47,1.48,4.72-.68,1.95-2.58,3.48-4,5.17-.13.16-.39.22-.57.34-.74.5-1.68,1.58-2.16,1.41-3.12-1.15-7.39-2.49-6.73-6.29,1.4-8.08-1.23-14.89-4.17-22a4.91,4.91,0,0,0-3.36-3.24c-3-1.19-3.18-5.63-.8-8.63a20,20,0,0,0,3.49-5.62c.54-1.56-.21-3.51,0-5.24.46-3.65,1.53-7.25,1.66-10.9.08-1.95-1.34-3.94-1.93-5.95a4.87,4.87,0,0,1,.1-2.39c.54-2.1,1.48-4.14,1.7-6.27.15-1.49-.72-3.06-.93-4.62-.27-2,.3-4.32-.62-5.82-1.42-2.34.75-5.13-2.19-7.65-1.76-1.51-.67-6.44-.69-9.84,0-2.49.27-5,.39-7.47a8.48,8.48,0,0,0-.06-2.76,20,20,0,0,0-1.63-3.48,13.41,13.41,0,0,0-1.07-1.52l1.21.56c.26.11.54.19.81.28-.2-.15-.39-.32-.6-.45-2.26-1.35-2.08-6.51.19-8.3a2.54,2.54,0,0,0,.77-1.91c-.15-1.77-.08-3.8-.95-5.19-.69-1.08-3-1.06-4-2.09-1.44-1.48-3.59-3.78-3.23-5.18,1-3.91-1-7-1.44-10.49-.24-2.07-1.18-1.44-2.49-1.65-1.87-.29-4.47-1-5.21-2.35a32.2,32.2,0,0,1-2.81-9.34c-.1-.57,2-1.35,2.68-2.33a15.05,15.05,0,0,0,2.76-5.28,45.69,45.69,0,0,0,.5-9.07,4.16,4.16,0,0,0-1.33-3.1c-1-.64-2.68-.18-3.84-.7A6.41,6.41,0,0,1,95,103.58c-2.83-5.15-.36-11.6,2.85-15.47.24-.29-.24-1.14-.31-1.74-.42-3.16-.74-6.35-1.3-9.48a2.29,2.29,0,0,0-1.94-1.09c-1.55.29-4.58-2.16-4.3-3.76.32-1.91,1-3.81.9-5.69,0-.78-1.7-1.44-2.54-2.25-1.22-1.18-2.2-2.68-3.58-3.64a96.67,96.67,0,0,0-8.7-5.36c-.72-.4-2,.25-2.77-.13-2.19-1.1-5-1.23-4.18-5.49,1-5.08.39-10.45.58-15.68.07-1.78.45-3.54.68-5.31,0-.06-.06-.19-.08-.18a4.28,4.28,0,0,1-1,.09c-1.61-.29-3.83-.09-4.67-1.07-1.24-1.44-1.73-3.69-2.11-5.67a13.42,13.42,0,0,1-.13-5.84,7.44,7.44,0,0,1,3.09-4.25c1.07-.59,3.18.95,4.48.52,4.28-1.44,5.11,2,5.37,4.28.4,3.31-.29,6.82-1,10.14-.36,1.64-1.9,3-2.71,4.6-.19.39.57,1.18.63,1.81a67.13,67.13,0,0,0,.54,6.83c.12.63,1.58,1,2.45,1.5A34,34,0,0,1,80,43.82c.54.41.06,2,.55,2.69,1.8,2.63-3,6.06,1.42,8.6,2.45,1.41,4,4.36,6.1,6.45A25,25,0,0,0,92,64.32s.25,0,.33-.14c.56-.57,1.44-1.75,1.61-1.66,1.75,1,4.54,2,4.8,3.38.46,2.43-.7,5.15-1.12,7.77a4.94,4.94,0,0,0,.13,1.87c.74,3.2,1.43,6.42,2.4,9.54.16.52,1.66.61,2.53.91,1.74.6,3.74.84,5.13,1.89a28.66,28.66,0,0,1,5.58,5.69c.77,1,.75,2.7.91,4.1,0,.4-.55.87-.85,1.32a59.66,59.66,0,0,1-3.46,5,24.71,24.71,0,0,1-3.49,2.91c-.11.1-.32.08-.48.11Zm32.24,143.32c-1.54-3.15-2.93-5.68-4-8.33-1.19-2.94-2-6-3.13-9-.25-.66-1.09-1.09-1.6-1.67-.37-.43-.59-1.26-1-1.34-.8-.16-2.4,0-2.43.16-.64,3.76-1.16,7.55-1.58,11.34-.29,2.62-.42,5.25-.56,7.88,0,.5.08,1.28.4,1.48,2.6,1.65,3.56,7,.9,8.6s-.35,2.19,0,3.16c1.29,4.24,2.68,8.45,4,12.69.45,1.47.72,2.88,2.8,1.68.51-.29,1.3-.08,2-.15s1.64,0,1.76-.32c1.33-3.2,2.68-6.28-.2-9.65-1.11-1.3-1.3-3.76-1.21-5.65a33.29,33.29,0,0,1,1.47-7.88C133.67,252.62,134.92,251.77,135.83,250.72Zm-22.77-154-1.62-2.3c-1.31-1.88-2.56-3.82-4-5.61-.29-.35-1.61.14-1.92-.22-2.29-2.64-5-1.65-6.55.13s-2.1,4.69-3.06,7.1c-.33.81-1.09,1.81-.85,2.4,1.28,3.12,2.26,6.72,6.8,6.42,2.16-.14,4.33-.24,6.47-.53.38,0,.61-1,.93-1.51C110.53,100.6,111.8,98.64,113.06,96.69Zm19.18,164.42c.71,5.21,3.11,7.69,9.55,7.42,2.65-.11,4-3.68,3.73-6.68-.3-3.5-1.53-6.92-5.09-8.1a6.43,6.43,0,0,0-5.45,1.47C133.53,256.63,133.1,259.1,132.24,261.11ZM109.18,133.6c-.18-2.24-.23-3.3-.37-4.35-.54-4-3.35-6.6-5.69-5.35-4.76,2.55-5.67,5.2-3.48,10,1.48,3.29,4.33,4,7.26,3.09C108.15,136.61,108.77,134.27,109.18,133.6ZM64,21.57c-.24-.44,0,.21.4.7,1.32,1.58,2.49,3.45,4.17,4.47.6.37,3-1.06,3.66-2.21a8.43,8.43,0,0,0,.31-8.68c-1.76-3.4-4.47-2.47-7-2.61-.47,0-1.33,1.68-1.51,2.68A38.37,38.37,0,0,0,64,21.57Zm62.28,262.78c0,2.23,4.93,6.79,6.65,5.61s3.69-4.29,3.44-6.29c-.23-1.84-3-3.77-5.11-4.83C129.68,278,126.33,282,126.31,284.35Zm-27-215c-.07-4-3-5.57-4.84-5.1-1.63.42-3.18,3.37-3.66,5.46-.69,3,2.66,4.37,4.31,4.21S97.9,71,99.29,69.39Zm-25.39-27c-1.46,3-2.6,5.21-3.54,7.49-.08.22,1,1.1,1.65,1.38a16.22,16.22,0,0,0,2.81.67c.37.08.86.06,1.1.29.66.63.62.68,1.33-.3a1.66,1.66,0,0,0,.25-.34c.64-1.46,2.15-3.36,1.7-4.29C78.38,45.58,76.37,44.51,73.9,42.34Zm41.47,103.13c-3.4,0-4.57,1.95-4.16,6.68.11,1.27,2.21,3.49,3.15,3.37,3.89-.5,3.44-4,3.3-6.69C117.59,147.51,116,146.28,115.37,145.47Zm3.72,80c3.1,1.48,4.79,2.85,6.6,3,3.17.31,3.61-2.79,3.42-4.7-.15-1.45-3-4.06-3.42-3.83C123.64,221,122,222.88,119.09,225.46Zm-3.46-55.83A22.23,22.23,0,0,1,118,172.3c.45.68,0,2,1.71,1,1.9-1.15,4.64-5.14,3.46-6a10.67,10.67,0,0,0-5.18-2C117.35,165.25,116.6,167.73,115.63,169.63Zm4.6,17.5-1.7.17a29.8,29.8,0,0,0-.75,5.65c.06,1.32,1,3.71,1.53,3.72,3.36.06,3.93-3.19,4.42-5.41C124,190.2,121.48,188.53,120.23,187.13ZM123,254.94l1.48-1.57c-1.4-.64-3-2.08-4.16-1.77-3.69,1-3.44,4.49-3.52,7.46,0,.22,2.61,1.06,3,.64A28.81,28.81,0,0,0,123,254.94Z"/><path d="M208.33,69.19c-1.82-.86-4.08-1.41-5.6-2.78-2.54-2.29-2.82.38-3.42,1.4-1.34,2.25-2,4.92-3.5,7a75.54,75.54,0,0,1-6.38,7.28c-.14.15-.56,0-.85.06,0-.37-.19-.87,0-1.11,2.33-3.14,4.86-6.16,7-9.41,1.34-2,2.89-4.29,3.08-6.55.41-5-.48-10.15.16-15.11.32-2.54,3.05-4.69,4.16-7.24.65-1.48.23-3.41.32-5.13.07-1.4.27-2.8.26-4.2,0-2.79-.11-5.58-.25-8.37a12.93,12.93,0,0,0-.51-3.46c-.68-2-1.76-3.92-2.31-6-.31-1.1-.33-2.83.32-3.55,1.76-2,3.58-4.45,6.91-2.55,2.22,1.25,3,5,1.47,7-.75.95-1.29,2.07-1.95,3.09a1,1,0,0,1-.54.45c-1.61.14-1.87,1.68-1.63,3.47.39,2.88.08,5.84.12,8.77,0,3.19.12,6.39.22,9.58,0,.23.35.63.55.63,6.1,0,12.51,6.14,12.25,12.41-.19,4.76-1.7,9.34-5.76,12.46C211.48,68.16,210.1,68.44,208.33,69.19Zm1.54-2.44c.55-.18,2.18-.23,3.06-1.06,2.87-2.75,4.21-5.92,3.24-10.22-1.27-5.56-4.29-9.4-9.52-11-1.62-.5-5.35.77-5.66,1.9a40.09,40.09,0,0,0-1.41,12.47C199.84,63.87,203.27,67.24,209.87,66.75Zm-9-50.61a13.75,13.75,0,0,0,1.69,1.9c.15.12.65-.28,1-.35a11.31,11.31,0,0,1,1.17-.06c.49,0,1.17.13,1.43-.13A5.67,5.67,0,0,0,207.94,15a8.84,8.84,0,0,0-.46-3.86c-.12-.38-1.6-.84-1.79-.64C204,12.27,202.52,14.18,200.88,16.14Z"/><path d="M250.12,72.24c-.4-.57-.82-.9-.81-1.21s.48-.57.75-.86c.33.31.77.56.92.94C251.05,71.28,250.56,71.68,250.12,72.24Z"/></g></svg>