<svg id="Layer_1" data-name="Layer 1" xmlns="http://www.w3.org/2000/svg" viewBox="0 0 300 300"><g id="Squiggs"><path d="M201.51,198.23a14.86,14.86,0,0,0,1-1.47q3.59-7.31,7.13-14.63c.08-.15.12-.32.21-.46l1.06-1.56c.59.67,1.66,1.33,1.67,2,.07,5.3-.08,10.6-.13,15.91a4.94,4.94,0,0,0,.3,1.78,27.54,27.54,0,0,1,1.84,9.36c0,2.56.77,5.12,1.2,7.67,0,.17.18.34.15.48-.2.73-.44,1.44-.66,2.16-.66-.49-1.72-.86-1.92-1.5a15.84,15.84,0,0,0-5.88-7.87,13.65,13.65,0,0,1-4.62-7.07c-.3-1-.8-1.95-1.35-3.25-1.58,3.72-3.26,7-4.41,10.49-2.47,7.46-4.67,15-6.94,22.54-.28.93-.22,2-.48,2.91-.11.39-.65.66-1,1-.22-.39-.45-.77-.63-1.17a1.87,1.87,0,0,1-.15-.66c-.29-8.3-.78-16.61-.81-24.91q-.06-14.76.58-29.52c.2-4.77,1.14-9.5,1.71-14.25.4-3.32.75-6.65,1.11-10l-.44-.11c-3.06,8.95-5.86,18-9.28,26.81s-6,17.9-10.9,26.05c2.23-5.51,4.58-11,6.65-16.54,2.8-7.52,5.43-15.11,8.05-22.71,2-5.95,4-11.95,5.89-17.95a18.33,18.33,0,0,0,.48-3.65,5.58,5.58,0,0,1,0-1.17c.38-1,.36-2.62,1.8-2.35.55.11,1.17,1.87,1.1,2.83-.34,5-.82,9.9-1.4,14.83-.45,3.81-1.2,7.58-1.63,11.4-.25,2.31-.13,4.67-.19,7-.09,3.37-.15,6.75-.29,10.11-.28,6.38-.35,12.78-1,19.13-.44,4.2.38,8.21.63,12.31.15,2.27-.07,4.56-.12,6.85a1,1,0,0,0,.3.81c.78-2.52,1.51-5.05,2.34-7.55,1.85-5.55,3.71-11.1,5.67-16.62.71-2,1.78-3.86,2.52-5.85a2.52,2.52,0,0,0-.39-1.93,39.34,39.34,0,0,0-2.92-3.88,2.27,2.27,0,0,0-1.37-.52c-2-.23-1.42-1.66-1.42-2.83,0-1.37,1.2-1.41,2-1.42,1.16,0,2.28,1.53,1.78,2.42-1,1.7.18,2.76.94,3.92A28.57,28.57,0,0,0,201.51,198.23Zm8.5-14.58c-.53.47-.82.6-.92.82q-3.39,7-6.73,14.06c-.15.32-.37.8-.25,1.06,1.18,2.59,2,5.46,3.76,7.62,1.94,2.44,4.7,4.22,6.9,6.11-.39-2.18-.85-5-1.37-7.73a44.91,44.91,0,0,1-1.2-6.18c-.12-3.58.19-7.17.22-10.75C210.43,187.12,210.18,185.58,210,183.65Z"/><path d="M194.84,70.59c-6.13,11.89-9.15,24.44-12.37,36.92l-.73,0a10.8,10.8,0,0,1-.56-2.09q-.35-6.89-.6-13.78c-.13-3.7-.33-7.41-.28-11.11.13-9.89.23-19.78.64-29.66.2-4.72,1.1-9.41,1.66-14.11.4-3.37.77-6.74,1.16-10.12l-.42-.09c-3.07,9-5.87,18.05-9.28,26.89S168,71.35,163.47,79.69l-.45-.18c.68-1.64,1.39-3.27,2-4.92,2.62-6.71,5.35-13.37,7.8-20.14,3-8.22,5.7-16.52,8.53-24.8.77-2.26,1.6-4.52,2.21-6.83a32.41,32.41,0,0,0,.62-4.63c.15-1.35.25-2.72,2.22-3.36A11.18,11.18,0,0,1,187.2,18c-.16,3.39-.43,6.79-.85,10.16-.52,4.19-1.35,8.35-1.82,12.55-.38,3.36-.46,6.76-.59,10.15-.23,5.77-.39,11.54-.59,17.32,0,.28,0,.56,0,.84-.32,4.28-.89,8.56-.89,12.84s.62,8.8.88,13.2c.11,1.79,0,3.61,0,5.85,1-3.25,1.76-6.15,2.7-9,1.61-4.86,3.26-9.72,5-14.54.84-2.3,2-4.49,2.86-6.79a2.78,2.78,0,0,0-.37-2.09,31.78,31.78,0,0,0-2.8-3.75,2.46,2.46,0,0,0-1.41-.61c-1.38-.23-1.84-1.06-1.45-2.95.27-1.36,1.36-1.36,2.35-1.16a2,2,0,0,1,1.33,2.61,3.71,3.71,0,0,0,.24,2.43,41.76,41.76,0,0,0,3.07,4c.67-1.29,1.28-2.41,1.84-3.55l5.93-12.18a8.36,8.36,0,0,0,.43-.91c.22-.68,0-2,1.15-1.53A3,3,0,0,1,205.85,53c.2,2.82.12,5.67.07,8.5,0,2.52-.19,5-.29,7.56a3.72,3.72,0,0,0,.08,1c.69,2.68,1.57,5.33,2,8,.43,2.41.37,4.91.63,7.36.09.81.69,1.56.75,2.36s-.08,2-.49,2.21c-.88.34-1.76-.16-2.07-1.3-1-3.63-3.44-6.17-6.31-8.42a12.45,12.45,0,0,1-3.85-5.77C196,73.28,195.45,72.08,194.84,70.59Zm8.67-16.15-.49-.07c-.11.11-.27.2-.33.33q-3.6,7.3-7.18,14.61c-.12.24-.27.58-.18.76,1.2,2.58,2,5.46,3.76,7.62,2,2.45,4.75,4.26,6.92,6.13-.32-1.84-.75-4.38-1.18-6.92a59.81,59.81,0,0,1-1.26-7.69C203.37,64.29,203.51,59.36,203.51,54.44Z"/><path d="M98.32,193c-1.08,2.43-2.37,4.79-3.2,7.31-2.77,8.35-5.39,16.75-8,25.15-.26.82-.08,1.76-.33,2.58-.14.46-.73.78-1.12,1.16a4.23,4.23,0,0,1-.68-1.29c-.1-1,0-1.92,0-2.87-.33-5.07-.79-10.14-1-15.21-.12-3,.15-6,.28-9,.09-2.18.35-4.36.37-6.54.05-5.8.09-11.61,0-17.41-.1-6.13.91-12.13,1.75-18.16a78.5,78.5,0,0,0,.77-10.2c-3.09,9-5.94,18-9.31,26.86s-6.06,17.92-10.55,26.27l-.46-.19c.66-1.61,1.35-3.21,2-4.83,2-5.2,3.86-10.49,6.09-15.6,4.32-9.89,7.18-20.27,10.68-30.44,1.21-3.53,2.55-7,2.5-10.88,0-1,.2-2.83,1.72-2.55,1.32.23,1.25,1.83,1.1,3.08-.19,1.61-.3,3.22-.46,4.83-.44,4.29-.83,8.57-1.34,12.85s-1.33,8.46-1.65,12.72c-.28,3.72.06,7.49-.09,11.22-.29,7.29-.86,14.56-1.07,21.84-.1,3.57.41,7.16.56,10.75.1,2.34,0,4.68.05,7a1.5,1.5,0,0,0,.32,1.09c1.27-4.34,2.41-8.73,3.86-13a123.08,123.08,0,0,1,5.28-13.73c1.47-3.06,2-5.4-.88-7.84-.93-.79-1.17-2.47-3-1.77a13.93,13.93,0,0,1-.67-3.25c0-.41,1.11-1.14,1.69-1.13,1.12,0,2.34.86,1.88,2-1.1,2.77,1,4.05,2.22,5.79.28.4.63.75,1.1,1.31,2.25-4.65,4.44-9.12,6.58-13.62.63-1.33,1-2.78,1.7-4.09.34-.66,1-.91,1.76-.18,1.22,1.15,1,2.62,1,3.95.09,3.26,0,6.53-.08,9.79a27,27,0,0,0,.93,8.45c.83,2.73.82,5.72,1.25,8.58.31,2,.79,4,1,6,.09.68-.06,1.85-.46,2a1.31,1.31,0,0,1-1.94-1.12c0-.11-.11-.2-.14-.31a14.79,14.79,0,0,0-5.78-7.76c-2.45-1.75-3.57-4.37-4.7-7-.38-.87-.71-1.76-1.07-2.64Zm11.16,13.46.39,0c-.5-2.9-1-5.81-1.5-8.71a42.2,42.2,0,0,1-1.05-6c-.1-3.58.22-7.17.22-10.75a39.75,39.75,0,0,0-.55-4.71c-2.79,5-5.25,10-7.7,15a1.26,1.26,0,0,0-.07.95c1.12,2.48,2,5.19,3.54,7.35C104.66,202,107.21,204.11,109.48,206.41Z"/><path d="M81.67,91.27c.81-3,1.48-6,2.46-9,1.64-5,3.43-9.9,5.25-14.81.83-2.25,1.83-4.44,2.86-6.61.68-1.41-.51-2-1-2.89S90,56.63,89.57,55.86s-.8-1.94-2.2-1.34a.84.84,0,0,1-.74-.26,3,3,0,0,1-.16-3.44c.52-1,1.63-.84,2.52-.37,1.08.59.91,1.54.79,2.61a4.64,4.64,0,0,0,.56,2.74,27.61,27.61,0,0,0,2.81,3.39c.58-1.11,1.09-2.08,1.58-3.06Q98,49.56,101.31,43a.93.93,0,0,0,.13-.31c.09-.73-.13-1.94,1.06-1.55a2.84,2.84,0,0,1,1.63,2c0,5.27-.14,10.54-.22,15.81a3.5,3.5,0,0,0,.25,1.62c1.39,2.78,1.63,5.77,1.86,8.79s0,6,1.35,8.84c.25.52-.34,1.43-.53,2.17-.65-.41-1.72-.69-1.87-1.23A15.28,15.28,0,0,0,99,71c-2.46-1.8-3.48-4.43-4.64-7-.39-.9-.8-1.79-1.37-3.06-1.55,3.63-3.16,6.76-4.26,10.07-2.3,6.92-4.35,13.93-6.45,20.92-.4,1.34-.44,2.78-.81,4.13a6.34,6.34,0,0,1-1.18,1.68,6.24,6.24,0,0,1-.74-1.77c-.26-4.63-.13-9.32-.76-13.91-.54-4-.24-7.9-.2-11.84.11-9.82.31-19.65.67-29.47.14-3.78.82-7.54,1.27-11.31.5-4.23,1-8.45,1.29-12.73-6,18-12.25,36-19.84,53.36l-.68-.26c.82-1.88,1.71-3.74,2.45-5.65,1.73-4.48,3.38-9,5.09-13.48.81-2.13,1.76-4.22,2.55-6.37,1.49-4,3-8,4.36-12.08,2-5.82,3.86-11.65,5.65-17.52a52.82,52.82,0,0,0,1.17-6.19c0-.28-.07-.63.06-.83.51-.78,1.08-1.52,1.63-2.27.45.93,1.31,1.88,1.27,2.79-.14,3.5-.46,7-.9,10.47-.55,4.32-1.43,8.59-1.91,12.9-.36,3.32-.31,6.67-.48,10,0,.94-.27,1.87-.29,2.81,0,2.54.1,5.08,0,7.61-.35,6.7-.86,13.39-1.19,20.1-.1,2.23.19,4.47.26,6.71.12,3.83.21,7.67.31,11.5,0,.34,0,.67,0,1Zm19.84-46.64h-.39c-2.47,5-5,10-7.37,15a2.31,2.31,0,0,0,.09,1.41c1.59,6,6,9.92,10.53,14-.36-2.38-.63-4.64-1.07-6.87-.6-3.06-1.76-6-1.53-9.22s.27-6.73.26-10.09A34.39,34.39,0,0,0,101.51,44.63Z"/><path d="M136.88,136.82l4,2.09.81-1.37a2.41,2.41,0,0,0-1.24-3.34,39.88,39.88,0,0,1-3.75-2.36c-2.19-1.42-4.35-2.87-6.57-4.23-.28-.17-.85.19-1.23.11s-1.15-.33-1.31-.69.3-.91.6-1.29a1.13,1.13,0,0,1,.89-.4c3.38.55,6.48-.59,9.65-1.42a14,14,0,0,1,2.83-.3c1.18,0,2.3-.05,3-1.25.12-.21.75-.12,1.2-.17,0-.83-.37-2.06.09-2.61a5.1,5.1,0,0,1,3-1.68c.71-.09,1.71.81,2.28,1.51a3.66,3.66,0,0,1,.37,2.1c0,1.25-.44,2.24-2,2.08-1.26-.13-1.76.46-2.1,1.61a60,60,0,0,1-2.42,6.94,1.41,1.41,0,0,0,.92,2.06c2.38.31,3.35,2.38,4.92,3.65a22.5,22.5,0,0,1,3.37,3.39,12,12,0,0,1,1.78,3.31c.19.49-.13,1.69-.36,1.72a3,3,0,0,1-2.3-.3c-1.24-1.15-2.1-2.7-3.33-3.87-2.1-2-4.37-3.8-6.63-5.74-1.65,2.86-1.44,3.57.72,5.16,1.31,1,2.43,2.2,3.67,3.27,1.76,1.52,3.62,2.93,5.3,4.53a6.89,6.89,0,0,1,1.75,2.7c.14.42-.81,1.7-1,1.65-1.31-.4-3-.69-3.73-1.65a20.19,20.19,0,0,0-6.34-5.65,13.2,13.2,0,0,1-2.7-2.64c-.23-.22-.43-.47-.77-.85-2.71,4.71-5.33,9.28-6.49,14.45.12.19.16.3.25.36.75.56,2.33.74,1.78,2a8,8,0,0,1-2.61,2.58c-.19.14-1.1-.23-1.3-.59a3.09,3.09,0,0,1,.14-4,11.39,11.39,0,0,0,1.93-7.48c-.11-2.78.75-5.3,1.38-7.91.33-1.36.31-2.8.61-4.17A4.13,4.13,0,0,1,136.88,136.82Zm-4.06-10.63.09.44,10.82,6.59c1.15-3.33,2.13-6.14,3.16-9.14a12.53,12.53,0,0,1-4.24.64C139.39,124.63,136.1,125.63,132.82,126.19Zm4.25,13.56-2.21,10.33.48.14c1.36-2.6,2.71-5.2,4-7.7Z"/><path d="M69.77,239.06q-2,11.82-4,23.63c-1.86-2.22-2.82-37.47-1.69-41.78.55.5,1.16,1.1,1.82,1.65a12.09,12.09,0,0,1,3.85,5.56,2.33,2.33,0,0,0,.85,1.24c1.27-4.72,2.53-9.44,3.88-14.44l-11.91-2.59a9.06,9.06,0,0,1,2.35-.26c2.67.48,5.3,1.13,8,1.62a10.49,10.49,0,0,0,2.12-.23,15,15,0,0,1,1.76.11,9.36,9.36,0,0,1-.36,1.52c-.19.45-.7.78-.81,1.23-1.29,4.83-2.41,9.7-3.82,14.49-.73,2.48.42,4.44,1.1,6.57q2.09,6.51,4.18,13a6.78,6.78,0,0,0,.39,1.28c1,1.7,2,3.39,3.08,5.17,1.65-.31,2.38.28,2.33,2.3a6.14,6.14,0,0,1-.47,2.42,3.15,3.15,0,0,1-4,1.79c-.94-.4-1.56-2.56-.93-4.09a1.75,1.75,0,0,0-.34-2.08c-2.27-2.77-2.9-6.23-4-9.51-.94-2.9-2-5.77-3-8.65ZM65.26,256.2c.36-1.62.77-3.23,1.06-4.86.83-4.66,1.61-9.32,2.39-14a3.57,3.57,0,0,0,0-1.59q-.8-2.66-1.78-5.24c-.62-1.65-1.36-3.26-2-4.89A172.21,172.21,0,0,0,65.26,256.2Z"/><path d="M170.67,93l-11.62-2.44v-.41a48.94,48.94,0,0,1,5.29.35c1.69.27,3.32.94,5,1.31a8.29,8.29,0,0,0,1.82-.17,17.56,17.56,0,0,1,1.77.13c-.16.51-.29,1-.48,1.51a15.31,15.31,0,0,0-.74,1.6c-.55,2.15-1,4.32-1.55,6.45-.65,2.48-1.29,5-2.13,7.39-.74,2.17.07,4,.72,6,1.51,4.55,3,9.12,4.46,13.66a18.1,18.1,0,0,0,1.15,2.34l2.21,4.34c2.14-.3,2.72.47,2.4,3.44a3.47,3.47,0,0,1-3,3.17c-1.57.2-2.48-.55-2.44-2.15,0-.92.25-1.84.36-2.76a1,1,0,0,0-.09-.73c-2.94-3.31-3.63-7.58-5-11.58a66.68,66.68,0,0,0-2.74-7.06c-1.4,7.83-2.61,15.65-4.35,23.35l-.63-.06c0-.51-.06-1-.11-1.53l-1.17-10.78a15.43,15.43,0,0,1-.1-1.67c0-6,0-12,0-18,0-3.16.19-6.32.31-9.48a4.45,4.45,0,0,1,.39-1c.16,1,.24,1.5.31,1.92,3.59,1.3,4.49,4.58,5.86,8.06C168.05,102.85,169.34,98,170.67,93Zm-9.5,10.35-.34.1c-.15,2.77-.44,5.55-.44,8.32,0,4.31.2,8.63.3,12.94,0,1.57-.08,3.15,0,4.72s.4,3.35.61,5a5.81,5.81,0,0,0,.62-2q1.23-7.49,2.45-15c.21-1.24.87-2.61.55-3.69C163.87,110.29,162.45,106.85,161.17,103.37Z"/><path d="M172.69,246.85l-4,23.38c-2.18-3-2.79-39.24-1.6-41.92a13.25,13.25,0,0,0,1.75,1.77,11.52,11.52,0,0,1,3.76,5.43c.22.57.43,1.14.79,2.09,1.4-5.3,2.7-10.22,4-15.26l-12-2.42a5.22,5.22,0,0,1,1.64-.38c2.69.43,5.38.93,8.05,1.44,1,.21,2,.85,3.11-.06.24-.2,1.05.27,1.59.43a9.1,9.1,0,0,1-.41,1.28,12.8,12.8,0,0,0-1,1.83c-.77,2.71-1.46,5.45-2.17,8.18a61.33,61.33,0,0,0-1.77,7.47c-.16,1.28.56,2.69,1,4q2.22,6.91,4.53,13.81a19.3,19.3,0,0,0,1.28,2.47c.67,1.33,1.33,2.68,2.06,4.16,1.06-.29,2.2-.38,2.4,1.35.3,2.52-.58,4.64-2.25,4.83-.93.11-2.62,0-2.75-.42a24.53,24.53,0,0,1-.44-5.14c-2.58-2.69-3.26-7.09-4.66-11.19-.82-2.41-1.68-4.8-2.53-7.2ZM168,263.42l.31,0c.1-.43.23-.86.29-1.3.74-4.66,1.41-9.33,2.21-14,.4-2.28,1.45-4.45.3-6.83-.69-1.44-1.1-3-1.69-4.53s-1.14-2.69-1.85-4.33c-.17,3.23-.45,6.08-.45,8.93,0,4.81.19,9.63.29,14.45,0,1.07-.06,2.14,0,3.2C167.58,260.49,167.82,262,168,263.42Z"/><path d="M74.8,125.3c2-.3,2.48.16,2.49,2.39,0,2.9-1.56,4.61-4,4.16-.55-.1-1.35-.68-1.41-1.12a26,26,0,0,1,.07-3.52,2.21,2.21,0,0,0-.32-1.31c-2.34-2.88-3.06-6.41-4.13-9.82-.87-2.76-1.9-5.47-2.85-8.2h-.5l-4,23.25h-.74c-.17-1.85-.31-3.7-.51-5.55-.21-2-.58-4.09-.69-6.15s.08-4,0-6-.18-4-.22-6.06-.05-4,0-6.08.21-4.15.26-6.22a34.68,34.68,0,0,1,.4-6l.3,1.33c3.43,1.44,4.56,4.54,5.84,8.07l4-15.17L57.29,80.86l0-.19a33.49,33.49,0,0,1,4.37,0,34.84,34.84,0,0,1,5,1.18c1.13.33,2.19.92,3.22-.26.14-.15.87,0,1.18.26s.39.92.29,1c-1.9,1.29-1.23,3.48-1.81,5.2-1.25,3.68-2,7.54-3.27,11.21-.78,2.24.21,4,.8,5.89,1.43,4.63,2.93,9.24,4.43,13.84a11.66,11.66,0,0,0,.85,1.74ZM59.4,93.8l-.31.13c-.14,2.07-.34,4.13-.42,6.19s-.06,4.16,0,6.24.23,4.25.28,6.37-.07,4.11,0,6.15.35,3.93.54,5.89a12.91,12.91,0,0,0,1-3.44c.63-4.13.8-8.37,1.92-12.36a13.45,13.45,0,0,0-.74-9.33C60.9,97.71,60.17,95.75,59.4,93.8Z"/><path d="M160.61,44.54,168.29,35c1.71-2.12,3.42-4.24,5.11-6.37.2-.25.46-.62.4-.87-.5-2.11.83-3.28,2.18-4.44,2.56,1.1,2.66,3,2.11,4.78-.39,1.26-1.33,1.66-2.3,1s-1.64-.22-2.06.49a45.48,45.48,0,0,1-8,9.77c-4.62,4.41-6.7,10-7.44,16.2-.3,2.49-.85,5-1.36,7.42-.06.28-.6.46-.93.68-.08-.38-.31-.8-.22-1.14,1.13-4.68,2.3-9.34,3.46-14l-.64-.36c-2.87,3.49-5.56,7.14-8.64,10.43s-4.7,7.7-8.59,10.19l-.54-.18a20.06,20.06,0,0,1,.47-2.91A61.53,61.53,0,0,1,147,52.88a48.71,48.71,0,0,0,5.64-12.66c.52-2,2.08-3.79,3.31-5.58,1.88-2.73,3.85-5.42,5.88-8a3.31,3.31,0,0,1,1.92-.86c.22,0,.91.81.83.94-1.52,2.68-.87,5.64-1.22,8.47a14.52,14.52,0,0,1-.71,2.24C162,39.67,161.32,42,160.61,44.54Zm2-15.78a6.6,6.6,0,0,0-1,.9c-1.64,2.38-3.28,4.76-4.87,7.18a7,7,0,0,0-1.17,2.36c-1,5-3.58,9.35-6.31,13.59a31,31,0,0,0-2,3.24c-.71,1.48-1.25,3-1.86,4.58-.49,1.23-1,2.45-1.46,3.67a34.46,34.46,0,0,0,4.22-4.45c3.36-4,6.76-8,10-12.1a12.66,12.66,0,0,0,1.85-3.8c.7-2,1.14-4.17,1.82-6.22C162.79,34.89,162.77,32,162.66,28.76Z"/><path d="M162.52,193q1.64-7.6,3.28-15.22l-.44-.28c-2.89,3.49-5.64,7.12-8.71,10.44s-4.82,7.69-9,10.61a13.69,13.69,0,0,1,1.52-6.85c1.7-3.64,3.76-7.1,5.44-10.74s3-7.39,4.56-11.09a15.6,15.6,0,0,1,1.15-2.36c2-3.09,4-6.2,6.13-9.2a20.21,20.21,0,0,1,3.14-3.13c.26-.23,1-.38,1.15-.21a1.49,1.49,0,0,1,.45,1.26c-1.39,2.86-.65,6-1.1,8.88a42.36,42.36,0,0,1-2,6.31c-.23.73-.4,1.48-.69,2.55,2.63-3.35,5-6.44,7.46-9.44,1.12-1.37,2.54-2.5,3.64-3.88s2.3-2.56,1.89-4.53a1.77,1.77,0,0,1,.46-1.23c.66-.77,1.41-1.46,2.12-2.18.68.79,1.71,1.48,1.94,2.38a5,5,0,0,1-.52,3.14c-.14.29-1.53-.1-2.33,0a2.16,2.16,0,0,0-1.48.63,54.29,54.29,0,0,1-7.92,9.61,24,24,0,0,0-7.37,15c-.3,3-1,5.9-1.6,8.83-.07.35-.5.64-.76,1Zm-12.11,1.09.33.15,3.89-4.75c3.16-3.88,6.33-7.73,9.46-11.63a14.63,14.63,0,0,0,2.55-3.78,45.62,45.62,0,0,0,2-7.38c.5-2.7.72-5.46,1.06-8.19l-.62-.22a11.19,11.19,0,0,0-1.12,1.27c-.38.59-.59,1.29-1,1.87-1.15,1.66-2.26,3.36-3.56,4.9s-1,3.49-1.66,5.14a52.3,52.3,0,0,1-4.21,8.68c-1.54,2.44-3.34,4.66-4.28,7.48C152.49,189.88,151.36,192,150.41,194.12Z"/><path d="M62.54,169.74c-1.68,2.08-3.37,4.14-5,6.22-2.9,3.61-5.92,7.15-8.66,10.87-1.83,2.49-1.66,2.62-4.1,3.66a13.75,13.75,0,0,1,1.45-6.43c1.62-3.41,3.64-6.65,5.14-10.11,1.71-3.93,4.33-7.49,4.91-11.9a2.66,2.66,0,0,1,.53-1c2.28-3.56,4.48-7.18,6.91-10.64a14.29,14.29,0,0,1,3.41-2.82,1.1,1.1,0,0,1,1,.16c.18.17.08.68,0,1a30.11,30.11,0,0,0-.85,5.08A17.16,17.16,0,0,1,66,160.66,22.9,22.9,0,0,0,64.74,166c1.41-1.82,2.75-3.7,4.25-5.45,2-2.34,4.16-4.55,6.19-6.88a27.6,27.6,0,0,0,2.2-3.14c.16-.24,0-.66.09-1a26.31,26.31,0,0,1,1.34-3.6c.17-.33,1.26-.64,1.41-.48.75.83,1.72,1.75,1.87,2.75s-.65,2-1.18,2.87a1.41,1.41,0,0,1-1.29-.06c-1-1-1.7-.38-2.14.43-2.52,4.72-6.64,8.1-10,12.08a19.59,19.59,0,0,0-4.51,9.33c-.72,4-1.54,7.94-2.36,11.9-.07.32-.51.55-.78.83-.16-.35-.55-.86-.44-1,2-2.65,1.44-5.92,2.29-8.84.55-1.9.79-3.88,1.16-5.82Zm-15.1,16.82.52.25a20.28,20.28,0,0,1,1.35-2.06q6.25-7.51,12.56-15A9.24,9.24,0,0,0,64,165.36c.52-2.82,1.62-5.52,2.18-8.34a44.27,44.27,0,0,0,.43-6.11l-.47-.21a12.09,12.09,0,0,0-1.24,1.35c-1.45,2.12-2.82,4.3-4.29,6.41a8.25,8.25,0,0,0-1.72,5.09,3.08,3.08,0,0,1-.42,1.26c-2.33,5.31-6,9.92-8.11,15.34C49.53,182.34,48.43,184.42,47.44,186.56Z"/><path d="M99.47,153.14l14-14.14c-.5-1.91.89-3.4,3-3.06.87.14,2.18,2.35,1.66,3.53-1,2.17.07,4,.57,5.87a22.65,22.65,0,0,0,1.06,2.73l.45-.06,1.37-21.53c-.78.34-1.54.43-1.74.81a9.77,9.77,0,0,1-3.8,4.45c-2,1.14-3.46,3.19-5.3,4.66-2.46,2-5.07,3.72-7.58,5.62-1,.74-1.81,1.64-2.73,2.45-.23.2-.53.5-.78.48-1-.07-2.44-2.53-2.2-3.53.76-3.14,1.4-6.3,2.22-9.41a54.61,54.61,0,0,1,2.45-7.17,69.22,69.22,0,0,1-3,16.61c1.8-.33,3.06-.54,4.09-1.91s2.54-2.22,3.81-3.35c1.81-1.61,3.59-3.26,5.38-4.89.11-.11.14-.37.27-.42,3-1.08,4.26-4.12,6.75-5.75.13-.08.31-.21.31-.33,0-.94.56-1.55,1.37-1a3.14,3.14,0,0,1,1.27,2c.22,2.49-.18,5,.32,7.53.36,1.76-.43,3.72-.56,5.6-.23,3.42-.35,6.85-.56,10.27a4,4,0,0,1-.52,1.22c-.37-.24-.93-.4-1.09-.74-.91-1.92-1.72-3.89-2.58-5.84a8.28,8.28,0,0,0-.9-1.72c-1.3-1.71-1.48-1.68-3-.33-1.83,1.67-3.75,3.24-5.55,4.94-2.08,2-4,4-6.15,6a6.71,6.71,0,0,1-2,.86Z"/><path d="M54,54l3.3-15.22-.51-.31c-2.83,3.47-5.5,7.1-8.54,10.37s-4.69,7.67-9,10.36a11.45,11.45,0,0,1,0-2.14A48.32,48.32,0,0,1,44.77,44c2.49-4.29,4.95-8.61,6-13.55a10.33,10.33,0,0,1,1.71-2.85c1.93-3,3.8-6.11,5.88-9A11.46,11.46,0,0,1,61.47,16c.27-.18.82.05,1.24.09a11.33,11.33,0,0,1-.15,1.17c-.27,1.19-.93,2.41-.79,3.54.52,4.08-1.15,7.68-2.2,11.41-.21.73-.41,1.47-.7,2.52,1.29-1.55,2.34-2.84,3.42-4.1,2.41-2.81,4.88-5.58,7.24-8.43a27.72,27.72,0,0,0,2.27-3.51c.14-.22,0-.61.1-.87a24.76,24.76,0,0,1,1.54-3.54A1.71,1.71,0,0,1,75,14.09c.69.92,1.58,2,1.63,3,.11,2.24-.89,2.69-3,2a1.86,1.86,0,0,0-1.59.8c-2.61,4.8-6.85,8.22-10.26,12.33a18.3,18.3,0,0,0-4.22,8.58c-.71,4-1.55,8.06-2.39,12.08a4.35,4.35,0,0,1-.79,1.23Zm7.11-34.61-.44-.19a5.34,5.34,0,0,0-.84.8c-1.65,2.43-3.3,4.85-4.88,7.32a7.22,7.22,0,0,0-1.37,3,9,9,0,0,1-1.24,4.08c-1.76,3-3.41,6-5.09,9-.65,1.15-1.29,2.31-1.85,3.5s-1,2.56-1.55,3.82-1.14,2.66-1.72,4a33,33,0,0,0,4.23-4.42c3.28-3.94,6.58-7.86,9.78-11.86a11.66,11.66,0,0,0,2.07-3.68,85.34,85.34,0,0,0,2.44-9.13A48.27,48.27,0,0,0,61.13,19.35Z"/><path d="M230,289.25c-1.44,1.05-1.8-.61-2.22-1.43a29,29,0,0,1-1.78-4.65,4.94,4.94,0,0,0-3.11-3.46c-2.62,2.56-5.25,5.14-7.89,7.7-1.52,1.47-3,3-4.62,4.36a10.73,10.73,0,0,1-2.1,1.11l-.41-.6L222,278.18c-.52-1.83.65-3.27,2.77-3.17,1.12.05,2.36,1.76,1.81,3.44-.89,2.76.46,4.94,1.19,7.31a7,7,0,0,0,.41.88h.48q.71-10.29,1.42-20.57l-.44-.42a9.84,9.84,0,0,0-1.51,1.12,5.12,5.12,0,0,0-.82,1.42c-1,2.33-3.5,3.13-5.18,4.78a86.2,86.2,0,0,1-6.69,5.66c-1.12.9-2.38,1.59-3.55,2.43-.87.62-1.7,1.33-2.54,2-.5.39-.81,1.37-1.68.48s-2.06-1.32-1.63-2.93c.79-2.95,1.42-5.93,2.15-8.89a68.24,68.24,0,0,1,2.35-7.79,66.71,66.71,0,0,1-3,16.84c1.82-.46,3.14-.71,4.26-2.16s3.05-2.6,4.61-3.87c.5-.42,1-.85,1.48-1.28,1.87-1.63,3.77-3.22,5.59-4.91,1.09-1,2.05-2.16,3.05-3.26.69-.75,1.32-1.56,2-2.27a1.31,1.31,0,0,1,2.1.86c.12,2-.2,4.12.2,6.07.47,2.32.06,4.5-.16,6.74-.26,2.59-.5,5.18-.66,7.78C229.93,285.94,230,287.43,230,289.25Z"/><path d="M201.19,162.93l14.07-14.24a2.37,2.37,0,0,1,3-3c1,.19,2.1,2.39,1.59,3.69-1,2.43.21,4.41,1,6.5.18.46.38.91.58,1.36l.51,0c.46-6.88.92-13.75,1.4-21.05-.77.31-1.48.36-1.72.73-1.09,1.7-1.74,3.52-3.87,4.6s-3.48,3.15-5.3,4.65-3.83,2.79-5.73,4.2c-1.41,1-2.83,2.07-4.15,3.21-.6.51-.85,1.56-1.87.53-.89-.87-1.74-1.61-1.33-3.13.78-2.83,1.33-5.73,2-8.58a68.1,68.1,0,0,1,2.44-8,67.51,67.51,0,0,1-3.08,17,12.43,12.43,0,0,0,3.2-1.1,28.15,28.15,0,0,0,3.2-3.08c.31-.3.56-.73.92-.9,2.84-1.23,4.32-3.94,6.49-5.88a4.5,4.5,0,0,1,1.09-.77,6.08,6.08,0,0,0,3.31-2.86,14.51,14.51,0,0,1,2.89-3.25c.58-.56,1.87,0,2,1a18.69,18.69,0,0,1,.22,2.9c.06,2.51.21,5,.1,7.53-.23,4.69-.6,9.37-.95,14.05a4.56,4.56,0,0,1-.58,1.33l-.73,0q-1.18-2.85-2.36-5.72c-.63-1.52-.87-3.31-2.71-4-.35-.13-1-.2-1.15,0-2.64,2.5-5.22,5.06-7.81,7.61-1.55,1.54-3,3.15-4.65,4.61-.41.37-1.25.26-1.89.38Z"/><path d="M105.15,284.85c0-.23,0-.46.12-.55,2.24-2.16,4.51-4.31,6.76-6.46.85-.82,1.71-1.63,2.52-2.49,1-1.05,1.85-2.21,2.89-3.2.87-.82,2-1.35,1.34-2.93-.08-.18,1-1.12,1.6-1.26.82-.18,2.14-.24,2.52.24a3.47,3.47,0,0,1,.76,2.93c-1,2.22.17,4,.65,5.94a17.7,17.7,0,0,0,.84,2.15l.56,0,1.42-20.54c-.82-.58-1.39-.48-1.86.45s-1.1,1.93-1.67,2.88c-.14.24-.26.57-.48.67-3.56,1.67-5.82,5-8.94,7.17-1.75,1.24-3.56,2.41-5.29,3.69A18.73,18.73,0,0,0,106,276c-.56.63-.8.67-1.44.12-1.34-1.14-1.85-2.12-1.11-4.07,1-2.67,1.26-5.62,1.89-8.44.36-1.58.82-3.15,1.27-4.71.26-.91.59-1.79,1.05-3.15.54,3.33-.62,6-1.08,8.75s-1.08,5.54-1.67,8.44a5,5,0,0,0,3.62-1.57c1.24-1.3,2.68-2.41,4-3.63,1.83-1.66,3.46-3.63,5.51-5,2.6-1.69,4.45-4.09,6.7-6.09.18-.16.3-.4.48-.55.37-.32.85-.91,1.14-.83a1.89,1.89,0,0,1,1.26,1.06,17.54,17.54,0,0,1,.33,3.76c0,3.42-.16,6.85-.3,10.27s-.33,6.76-.54,10.14a6.24,6.24,0,0,1-.5,1.45c-.41-.28-1-.47-1.2-.85-.93-2-1.74-4.05-2.61-6.07a8.53,8.53,0,0,0-.83-1.62c-.92-1.34-1.77-1.3-2.92-.19-1.82,1.75-3.8,3.34-5.62,5.1-1.63,1.56-3,3.35-4.72,4.84C107.78,284.05,107,285.57,105.15,284.85Z"/><path d="M212.43,130.56c-2.12-.34-2.19-.59-1.13-4.19-3.15.52-6.27.81-9.27,1.59-2.6.69-5-.12-7.5-.22a71.69,71.69,0,0,0-7.18.14c-.45,0-.86.63-1.3,1-1.38-2.08-1.18-2.38,1.09-2.84.74-.14,1.39-1,2-1.66,3.58-4.14,7.14-8.29,9.83-13.11,1.31-2.36,1.31-2.7-.55-4.78-1.63-1.82-3-3.84-4.59-5.74a2.26,2.26,0,0,0-1.22-.88,1.41,1.41,0,0,1-1.29-2.06c.33-.79,1.31-1.3,2-1.94.36.66.75,1.3,1.1,2s.65,1.33,1.13,2.31l-.91.67,6.18,7.34c3.28-1.57,4.1-4.85,5.4-7.77.7-1.57,1.23-3.22,2-4.72a4.08,4.08,0,0,1,2.2-1.45c-1.61,6.91-3.23,13.81-4.89,20.91l-.73,0L201,109.93c-4.05,5.44-8.07,10.84-12.2,16.37a25.25,25.25,0,0,0,2.53.36,77.79,77.79,0,0,0,8.21.24c3.79-.21,7.57-.7,11.33-1.23a2.71,2.71,0,0,0,1.61-1.56c3.22-7.91,6.29-15.89,9.57-23.78a74.44,74.44,0,0,1,4-7.52c.18-.32.68-.47,1.31-.48-2.56,5.44-5.68,10.51-7.55,16.24s-4.35,11.08-6.63,16.76a4.77,4.77,0,0,1,1.34.18c.42.2,1,.52,1.08.9s-.44,1-.75,1.06C213,127.69,212.84,129.14,212.43,130.56Zm-5.55-28.85-.41-.06a19.43,19.43,0,0,1-.86,1.78c-.81,1.36-1.39,3.09-2.58,4-2.25,1.65-1.84,1.45-.5,3.54.32.51.59,1,.88,1.57l.74-.43Z"/><path d="M207,238.19c-1.83-2.25-3.66-4.54-5.56-6.78-.79-.94-1.09-2.47-2.86-2.38a3.09,3.09,0,0,1-.55-2.14c.25-.67,1.2-1.08,1.85-1.6a12.94,12.94,0,0,1,1.26,1.61,5.5,5.5,0,0,1,.7,1.87,5.65,5.65,0,0,1-.33,1.7l6,7.13c3.12-1.58,4.12-4.7,5.36-7.66.68-1.62,1.25-3.3,2.08-4.84.4-.73,1.31-1.17,2.33-2-1.72,7.35-3.34,14.31-5,21.4-.7.17-1.1,0-1.6-1a21.94,21.94,0,0,0-3-4.06L195.6,255.62a12.6,12.6,0,0,0,2.19.45,98.29,98.29,0,0,0,10,.27,77.84,77.84,0,0,0,9.93-1.42c.61-.11,1.29-1,1.55-1.64,2.51-6.39,4.79-12.87,7.43-19.21,1.37-3.28,3.34-6.31,5-9.46.37-.69.58-1.47,1-2.13a1.48,1.48,0,0,1,1.24-.68c-2.46,5.41-5,10.78-7.36,16.26s-4.4,11.05-6.64,16.73a4.8,4.8,0,0,1,1.35.18,6.44,6.44,0,0,1,1.21.9c-.36.36-.71,1-1.08,1-1.38,0-1.43,1.26-2,2-.32.39-.59.8-.88,1.2-.42-.65-1.09-1.28-1.17-2s.47-1.4.83-2.35c-1.86.27-3.49.47-5.12.75-2.46.44-4.89,1-7.36,1.34-1,.13-2.15-.4-3.24-.46-1.92-.08-3.84,0-5.77,0-.94,0-1.88,0-3.06,0l-1,1.27a8.14,8.14,0,0,1-.6-2.6c0-.28,1.22-.34,1.81-.65a5.76,5.76,0,0,0,1.71-1.25c4.05-4.63,8-9.33,10.86-14.84C206.57,238.94,206.78,238.61,207,238.19Zm3.31,3.47.57-.07,2.64-10.48-.43-.16a12.19,12.19,0,0,1-5.24,7.33Z"/><path d="M111.52,115.59c.32.09.48.11.62.17l1.85.88a14.48,14.48,0,0,0-1.47,1.2c-.57.59-1,1.25-1.56,1.89-.32.41-.61.84-.92,1.26a8.07,8.07,0,0,1-1.17-2c-.12-.51.35-1.15.66-2-1.77.19-3.39.29-5,.54-2.41.37-4.8,1-7.22,1.2-1.5.1-3-.66-4.58-.72-2.4-.08-4.81.07-7.21.23-.4,0-.78.57-1.17.87-1.38-1.94-1.21-2.39.94-2.72a1.55,1.55,0,0,0,.85-.38c4.38-4.88,8.63-9.83,11.74-15.67.84-1.57-.28-2.3-.93-3.16-1.24-1.66-2.69-3.15-4-4.73-.28-.33-.38-.83-.68-1.12a4.1,4.1,0,0,0-1.7-1.2,1.35,1.35,0,0,1-1.19-1.82,3.76,3.76,0,0,1,2.13-1.87c.91-.22,1.36.64,1.21,1.69-.06.41.28.87.39,1.32s.18,1,.27,1.43l-.51.24L99,98.51c1.44-1.08,3-2,3.77-3.91,1.15-2.89,2.46-5.73,3.79-8.55a11.89,11.89,0,0,1,1.62-2l.52.38c-.38,1.8-.7,3.61-1.14,5.39-.93,3.7-2,7.36-2.86,11.06-.3,1.24-.26,2.55-.48,3.81a1.17,1.17,0,0,1-.76.82c-.32,0-1-.42-1-.57.23-1.37-.93-1.78-1.6-2.53s-1.17-1.47-1.63-2.06L87,116.6c.94.11,1.84.28,2.75.32a74.55,74.55,0,0,0,7.9.25c3.9-.23,7.78-.7,11.64-1.26.62-.09,1.29-1.15,1.58-1.9,2.48-6.35,4.72-12.79,7.35-19.07,1.47-3.49,3.55-6.72,5.34-10.07.45-.83.88-1.68,1.32-2.53l.68.25a19.06,19.06,0,0,1-.64,2.15,9.4,9.4,0,0,1-1.27,2.36c-3.23,3.83-4.23,8.66-6,13.13-1.68,4.18-3.43,8.34-5.13,12.51C112.15,113.66,111.86,114.61,111.52,115.59Zm-9.21-12.77c1-3.93,1.93-7.46,2.85-11a1,1,0,0,0-.66.6c-1,1.81-1.81,3.88-3.21,5.37-1.55,1.65-1.81,1.44-.53,3.36A16.47,16.47,0,0,0,102.31,102.82Z"/><path d="M114.29,215.7l-5,21.21-1.19.05.31-.33-3.69-4.82L92.51,248.23c1,.1,2,.25,3,.29,3.14.13,6.29.42,9.42.25a92.36,92.36,0,0,0,9.93-1.29c.49-.08,1.06-.78,1.27-1.32,2.57-6.55,4.95-13.18,7.64-19.67,1.25-3,3.08-5.82,4.63-8.73.55-1,1-2.1,1.6-3.12a1.24,1.24,0,0,1,1.11-.44c-2.4,5.52-5.71,10.49-7.51,16.25s-4.38,11.08-6.67,16.73l2.34.41c.33,1,.09,1.4-.84,1.84a7.82,7.82,0,0,0-2,1.95,9.9,9.9,0,0,0-.82,1.18c-.42-.6-1.07-1.16-1.21-1.83s.34-1.26.65-2.21c-1.67.16-3.24.25-4.78.48-2.53.38-5,.95-7.58,1.25-.88.1-1.82-.51-2.74-.54q-4-.12-8,0a7.89,7.89,0,0,0-2.15.72c-1.26-1.91-1.09-2.26,1.26-2.56a1.34,1.34,0,0,0,.75-.48c2.44-2.85,5-5.6,7.26-8.59a58.84,58.84,0,0,0,4.57-7.4c.25-.47-.23-1.56-.67-2.16-1.81-2.47-3.72-4.87-5.62-7.27a1.2,1.2,0,0,0-.88-.36,1.37,1.37,0,0,1-1.51-1.71c.14-1.06.69-2.11,2-2,1.06.08,1.57.66,1.24,1.83-.08.3.25.69.34,1.06.15.57.25,1.16.37,1.74l-.48.18,6,7.29c3.43-1.63,4.13-5,5.55-7.92,1-2.07,1.53-4.45,3.51-6C113.68,216,113.88,215.93,114.29,215.7ZM111,222.33l-.15-.05a15.53,15.53,0,0,0-.78,1.45c-1,2.44-1.73,5.08-4.38,6.43a1,1,0,0,0-.31,1c.65,1.06,1.42,2,2.14,3l.46-.26Q109.46,228.12,111,222.33Z"/><path d="M144.45,210.63c-2.45-2.23-5.47-1.63-8.31-1.85a9.17,9.17,0,0,1-2.68-.43c-.4-.16-.53-1-.79-1.49.49-.17,1.08-.6,1.46-.46,3.13,1.07,6.38,1,9.6,1.22a7.75,7.75,0,0,1,.84,0c2.35.44,2.4.68,1.43,2.94-.66,1.52-1.05,3.15-1.59,4.72-.81,2.4-1.63,4.81-2.47,7.2-.74,2.09-.53,2.51,1.61,2.41,2.32-.1,4.63-.36,6.94-.6,2.14-.22,4.28-.54,6.43-.73.32,0,1,.5,1,.63-.16.66-.33,1.6-.82,1.86a14.62,14.62,0,0,0-3.9,3.3c-1.78,2-3.41,4-5.2,6a28.91,28.91,0,0,1-2.87,2.42c-.22.18-.58.32-.63.54-.64,2.7-3.38,3.81-4.61,6.1a22.53,22.53,0,0,1-3.18,3.68c.34.77,1.47,2-.08,3.08a2.45,2.45,0,0,1-3.49-.2,1.65,1.65,0,0,1,.4-2.7c.58-.41,1.31-1,1.41-1.62,1-5.8,3.11-11.33,4-17.15a2.2,2.2,0,0,0-.63-2.2,2.79,2.79,0,0,1,0-2.18c2.57-.68,2.57-3,3.18-4.85C142.47,217.08,143.45,213.85,144.45,210.63Zm9.42,16.24c-.38-.18-.69-.46-1-.42a41.73,41.73,0,0,1-8.94.72c-2.63-.13-3.39.67-4.09,3.33-.52,1.95-1.06,3.89-1.56,5.85-.84,3.29-1.65,6.58-2.47,9.87l.49.26c2.87-3.29,5.71-6.59,8.62-9.85S150.79,230.24,153.87,226.87Z"/><path d="M131.34,116.21c.09,1,.58,2.28.14,2.9s-1.81.91-2.77.91c-.52,0-1.25-.82-1.51-1.42a1.35,1.35,0,0,1,.94-2c.85-.25,1-.84,1.21-1.68.78-3.44,1.79-6.82,2.63-10.25.59-2.37,1.09-4.77,1.49-7.17a2.79,2.79,0,0,0-.71-1.67c-.62-.9-.93-2,.14-2.4,2.35-.77,2.45-2.85,3-4.58,1.1-3.24,2-6.57,2.92-9.86-2.52-2.19-5.53-1.64-8.39-1.8a8.24,8.24,0,0,1-2.66-.54c-.34-.14-.52-.94-.52-1.44,0-.18.8-.63,1.08-.52,3.21,1.18,6.57,1.1,9.9,1.31a7.73,7.73,0,0,1,.84,0c2.33.41,2.41.81,1.39,3a46.06,46.06,0,0,0-1.76,5.2c-.78,2.3-1.6,4.58-2.38,6.87-.71,2.09-.42,2.48,1.85,2.28,4.28-.37,8.55-.82,12.83-1.19a4,4,0,0,1,1.41.45c-.27.64-.39,1.66-.85,1.84-1.67.67-2.64,2.11-3.82,3.26-1.89,1.84-3.46,4-5.24,6-.8.88-1.87,1.52-2.66,2.41a30.47,30.47,0,0,0-2.09,2.93,5.29,5.29,0,0,1-.58.85c-.83.78-1.76,1.46-2.52,2.29C133.49,113.51,132.41,114.92,131.34,116.21ZM130.7,115c6.08-6.8,11.85-13.27,17.9-20L143,95.4a15.33,15.33,0,0,1-3.35.26c-3.18-.5-4.69.38-5.37,3.43-.28,1.25-.38,2.55-.77,3.75C132.32,106.65,130.9,110.39,130.7,115Z"/><path d="M239.62,255c.19,1.24.78,2.52.37,3.11a3.6,3.6,0,0,1-2.78.94c-.58,0-1.42-.9-1.61-1.55s.5-1.27.89-1.85,1.15-.95,1.29-1.52c1.37-5.6,2.64-11.21,3.95-16.82a2.05,2.05,0,0,0-.54-2.4c-.94-.83-.42-1.94.74-2.64a3.93,3.93,0,0,0,1.7-1.91c1.22-3.72,2.25-7.51,3.43-11.25.29-.92,0-1.49-.73-1.72a25.94,25.94,0,0,0-3.29-.68,13.78,13.78,0,0,0-1.44-.16c-1-.07-1.92-.08-2.88-.17-1.17-.1-2.41-.1-3-1.39-.44-.94.16-1.47.9-1.19,3.81,1.44,7.84.93,11.73,1.56,1.26.21,1.51.95,1.09,2-.84,2.15-1.5,4.37-2.28,6.54-.69,1.91-1.46,3.79-2.15,5.7-.28.78-.42,1.61-.7,2.74a21,21,0,0,0,3.43.25c3.86-.35,7.7-.84,11.55-1.25a7.43,7.43,0,0,1,1.47.16c-.19.65-.18,1.57-.61,1.91a35.09,35.09,0,0,0-6.43,6.34,43.71,43.71,0,0,1-4.17,3.85,11.81,11.81,0,0,0-2.32,2.74,12.53,12.53,0,0,1-2.8,3.55c-1.39,1.29-2.5,2.88-3.77,4.3A4.64,4.64,0,0,1,239.62,255Zm-.86-1.16.37.27c2.4-2.64,4.76-5.31,7.21-7.9,1.64-1.74,2.61-4,4.81-5.35,1.52-1,2.38-2.9,3.66-4.29a14.89,14.89,0,0,1,2.32-1.73l-.47-.79c-.47,0-.93,0-1.39,0-2.5.2-5,.55-7.5.6-2.87.07-4.3.27-5.14,3.6-.63,2.54-1.24,5.09-1.87,7.64S239.42,251.17,238.76,253.82Z"/><path d="M233.64,103.32a3.78,3.78,0,0,0,3.57-3.35,97.8,97.8,0,0,1,3-10,1.67,1.67,0,0,0-1.42-2.45c-2.19-.38-4.46-.29-6.68-.55-1.09-.13-2.52.26-3.07-1.23a1.17,1.17,0,0,1,.12-1,1.32,1.32,0,0,1,1.14-.27c3.14,1.44,6.54,1,9.82,1.35.5.06,1,.18,1.49.23,1.44.13,1.39.94,1,2-.78,2.24-1.45,4.52-2.24,6.76-.7,2-1.54,3.88-2.23,5.85-.79,2.23-.53,2.69,1.77,2.52,4.28-.34,8.55-.87,12.83-1.28a4.09,4.09,0,0,1,1.28.3c-.19.6-.18,1.46-.59,1.76a34.82,34.82,0,0,0-6.06,5.95,22,22,0,0,1-4.73,4.49c-1.28.84-2,2.6-3,3.92-.43.57-1,1-1.47,1.58-1.26,1.41-2.51,2.84-3.77,4.26-.58.65-1.16,1.28-1.75,1.93,1.42,2,1,3.35-1.13,3.65-1.09.15-2.23.13-2.73-1.1s.31-2.07,1.28-2.75c.41-.3,1.05-.73,1-1.09,0-3.72,2-6.89,2.6-10.44.4-2.36.94-4.69,1.35-7a2.78,2.78,0,0,0-.24-1.44C234.59,105.06,234.16,104.33,233.64,103.32Zm-1.17,21c2-2,4-3.72,5.79-5.63,2.24-2.39,3.75-5.33,6.41-7.51,1.71-1.4,3-3.59,4.7-5.21.26-.25.31-.73.46-1.1a6.75,6.75,0,0,0-1.18-.12c-2.54.17-5.08.49-7.62.53-2.9,0-4.49.41-5.17,3.64-.27,1.26-.33,2.58-.69,3.82C234.09,116.47,232.65,120.14,232.47,124.29Z"/><path d="M216.39,67.78c1.94-.76,3.5-1.38,5.08-2a2.92,2.92,0,0,1,1-.16,2.29,2.29,0,0,0,2.48-2.17,21.52,21.52,0,0,1,1.35-4.64c1-2.21,2.28-4.3,3.44-6.44l.44.14-3.67,11.3c2.86-.92,5.38-1.7,7.86-2.57.45-.16,1-.68,1.08-1.08.15-1.66,1.3-1.52,2.43-1.64,1.31-.13,1.58.83,1.93,1.7a2.57,2.57,0,0,1,.28,1.45A3.78,3.78,0,0,1,239,63.6c-.26.19-1.18-.33-1.7-.68a7.35,7.35,0,0,1-1.17-1.29c-3.52,5.25-6.91,10.27-10.27,15.32-1.36,2-2.67,4.08-3.93,6.17-.33.55-.26,1.34-.59,1.89s-.92.94-1.27.86c-.71-.16-.56-.67-.33-1.41.73-2.37,1.13-4.84,1.73-7.25.72-2.85,1.51-5.68,2.28-8.51.23-.85.49-1.68.75-2.53-2.95-.12-5.29,1.29-7.67,2.54-.4.21-.53.88-.87,1.26s-.9,1.08-1.27,1a2.83,2.83,0,0,1-1.89-1.06,1.92,1.92,0,0,1,.51-1.84c2.4-.94,2.39-3.32,3.09-5.14s.49-3.68.89-5.49c.35-1.6,1.06-3.12,1.47-4.72,1.11-4.35,2.14-8.73,3.22-13.09.4-1.61.84-3.2,1.34-4.77.1-.29.64-.43,1-.63a3.52,3.52,0,0,1,0,1q-1.09,4.32-2.25,8.63c-.26,1-.63,1.89-.89,2.86-.9,3.38-1.8,6.75-2.65,10.15-.24,1-.2,2-.42,3-.42,1.93-.95,3.84-1.41,5.76C216.59,66.23,216.54,66.83,216.39,67.78ZM222.21,80l.6.24,11.78-17.75a23.15,23.15,0,0,0-4,.79c-1.48.58-3.67,1.17-4.09,2.29C224.8,70.24,223.61,75.14,222.21,80Z"/><path d="M122.59,24.49q-4.07,16.64-8.14,33.26l.52.31c.84-.39,1.67-.79,2.52-1.15a7.72,7.72,0,0,1,2.78-1c2.11,0,2.86-1.14,3.16-2.9.66-3.8,2.92-6.86,4.45-10.26l.56.2c-1.19,3.57-2.39,7.15-3.74,11.18,3.07-1,5.75-1.92,8.41-2.85.27-.09.64-.46.64-.69-.06-1.82,1.41-1.69,2.45-1.73.51,0,1.23.72,1.56,1.29a2.9,2.9,0,0,1-.11,3.55c-.22.26-1.18.18-1.56-.09a9.39,9.39,0,0,1-1.56-1.86c-1.88,2.74-3.56,5.14-5.19,7.58-1.44,2.17-2.81,4.4-4.23,6.59-1.62,2.47-3.29,4.91-4.86,7.41-.34.53-.25,1.35-.59,1.87s-.94.7-1.44,1a5.09,5.09,0,0,1-.12-1.49c.51-2.5,1.05-5,1.67-7.46s1.38-5.13,2.07-7.69c.27-1,.51-2,.76-3l-.47-.51c-2.38.92-4.77,1.81-7.12,2.8-.36.15-.46.82-.77,1.18s-1,1.34-1.32,1.27a2.89,2.89,0,0,1-1.85-1.28,2,2,0,0,1,.7-1.81c2.11-1.41,2.68-3.68,3.08-5.83A91.52,91.52,0,0,1,117.51,42c.6-1.91.83-3.93,1.31-5.89.89-3.65,1.83-7.28,2.79-10.92.09-.34.49-.6.74-.89ZM121,70.61l12-18.07a10.68,10.68,0,0,1-2.75.84c-3.24,0-5.34,1.41-6.31,4.55-.71,2.31-1.68,4.55-2.25,6.89A45.64,45.64,0,0,0,121,70.61Z"/><path d="M128.1,156Q124,172.69,120,189.33l.41.33c.86-.39,1.7-.84,2.59-1.16a19.8,19.8,0,0,1,3.47-1.06,2.49,2.49,0,0,0,2.22-1.89c1.37-3.79,2.92-7.52,4.4-11.27l.86.27c-1.18,3.6-2.35,7.2-3.64,11.15,3-1,5.57-1.81,8.1-2.71.4-.14.92-.65.93-1,.06-1.47,1.06-1.44,2.09-1.62,1.2-.23,1.62.47,1.94,1.36a4.24,4.24,0,0,1,.46,1.77,8.47,8.47,0,0,1-.86,2.09,11.07,11.07,0,0,1-1.87-.89c-.38-.26-.58-.79-1-1.46-2.31,3.54-4.34,6.7-6.41,9.83a60.73,60.73,0,0,0-3.83,5.68c-1.42,2.79-4.09,4.85-4.68,8.13-.07.4-1,1-1.27.94-.75-.29-.45-.86-.23-1.6.68-2.28,1-4.67,1.57-7,.66-2.68,1.45-5.32,2.19-8l.87-3.18-.29-.46c-2.42.94-4.86,1.85-7.25,2.87-.4.17-.55.86-.9,1.23s-1,1.18-1.36,1.1a3.16,3.16,0,0,1-1.92-1.26c-.19-.31.36-1.41.85-1.73,2.1-1.4,2.66-3.71,3.1-5.8a104.1,104.1,0,0,1,2.43-10.19c.62-2,1-4.09,1.48-6.13.58-2.3,1.21-4.58,1.81-6.88.33-1.28.61-2.59,1-3.86a4.3,4.3,0,0,1,.66-1.07Zm10.43,28.05a19,19,0,0,1-3.18.89c-2.56.2-4.69.9-5.5,3.68q-1.93,6.71-3.89,13.41l.52.18Z"/><path d="M242.86,190.83c-2.38,3.65-4.56,7-6.78,10.4-2.34,3.55-4.76,7.05-7.06,10.63-.5.76-.54,1.81-1,2.63-.22.41-.94.92-1.28.83-.66-.19-.51-.7-.29-1.42.65-2.21.92-4.54,1.49-6.78.76-3,1.67-6,2.51-9,.23-.79.42-1.58.63-2.38-3.31-.84-5.38,1.63-8,2.52-.22.08-.26.61-.47.86-.41.49-.92,1.33-1.33,1.3a2.35,2.35,0,0,1-1.75-1.15,2,2,0,0,1,.64-1.88c2.16-1.27,2.33-3.57,3-5.53.55-1.64.45-3.48.83-5.19.34-1.51,1-2.93,1.4-4.43,1.09-4.36,2.05-8.74,3.14-13.09.48-1.92,1.18-3.78,1.91-6.12.36.72.76,1.14.69,1.43-1.23,4.52-2.53,9-3.78,13.53q-1.09,4-2,8.05c-.26,1.08-.26,2.22-.51,3.3-.46,2-1,3.93-1.52,5.9-.13.49-.23,1-.41,1.73.81-.18,1.64-.12,2.1-.51,1.46-1.23,3.31-1.16,4.94-1.76a2.7,2.7,0,0,0,1.54-1.6c.89-4.16,3-7.71,4.92-11.4l.48.17-3.72,11.25c2.89-.95,5.46-1.74,8-2.66.45-.16.69-.85,1.07-1.26s.75-1,1.22-1.13c.77-.15,2.08-.23,2.35.18.74,1.17,1.56,2.55.71,4.06-.55,1-1.67,1-2.49,0C243.66,192,243.36,191.51,242.86,190.83Zm-14,18.65.57.23,11.8-17.77a22.61,22.61,0,0,0-4.55.76c-1.32.5-3.11,1.3-3.5,2.4C231.54,199.81,230.3,204.67,228.9,209.48Z"/><path d="M176.11,279.47v14.12h-.5v-15c1.51-.73,2.49-.4,3.06,1.59.77,2.71,1.28,5.49,1.91,8.24a6.27,6.27,0,0,0,.71,2c.14-.57.34-1.14.43-1.72.32-2,.63-3.94.89-5.92.14-1.09.75-2.08-.14-3.29-.71-1,.93-2.77,2.15-2.49,1,.23,1,1.05.59,1.71a19.72,19.72,0,0,0-2.3,7.51c-.3,2.05-.52,4.13-.86,6.18a8.46,8.46,0,0,1-.75,1.81,5.22,5.22,0,0,1-1-1.41c-1-4-1.88-8-2.84-11.94a10.16,10.16,0,0,0-.69-1.6Z"/><path d="M196.16,284.73c0-2,0-4,0-5.94,0,0-.51,0-.77,0-.29,4.87-.57,9.67-.87,14.77,1.68-.76,2.22-1.61,1.89-3-.28-1.17-.39-2.38-.57-3.57l.52-.1c.22,1.34.44,2.69.68,4a10.47,10.47,0,0,0,.39,2c.46,1.25-.09,1.54-1.18,1.45l-2.36-.21c.29-5.17.59-10.45.88-15.76,2.6-.77,2.78-.58,2.7,3,.79-.85,1.61-1.65,2.35-2.54s1.59-.53,2.3,0a4.08,4.08,0,0,1,1.33,4.67,6.31,6.31,0,0,1-1,1.36c-.34-.46-.7-.9-1-1.38-.11-.17-.06-.43-.1-.78l1.27.2c0-1.43.43-3.22-1.25-3.67-1.46-.39-2.28,1.07-2.91,2.3s-1.12,2.27-1.68,3.41Z"/><path d="M189.51,294.65l1.78-1.9-.3-.26-3.84,1.78v-8.38l3.29.15.06-.67a7.29,7.29,0,0,0-2.22-.09c-1.13.3-1.34-.09-1.17-1s.31-1.87.52-2.8c.55-2.44,1.29-2.89,3.74-2.31.42.11.83.26,1.33.42v1.86l-2.48-.39,0-.23,1.9-.45v-.5l-2.87-.21c-.31,1.65-.59,3.14-.92,4.88,1.08-.05,1.84-.15,2.6-.12.51,0,1.29.08,1.44.38a2,2,0,0,1,0,1.71c-.16.29-.94.3-1.45.31-.83,0-1.66-.07-2.78-.13-.12,2.16-.23,4.18-.35,6.45a20.88,20.88,0,0,1,2.28-1.33,8.72,8.72,0,0,1,1.86-.32,11.32,11.32,0,0,1-.55,2.56C191.17,294.33,190.38,294.36,189.51,294.65Z"/><path d="M150.89,159c2.15-1.41,2.92-1.37,4.31.25,1.12,1.31,1,2.33-.42,3.32a4.49,4.49,0,0,1-1.26.74c-.7.21-1.71.62-2.1.32a5.18,5.18,0,0,1-1.34-2.33c-.15-.4.1-1,.17-1.43l.33-.27-.05.05.35-.35C150.88,159.23,150.88,159.13,150.89,159Z"/><path d="M145.81,163c-.22.43-.61.85-.63,1.3-.08,1.68,0,3.37-.07,5.06,0,.34-.43.67-.66,1-.28-.22-.81-.45-.81-.67,0-2.68.14-5.37.27-8,0-.22.28-.42.41-.62l1.49,1.84Z"/><path d="M153.9,170.14l-.15.29a13.29,13.29,0,0,1-2.6-1.67,1.88,1.88,0,0,1,.12-1.83,11.57,11.57,0,0,1,2.34-1.69c.41.62,1.07,1.2,1.16,1.86a7.16,7.16,0,0,1-.53,2.36l0,0-.39.39,0,0v.4Z"/><path d="M151.67,174.56c1.37-1.85,2.1-2.13,3.34-1.07.36.3.64,1.37.49,1.48a30.55,30.55,0,0,1-3.06,1.88h.06c-1.21-.05-.91-.94-.92-1.65l0,0,.35-.35Z"/><path d="M145.13,174.17,143.69,173l.43.18h1.69l.37-.34,0,.05,1,.94c-.12.13-.23.27-.35.41l0,0-.69,0h-.32l-.39,0,.06,0h-.41Z"/><path d="M142.62,171.06l1.17.12-.12.06.15.15.05.07-.06.4h-.72l-.35-.36Z"/><path d="M146.83,175.52l-.66-.31,0,0,.74-.05-.06.38Z"/><path d="M146.15,160c0,.12,0,.24,0,.37l0-.41Z"/><path d="M143.81,172.48l-.9.07.17-.4h.73c0,.13,0,.26-.05.39Z"/><path d="M141.45,171.51l.31-.33,0,0c0,.12,0,.25.05.38l-.38-.05Z"/><path d="M142.09,171.18l.58-.11c-.07.15-.14.3-.22.45h-.38l.05-.39Z"/><path d="M141.43,171.81l0-.3,0,0v.39Z"/><path d="M144.79,172.19h.32c0,.11,0,.23,0,.34h-.38l.05-.39Z"/><path d="M145.5,172.53v-.35l.29.34,0,0h-.38Z"/><path d="M144.46,171.86l.33.33,0-.05-.39.05.05-.39Z"/><path d="M143.69,173l.12-.56-.05.05.39-.05v.39Z"/><path d="M145.79,172.52l.36.35,0-.05-.39.05c0-.13,0-.26,0-.38Z"/><path d="M150.89,159c0,.1,0,.2,0,.29l-.35,0,.05,0Z"/><path d="M150.25,159.94l.33-.62-.05,0v.38l.05-.05Z"/><path d="M145.48,174.52l-.35-.35,0,0h.41l-.06,0v.39Z"/><path d="M146.8,174.22h.36a.27.27,0,0,0,0,.31l.06,0-.4.05,0-.38Z"/><path d="M145.81,174.85l-.33-.33,0,0,.38-.06c0,.13,0,.26-.05.39Z"/><path d="M145.78,160.11l.37-.1,0,0Z"/><path d="M147.14,174.53l.38.41-.38,0,.06-.39Z"/><path d="M151.67,174.56l.22.33-.35,0,.05,0Z"/><path d="M146.17,175.21l-.36-.36,0,.05.38-.05,0,.39Z"/><path d="M151.58,175.21l-.23-.25.24-.06-.05,0v.38Z"/><path d="M147.15,175.19h.37l-.34.35,0,.05Z"/><path d="M147.18,175.53h-.35l0,0h.4Z"/><polygon points="152.5 176.86 152.44 176.85 152.43 176.92 152.5 176.86"/><path d="M145.78,160.24l.41.09Z"/><path d="M145.81,163v-.14l.21.07Z"/><path d="M142.74,172.14l.22.39-.51-.38,0,0h.39Z"/><path d="M142.45,172.15l-.15,0-.15,0c0-.12-.05-.23-.08-.34l.38.05,0-.05v.39Z"/><path d="M154.24,169.46l0,.32,0,.05v-.4Z"/><polygon points="135.19 170.01 135.09 170.03 135.11 169.95 135.19 170.01"/><polygon points="135.92 170 135.84 170.04 135.85 169.95 135.92 170"/><path d="M141.78,171.81l-.06.35-.29-.35,0,.05Z"/><path d="M144,171.47l.43.39,0-.06-.39.06Z"/><path d="M154.27,169.78l-.37.36,0,0c0-.13,0-.26,0-.4l0,0h.4Z"/><path d="M141.76,171.18h.33l0-.05h-.39Z"/><path d="M142.45,171.86l0-.39h.38l0,.39,0-.05h-.38Z"/><path d="M142.74,171.86l.39-.05v.38l-.39-.05,0,.05v-.38Z"/><path d="M145.11,172.87v-.39l.39.05-.05-.05c0,.13,0,.26.05.39Z"/><path d="M144.1,172.82h.39v.38h-.38Z"/><path d="M146.81,174.85h.38v.39h-.38Z"/><path d="M142.12,171.47v.39h-.38v-.39Z"/><path d="M144.15,171.81v.38h-.39v-.38Z"/><path d="M146.13,174.9v-.39h.72v.39Z"/><path d="M146.17,174.56h-.38v-.38h.38Z"/><path d="M144.44,172.87v-.39h.38v.39Z"/><path d="M144.78,172.82h.38v.39h-.38Z"/><path d="M145.45,172.82h.38v.39h-.39Z"/><path d="M144.48,172.53h-.38v-.38h.39Z"/></g></svg>