<svg id="Layer_1" data-name="Layer 1" xmlns="http://www.w3.org/2000/svg" viewBox="0 0 51.88 74.45"><defs><style>.cls-1{fill:#fff;}</style></defs><path class="cls-1" d="M37.5,26.25,61.28,50,37.5,73.81,13.72,50,37.5,26.25m0-1.42L12.3,50l25.2,25.2L62.7,50,37.5,24.83Z" transform="translate(-11.56 -0.77)"/><path class="cls-1" d="M37.5,18.24,60.61,41.35,37.5,64.47,14.39,41.35,37.5,18.24m0-2.83L11.56,41.35,37.5,67.3,63.44,41.35,37.5,15.41Z" transform="translate(-11.56 -0.77)"/><path class="cls-1" d="M37.5,5l21.7,21.7L37.5,48.41,15.8,26.72,37.5,5m0-4.25-25.94,26L37.5,52.66,63.44,26.72,37.5.77Z" transform="translate(-11.56 -0.77)"/></svg>