<svg id="Layer_1" data-name="Layer 1" xmlns="http://www.w3.org/2000/svg" viewBox="0 0 300 300"><g id="Egg_Skateboarding" data-name="Egg Skateboarding"><path d="M117.33,150.06l-7.76-2.17c-.42,1.57-.89,3.36-1.38,5.15a1.21,1.21,0,0,1-.26.47c-1.84,2-3.74,3.86-5.52,5.87s-3.22,3.87-4.83,5.82l.45.47,10.15-7.42.42.46a3.67,3.67,0,0,1-.68.9c-3.58,2.59-7.13,5.22-10.77,7.72-2.12,1.45-3.54,3.5-5.11,5.44q-2.16,2.65-4.43,5.21a129.45,129.45,0,0,1-11.83,11c-.26.23-.69.54-.92.46-1.22-.39-1.79.52-2.56,1.1-3,2.24-5.94,4.52-9,6.62-.91.63-2.13,1.67-3.41.25-.14-.15-.93.2-1.37.41-3.54,1.66-7,3.38-10.6,5A82.38,82.38,0,0,1,39,206.64c-2.7.86-5.61,1.06-8.4,1.64a23.67,23.67,0,0,0-3.2,1.09c-.57.21-1.14.61-1.17-.52a1.37,1.37,0,0,0-1.08-.35,35.51,35.51,0,0,0-5.77,2.65,5.5,5.5,0,0,1-2.64.74c-.26,0-.55-.24-.82-.36.2-.3.35-.78.61-.85,1-.28,2.08-.32,3.07-.63,1.35-.42,2.66-1,4-1.51l-.15-.7-10.34,1L13,208.4a10.39,10.39,0,0,1,2.07-.77c2.15-.35,4.32-.58,6.48-.88.26,0,.66-.23.72-.43.35-1.09.89-1.17,1.61-.39,2.91-2.22,6.2-2.7,9.75-2.78-.7-.3-1.42-.57-2.09-.92s-1.43-.7-1.05-1.87a9.74,9.74,0,0,0,1.85,1.15c2.11.73,4.22,1.33,6.43.1a2.43,2.43,0,0,1,2.69-.29c.48.29,1.5-.16,2.2-.44,2.61-1,5.18-2.18,7.73-3.25l-1.32-2.77.49-.28c.29.38.59.75.85,1.15.6.92,1.23,1.37,2.37.69,2.57-1.54,5.18-3,7.8-4.47s5.27-2.69,7.75-4.29c2.64-1.7,5-3.88,7.62-5.53a35,35,0,0,0,10.41-9.91,44,44,0,0,1,9.13-9.11,77,77,0,0,0,8.71-8.33,14.79,14.79,0,0,0,3.76-9.12,14.32,14.32,0,0,1,0-2c.23-1.06,1.08-1.48,2-1.77,1.53-.47,3-1,4.74-1.56l.33,1.09c1.27-1.57,2.85-.67,4.35-.61,1,0,2-.06,3.07,0,2.09,0,4.19,0,6.27.2,1.13.12,1.54-.15,1.5-1.25-.13-4.13.46-8.3-.53-12.39.9-1.54,0-2.56-1-3.59a.84.84,0,0,1-.05-.77c1.21-1.87,2.06-4.08,4.21-5.13a5.87,5.87,0,0,1,1.82-.34,12.41,12.41,0,0,1,2.38-.16c2.78.41,5.54.91,8.31,1.37a17.84,17.84,0,0,0,2.29.35c1.32.07,2.76,1.21,4-.48.23-.32,1.18-.13,2.15-.2l-1.1,1.22a35.43,35.43,0,0,0,4.09.47c5.56,0,10.89,1.5,16.33,2.29,3.27.47,6.55,1.17,9.91.54,1-.2,2.36-.46,3.11,0,2.34,1.48,4.33-.16,6.46-.38.3,0,.62-.46.81-.78.54-.86,1.09-.81,1.83-.09l-1.12.84h8.54c.22-.88,1.06-.7,1.88-.38s1.41.66,2.1,1c1,.54,1.87,1,3.09.09.63-.44,1.89-.11,2.85,0s2,.58,3,.66,1.22.56.91,1.35l2.56,1.46c-.28-1.16-1.35-2.48.62-3.75-1.17-.44-2-.75-2.87-1.1-.18-.07-.47-.35-.45-.39a8.74,8.74,0,0,1,.62-.88c-2-2.4-1.54-5,1-6.57.86-.53,1.28,0,1.78.42s1,.82.6,1.71c-1.11,2.22,1,5.34,3.51,5.31.77,0,1.4.07,1.93-.76.18-.3,1.22,0,2,0,.2-1,.42-2.06.63-3.12h2.29c.27-1.49.52-2.88.78-4.27l.42,0,1.93,2.41a5.17,5.17,0,0,0,.26-1.24c-.12-1.17-.15-2.25,1-3,.29-.19.4-.69.51-1.07.28-.94.51-1.89.75-2.85,0-.17.12-.47,0-.52-1.08-.76-.26-1.56.17-2a89.38,89.38,0,0,1,8.49-8.15c2-1.53,4.58-2.2,6.89-3.26,1.32-.61,2.6-1.33,4-1.85a31.15,31.15,0,0,1,3.35-.9l0-.39-2-.89c.54,0,.91-.18,1.18-.07a4.35,4.35,0,0,0,3.93-.06c1.4-.75,2.78-.42,4.23-.09,1.06.24,2.24-.06,3.31.17a21.75,21.75,0,0,1,3.32,1.37L273.11,92,277,94.23c.24,1.18.56,2.82.93,4.44a14.12,14.12,0,0,0,.54,1.41c.64,1.69-.65,2.92-1.17,4.28-1,2.6-1.86,5.28-3.71,7.51-1,1.25-1.65,2.83-2.63,4.14-1.12,1.49-2.44,2.83-3.66,4.25s-2.13,3.07-3.56,4.07a38.44,38.44,0,0,1-11.7,5.13l-1.44,2.65-2-1,.93,3.3-3.1-.67c.72,1.23,1.36,2.36,0,3.43l-.86-1.12a2.32,2.32,0,0,1-3,2.18c-.23,0-.78.44-.75.57a4.54,4.54,0,0,0,.74,1.71c.41.5,1.15.73,1.55,1.23a3.84,3.84,0,0,0,3.5,1.58,2.26,2.26,0,0,1,2.52,2c0,.62-.65,1.46-1.23,1.94-1.74,1.42-3.66.69-5.35,0a22.27,22.27,0,0,1-3.61-2.54c-.68-.48-1.41-.9-2-1.29l-1.48,1.93a5.85,5.85,0,0,1,1.31.57c.73.53,1.27,1.45,2.05,1.73,2.86,1,4.4,3.5,6.53,5.32,1.45,1.24,3,2.39,4.47,3.59.23.19.56.45.56.68,0,1.46,1.15,2.11,2,3,1.48,1.63,3.05,3.17,3.81,5.35a5.75,5.75,0,0,0,1.55,1.89,14.13,14.13,0,0,0,1.84,1.62c1.71,1.2,2.64,3.26,4.71,4.12.76.32,1.24,1.29,1.89,1.93s1.2,1.51,2.4,1.31c.33-.06.75.44,1.12.68v-.4a16.17,16.17,0,0,1,3.19,0c3.23.65,6.44,1.42,9.66,2.18.82.19,1.61.48,2.54.76-.16.45,1,1.21-.28,1.7l.83,1.74L287,183c0,2.19-.06,4.39,0,6.57,0,1.06-.12,1.28-1.25,1,.51,2,.51,2-1.91,3.66l-.19-1.46a15.56,15.56,0,0,0-5.59-.27c-2,.3-4.15-.35-6.24-.59v-.57l1.7-.47a12.76,12.76,0,0,1-1.07-2.2c-.18-.64-.77-1.76.86-1.58a1.32,1.32,0,0,0,.34-.94c-.17-.57-.52-.89-.17-1.68.48-1.07-1-1.23-1.59-1.63a6.23,6.23,0,0,0-2.4-.42c.25,1.66.53,3.13.65,4.6a2.46,2.46,0,0,1-.44,1.67,2.48,2.48,0,0,0-.4,2.4,29.56,29.56,0,0,1,.33,4.41c0,.95-.14,1.9-.21,2.86s1,1.62,2.07,1.51c.39-.05,1-.24,1.13-.09a14.41,14.41,0,0,1,1.91,3.61,12.12,12.12,0,0,1-.06,3.55c0,.17-.08.46,0,.5,2,1.16.2,2.67.28,4s-.5,2.51.88,3.4c.14.09.09.46.13.7h-1.34c.07-.09,0,0,0,0-.19.5-.37,1-.55,1.5a5.66,5.66,0,0,1-.68-1.65c-.18-2.45-.25-4.91-.59-7.4l-.34,1.11-.41,0a7.08,7.08,0,0,1-.31-1.95c.17-1.71.47-3.41.75-5.11.14-.87-.38-1.33-1.06-1.22a10.91,10.91,0,0,0-3.17,1c-2,1-3.83,1.38-5.82.12a5.6,5.6,0,0,0-1.57-.28,48.78,48.78,0,0,1-1-4.93c-.17-1.77,0-3.57,0-5.4-3.05-1.14-6.15-1.32-9.22-1.67-.37-.05-.91-.81-.93-1.26-.17-3.24-.36-6.5-.25-9.74,0-1,0-2-.71-2.41a3.49,3.49,0,0,0-2.58,0c-1.85.68-3.63,1.55-5.66,1.3a3.58,3.58,0,0,1-1.84-.77c2.14-.4,4.41.22,6.53-1.43-1.65,0-3,.05-4.44,0a7.27,7.27,0,0,1-1.64-.48c.53-.33,1.12-1,1.57-.92,1.72.35,3-.91,4.54-1.09s2.46,0,3.51,1.42c.56.76.83,1.81,2.07,2,.21,0,.23,1.47.24,2.26,0,2.35,0,4.7,0,7.14l1.47-.23.4.89a44.62,44.62,0,0,1,5-.29,2.79,2.79,0,0,1,1.73,1.22c.95,1.3.9,1.36,2.49,1.22l-.8,1.49,2.28-.29.2.45c-2.25.66-1.89,2.44-2,4.06-.05,1-.17,2.08-.24,3.13a8.56,8.56,0,0,0,0,1.24c.16,1.61,1.4,2.17,2.65,1.34-.5-.67-1.49-1.44-1.39-2s1.21-1.14,2.19-2c0-2,.06-4.55,0-7.09-.07-2.22-.15-4.46-1.3-6.47a1.35,1.35,0,0,1,.15-1.84,1.49,1.49,0,0,0-.15-2.26c-2.67-2.6-5.42-5.13-7.87-7.93-1.56-1.79-3.51-3.26-4.53-5.62-.6-1.36-2.12-2.33-3.27-3.44-1.44-1.39-2.93-2.73-4.37-4.12-2.77-2.65-5.49-5.36-8.3-8-1.55-1.44-3.25-2.72-4.86-4.11-.43-.37-.72-.89-1.14-1.28-1.79-1.68-3.37-3.78-5.46-4.88-2.85-1.51-4.55-3.82-6.22-6.32a1.93,1.93,0,0,0-1.37-.68,2.48,2.48,0,0,1-.17-.37c-.61-2-.86-2.24-2.88-2.25H209.7c.11,1.37.26,2.81.34,4.26a49.42,49.42,0,0,0,.44,5.91c.39,2.21-.13,4.57-.26,6.87-.05.82-.13,1.63-.22,2.74a3,3,0,0,1-1.43-2.8c0-2.64,0-5.27,0-7.91q0-5.13,0-10.26c0-1.5.55-1.89,1.8-1.12a1.9,1.9,0,0,0,2,.15c1.81-.74,3.78.07,5.26,2,.77,1,1.64,1.91,2.37,2.93a29,29,0,0,0,1.68,2.69,18.51,18.51,0,0,0,2.63,2.08l.31-.26a37.44,37.44,0,0,0-2.74-4.24c-1.35-1.58-3-2.94-4.45-4.4-.16-.16-.49-.32-.48-.45.28-2.63-1.73-1.41-2.73-1.49-1.88-.16-3.75,0-5.55-.84a5.89,5.89,0,0,0-2.54-.22c-3,0-6,.58-8.88,0a26.23,26.23,0,0,0-5.11-.62c-2,0-3.93.24-5.89.23-3.58,0-7.15-.19-10.72-.25-2.41,0-4.82.05-7.22,0a33.26,33.26,0,0,1-4.33-.54,6.16,6.16,0,0,1-1.48-.63c-.2-.1-.38-.4-.55-.38-1.57.14-3.14.32-4.72.5-.44,0-1,.3-1.32.15-4.38-1.8-9-2.38-13.66-2.94l-4.58-.57c-.13,0-.34,0-.38-.11-.68-1.55-2-.74-2.94-.6-.66.1-1.26.91-1.81,1.48-.26.27-.55.82-.44,1.09,1.21,3,0,6.1.8,9.17.62,2.49,0,5.28,0,7.93,0,1.78.17,3.55.22,5.33a2.76,2.76,0,0,1-.33.84c-.3-.14-.83-.24-.86-.43-.14-.86-.14-1.74-.2-2.63a3.08,3.08,0,0,1-.84.28c-1.39.05-2.73-.3-4.17.46-1,.52-2.47.05-3.72.13s-1.53.65-1,1.83c.81,1.89,1.6,2.06,4,1.92a91.93,91.93,0,0,1,9.39.05c2.31.11,4.6.58,6.91.73,2.88.19,5.77.11,8.65.33,4.85.36,9.7.89,14.55,1.32q3.75.33,7.51.58c1.73.12,3.46.25,5.2.25,1.45,0,2.91-.22,4.37-.23,4.11,0,8.22,0,12.32,0,3.17,0,6.35,0,9.51.14,1.76.08,3.49.61,5.25.71,2.36.13,4.73.08,7.1,0,1.64,0,3.28-.19,4.91-.33.66-.06,1.31-.21,2.1-.34-.91-1.35-1.7-2.09-3.4-1.82a28.4,28.4,0,0,1-5.28-.17,4.61,4.61,0,0,0-1.78,0c-1.64.65-2.29,0-2.4-1.92,1.2.24,2.31.49,3.43.68.51.08,1.05,0,1.57.05.9.11,1.8.39,2.7.41a20.88,20.88,0,0,0,3.35-.23c1.83-.23,2.68,1.06,3.56,2.23a12.63,12.63,0,0,1,1.3,2.29,2.44,2.44,0,0,1,0,1.05,12.24,12.24,0,0,0-.1,1.47c.13,1.38.32,2.75.51,4.26.49-.11,1.09-.24,1.68-.39.26-.06.52-.3.73-.25,1.49.31,2.89.91,4.4,1.22,1.29.27,2.28,1.9,3.43,2.95l.65-.59.39.13v5.69l1.25.65-.09.29-1.06.08c-.14,2-.23,4-.43,5.92,0,.45-.46.86-.7,1.28a3.68,3.68,0,0,1-.46-1.24c.06-2.89.15-5.77.32-8.65,0-.76-.12-1-.87-1.19-2-.39-4-1-6.1-1.29a4.69,4.69,0,0,0-2.36.44c-1.39.56-1.88.15-3-.95s-.91-1.89-.58-3.19a39,39,0,0,0,.94-6.47c.12-1.43-.55-1.84-1.92-1.74-4.28.31-8.56.71-12.85.76-2.43,0-4.85-.69-7.3-.87s-5.08-.15-7.62-.2c-.32,0-.64,0-1,0-3.07.09-6.14.29-9.2.24-4.92-.08-9.83-.27-14.74-.52-3.5-.19-7-.57-10.49-.82-4.28-.31-8.57-.55-12.85-.84-3.77-.26-7.55-.55-11.32-.83-2.57-.18-5.14-.43-7.71-.52a21.62,21.62,0,0,0-4.09.31c-.36.06-.76.64-.91,1.07a3.5,3.5,0,0,1-5.12,1.67c-.23.38-.47.74-.68,1.12-2.29,4.2-4.38,8.53-6.93,12.57-2.45,3.87-5.36,7.46-8.12,11.14a71.33,71.33,0,0,1-5.19,6.52,93.65,93.65,0,0,1-8.06,7.5c-3.51,2.9-7.13,5.69-10.88,8.26-4.43,3-9,5.86-13.61,8.59a141.44,141.44,0,0,1-12.58,6.82,44.25,44.25,0,0,1-9.06,2.8c-5.48,1.21-11,2.19-16.56,3.15a22.26,22.26,0,0,1-4-.08c-1,0-2,.06-3.06.06a5.16,5.16,0,0,1-1-.2c.27-.26.52-.72.82-.75a10.39,10.39,0,0,1,3.34,0c2.44.64,4.68-.19,7-.62,2.72-.5,5.47-.88,8.19-1.36,2-.34,3.94-.66,5.87-1.15a36.18,36.18,0,0,0,9.33-3.26c4-2.28,8.13-4.3,12.07-6.66,4.52-2.71,9-5.53,13.31-8.54,3.69-2.57,7.17-5.46,10.7-8.26a51.47,51.47,0,0,0,5.2-4.43c2.16-2.26,4.15-4.7,6.09-7.15,2.42-3.08,4.84-6.17,7.05-9.4s4.08-6.46,6-9.76C114.83,155,116,152.67,117.33,150.06Zm114.51,10.09,1.16,1.32h-2.8l0,.29,5.36,1c-.85-2.33-1.91-3.1-3.52-2.84-1.7-1.79-2.87-1.78-5.39.11l.48,1.15ZM51.28,200.43c2.27-1.13,4.49-2.38,6.83-3.36,1.38-.58,2.79-2.07,4.48-.57,2.93-1.36,8-5.25,8.64-6.8-1,.53-1.85,1-2.74,1.45-5.42,2.59-10.84,5.18-16.3,7.71a1.82,1.82,0,0,0-1.09,1.37c-5.94,1-11.17,3.89-16.6,6.3a1.44,1.44,0,0,0,1,.19C41.1,205.47,46.07,202.66,51.28,200.43Zm181.1-59.61c.61.92,1.27,1.74,2.56,1.55l-.53-2.24-1.84.51-1.77-4,.53-.26,2.16,3.35.61-.46c-2.14-5.32-7-8.45-10.71-12.84,0,1.75-1.11,2.09-2.09,2.26.58,1,1.07,1.94,1.7,2.8.74,1,1.49,2.69,2.42,2.81,1.68.24,1.92,1.7,3,2.35.3.19.6.38.89.6a3.78,3.78,0,0,1,.54.52C230.69,138.77,231.53,139.8,232.38,140.82Zm24.36-19.5L255.3,121l-1.75,1.2c.77,1.09.17,1.89-.73,2.67a2.1,2.1,0,0,0-.53,1.11,21.41,21.41,0,0,0-.26,2.25c3.72-.5,7.45-1.27,10.51-4.19a18.17,18.17,0,0,0,3.94-5.12,12.7,12.7,0,0,1,2.11-2.44c.41-.46.83-.9,1.35-1.46-1.54-.33-2.85-.6-4.16-.9-.86-.19-1.54-.24-1.16,1,.06.18-.24.46-.26.5a20.11,20.11,0,0,0-1.83-1.1c-.35-.16-1.07,0-1.13-.19a2.33,2.33,0,0,1-.06-1.52,15.15,15.15,0,0,1,1.07-2.13l-2.3-2c-.19.38-.3.62-.42.85-1.3,2.56-1.4,2.62-3.49,2a4.2,4.2,0,0,1-.1,1.35,12.08,12.08,0,0,1-1.25,2.14c-.12.17-.56.11-.85.15a3.07,3.07,0,0,1,.1-.82c.34-.8.66-1.54-.51-2-.17-.06-.23-.42-.35-.65,1.06-.43,2-1.14,3-1.15,1.48,0,1.53-.78,1.8-1.87a9.11,9.11,0,0,1,1.58-2.53,11.65,11.65,0,0,0,.84-1.15c.41-.84.57-2.26,1.16-2.45,1.85-.61,1.49-1.59.79-2.69-.56-.29-1-1-1.45-1-1-.13-2-.54-3.07.1a10.93,10.93,0,0,1-2.93,1.07c-.83.22-1.46,0-1.45-.72,1.24-.35,2.21-.56,3.13-.89s2.13-.39,1.56-2.17c1.08.27,1.9.53,2.74.68s1.63.41,1.8-.89c0-.35.63-.63,1-1,.05.48.28,1,.13,1.41a3.11,3.11,0,0,0,.39,3.37,19.86,19.86,0,0,0,2.81,3,1.77,1.77,0,0,0,2.51,0,11.93,11.93,0,0,1,2.59-1.62c1.05-.6,1.41-.42,1.39.78,0,.86-.26,1.72-.21,2.57,0,.35.49.79.86,1a1,1,0,0,0,1-.32c.39-1.19,1.11-2.53.86-3.63a29.89,29.89,0,0,0-2.44-6.46,3.35,3.35,0,0,0-2.25-1.51,25.29,25.29,0,0,0-4.51.12l-3.76.21,0-.38,7.15-.81c-.3-.51-.68-.86-1.05-.85-2.84.09-5.81-.21-8.5.51a38.87,38.87,0,0,0-8.35,3.91,68.72,68.72,0,0,0-6.69,4.45,27.25,27.25,0,0,0-4.88,4.11,8.39,8.39,0,0,0-2.49,6.27l2.52-2.94c1.34,1.45,2.79,1.2,4.38.44a6,6,0,0,1-2.47,1.28c-.57.12-1.23-.22-1.85-.22-.16,0-.5.71-.46.74a1.76,1.76,0,0,1,.52,2.29c-.07.16.38.63.67.82.78.52.7.87-.11,1.22a5,5,0,0,0-.65.41l.71,1.59-1.38-.63-.5,1.15-.37-.11c.23-.83.44-1.66.68-2.49.12-.39.27-.77.41-1.16h-1l-1-.93c-.15.44-.35.87-.46,1.33-.8,3.19.94,5.71,2.43,8.18.64,1,2.09,1.63,3.18,2.4.72.51,1.87.85,2.1,1.51a1.61,1.61,0,0,0,1.55,1.24,12.86,12.86,0,0,0,3.5-.36c.29-.07.66-1,.53-1.38a21.42,21.42,0,0,0-1.38-2.93,6.5,6.5,0,0,1,2.1-1,2.76,2.76,0,0,0,2.52-2,2.19,2.19,0,0,1,2.93-1.28c-.65.43-1.42.91-2.18,1.4Zm-23.19-2.82c-.84.21-1.65.49-2.48.61-1.19.17-1.34.42-.74,1.5s.37,1.55-.91,1.59a11.18,11.18,0,0,0-1.92,0c-.3.06-.79.71-.74.79.79,1.24.88,2.83,2.23,3.81a26.92,26.92,0,0,1,3.14,3.09c2.07,2.12,4,4.37,6.25,6.32.86.75,1.85,2.58,3.59,1,.16-.13.53,0,.8,0l1.1-.09c.1-.89-.05-1.73.31-2.13s1.16-.06,1.82-.06l-.53-2,2.45-.64-1-2.37,2.53-.7a11,11,0,0,0-1.85-1.15c-1.86-.73-3.85-1.2-5.63-2.08a5.88,5.88,0,0,1-3.06-4.09c-.07-.34-.23-.94-.37-.94-1.6-.08-1.23-1.24-1.29-2.19-.07-1.13-.16-2.27-.29-3.4a3.58,3.58,0,0,0-.43-.94c-1.5,2.09-1.5,2.09-3.68,1.47Zm52.14,70.43a12.32,12.32,0,0,0-1.1-7.61c-.19-.38-.55-.88-.9-.95-2.25-.44-4.52-.81-6.79-1.11a15.88,15.88,0,0,0-2.67,0c-1,0-2-1.11-2.9.21,0,0-.26,0-.37-.07a11.47,11.47,0,0,1-2.16-1.08c-2.09-1.61-4.13-3.29-6.17-5-1.88-1.56-3.73-3.16-5.58-4.75a2.55,2.55,0,0,1-.47-.61,30.13,30.13,0,0,0-2.65-4.31c-1.94-2.24-4-4.34-5.72-6.78-1.28-1.8-3.26-3.13-5-4.57s-3.87-2.75-5.6-4.35-3.21-3.63-4.91-5.35c-2-2.08-4.2-4.05-6.32-6.05a1.53,1.53,0,0,0-.42-.22c.61,1.62,1,3.22,2.65,4.25a21.75,21.75,0,0,1,3.83,3.61c.79.84,1.39,1.85,2.17,2.7.61.67,1.39,1.18,2,1.82,3,2.92,5.87,5.86,8.81,8.79.67.68,1.34,1.37,2.07,2,2.16,1.83,4.32,3.53,5.93,6.07,2,3.2,4.86,5.88,7.44,8.71.56.62,1.3,1.62,2.49.51a25.4,25.4,0,0,1,2.31,4.47,24.47,24.47,0,0,1,.87,6.14c.07,4-.11,8.07-.19,12.1,0,.53,0,1.05,0,1.68l1.8-.57c.28-6.37-.81-12.75.23-18.93.84.37,1.57,1,2.17.9,1.59-.27,2.87.45,4.59.68l-1.31,1.22c.89,1.82,1.86,3.58.57,5.53.5.47.89,1.1,1.42,1.28,1.18.39.45.83.2,1.21l9,1.26a16.87,16.87,0,0,1-.57-2.26C284.31,188.43,284.81,188.28,285.69,188.93Zm-47-47.16a9.36,9.36,0,0,0,.93-1.17c.88-1.56.86-1.57-.89-1.61a6,6,0,0,1-.81-.2l1.21-1.06c-1.41-1.25-2.82-2.47-4.2-3.72a7.08,7.08,0,0,1-.95-1.1,12,12,0,0,0-.87-1.38c-1.81-1.81-3.66-3.59-5.52-5.35a5.75,5.75,0,0,0-1.16-.67l-.25.27c-.06-.72-.13-1.45-.22-2.56l-2.73,2.12c1.52,1.38,2.92,2.48,4.13,3.76,1.5,1.6,2.82,3.38,4.29,5C234,136.67,236.32,139.16,238.73,141.77Zm.26.48a12.46,12.46,0,0,1,2.64,2.47c1.07,1.93,3,1.82,4.68,2.41a2.15,2.15,0,0,0,1.62,0c.66-.42,1.51-1.07,1.59-1.71a1.19,1.19,0,0,0-1.74-1.21c-.23.1-.64-.07-.9-.21-1-.6-2.09-1.22-3.12-1.85S242,141,241,140.41Zm24.86-33.33a2.52,2.52,0,0,0,2,2.76c.87.13,2-.91,2.31-2.15.17-.7.29-1.41.5-2.1a1.74,1.74,0,0,0-1.73-2.37C265.1,105.06,263.86,106.6,263.85,108.92Zm-40.18,14.62-.77-1.38a6.93,6.93,0,0,0-.62-1.1c-1.2-1.43-2.17-2.89-1.72-4.93.1-.45-.32-1-.5-1.54-.48.24-1.2.34-1.41.72a4,4,0,0,0,0,4.79c1.17,1.84,3.09,2.67,4.05,4.67Zm45.88-12c.86.62.48,1.93,1.73,1.82,1.9-.15,3.61-3.67,2.64-5.31-.43-.73-1.23-1.2-1.77-.56A36.23,36.23,0,0,0,269.55,111.58ZM94.63,165.83a24.81,24.81,0,0,0-6.95,7.92c2.85-2.09,5.78-4.08,7.64-6.92Zm-5.48,8.59-.12-.15-4.19,3.19.5.72ZM254.53,187.5c1.37,1.46,3,1.12,4.4,1.63C258.81,187.55,258.81,187.55,254.53,187.5Zm-228,19.44c2.1.67,3.06.26,3.87-1.55Zm193.93-80.57,1.45,1.44c.22-.29.67-.64.61-.85C222.32,126.14,221.74,125.84,220.48,126.37Z"/><path d="M190.25,147.28c-2.25,0-4.5,0-6.75,0-6.14-.16-12.27-.39-18.41-.53-2.82-.07-5.64,0-8.46-.05a8.21,8.21,0,0,1-2.17-.76,69.67,69.67,0,0,0-8.6-.93c-3,0-5.57-1.5-8.55-1.66l-.23,1.41-.38.1c-.11-1.42-1.77-1.86-1.62-3.67.33-3.92.29-7.87.33-11.81,0-1.7-.23-3.4-.21-5.11a13,13,0,0,1,.59-2.56c2.28.51,4.42,1,6.59,1.45,3,.59,6,1.16,9,1.65,5.39.87,10.84.82,16.28.89,2.15,0,4.29.74,6.44,1s4.16.29,6.23.43l0-.43-3.14-.23c.75-1.21,1.81-.83,2.7-.78,3.59.2,7.17.56,10.75.79s7.12.4,10.68.55c1.16,0,2.33-.11,3.49-.07a1.4,1.4,0,0,1,1,.56,2.4,2.4,0,0,1,.31,1.17c.3,3.62.69,7.25.83,10.88a55.05,55.05,0,0,1-.5,5.7c-.07,1,.05,2.06,0,3.09a2.59,2.59,0,0,1-.37.83c-.23-.13-.43-.19-.44-.27-.17-1.9-.32-3.79-.47-5.69-.08-1-.19-2.09-.25-3.13-.19-3.14-.38-6.29-.53-9.44a3.09,3.09,0,0,1,.27-1.3c.44-1,0-1.45-.95-1.36-1.38.12-2.76.51-4.14.5-4.1,0-8.19-.2-12.29-.24q-8.07-.06-16.15,0c-3.06,0-6.13.16-9.2.27-.86,0-1.71.22-2.58.25-1.35,0-1.52-.21-1.07-1.47-7.21-.92-14.64-.51-21.75-3.87.1,1.91.18,3.49.27,5.07.11,1.87.22,3.74.36,5.6s.35,3.44.48,5.16a3,3,0,0,1-.23,1.32c-.36.9-.07,1.44.83,1.6,3.21.58,6.41,1.31,9.65,1.63,5.31.53,10.64.82,16,1.14,3.88.24,7.76.36,11.64.56,2.92.15,5.83.37,8.75.51a8.31,8.31,0,0,0,1.58-.35c.77-.13,1.59-.56,2.21.4.14.21.65.25,1,.25,2.79,0,5.59,0,8.37,0,.91,0,1.81.23,2.71.28,1.17.06,2.34,0,3.51.06a3.18,3.18,0,0,1,.81.26,4.56,4.56,0,0,1-.49.72.86.86,0,0,1-.52.14c-4,.19-8,.39-12.05.53-.38,0-.78-.4-1.17-.62Z"/><path d="M234.3,89.81a6.53,6.53,0,0,1,1.27,0c2.59.6,5.17,1.23,7.85,1.88C241.27,92.72,236,91.68,234.3,89.81Z"/><path d="M249.25,84.44c-1.49.92-3.64.29-5.05-1.3-.38-.43-1.31-1-.35-2C245,83.21,246.87,84,249.25,84.44Z"/><path d="M231.85,106.29l-1-.54c-.88-.51-1.78-1-2.64-1.54a3.69,3.69,0,0,1-.65-.71c.29-.09.62-.31.87-.24C230,103.72,231.44,104.33,231.85,106.29Z"/><path d="M214.52,121a8.12,8.12,0,0,1-.92.58s-.22-.22-.33-.34a9.72,9.72,0,0,0,.76-.68c.22-.24.4-.52.77-1,.44.82.82,1.5,1.15,2.2.06.14-.11.38-.17.57-.21-.09-.5-.11-.63-.27A9,9,0,0,1,214.52,121Z"/><path d="M223.46,111.47a4.87,4.87,0,0,1,.3,1.64c0,.27-.68.45-1.32.84l.58-2.35Z"/><path d="M283.32,187.57c-.75.46-.74,2.08-2.11.93-.09-.08-.39.09-.59.16a4.13,4.13,0,0,1-4.13-.87c-.53-.43-1.14-.94-.15-1.6.15-.11.1-.55.1-.84,0-1,0-2,.06-2.95,0-.2.31-.55.46-.55,1.09,0,2.18.14,3.26.27a12.6,12.6,0,0,1,1.3.36c1.05.24,1.5,1.1.72,1.75-1.36,1.15-.38,1.84.27,2.65A8.56,8.56,0,0,0,283.32,187.57Zm-6.31-4.1a21.06,21.06,0,0,0,.79,3.42c.13.33,1,.43,1.58.48.15,0,.36-.56.51-.88a7.83,7.83,0,0,0,.32-.85,1.61,1.61,0,0,0-1.39-2.16C278.32,183.44,277.82,183.47,277,183.47Z"/></g></svg>